{"glyphs":{"0":{"ha":952,"x_min":0,"x_max":868,"o":"m 564 174 q 625 198 600 174 q 651 260 651 224 l 651 434 q 625 495 651 469 q 564 521 600 521 l 304 521 q 241 495 267 521 q 217 434 217 469 l 217 260 q 241 198 217 224 q 304 174 267 174 l 564 174 m 174 0 q 50 50 102 0 q 0 174 0 100 l 0 521 q 50 643 0 593 q 174 694 102 694 l 694 694 q 817 643 765 694 q 868 521 868 593 l 868 174 q 817 50 868 100 q 694 0 765 0 l 174 0 z "},"1":{"ha":518,"x_min":22,"x_max":412,"o":"m 195 0 l 195 477 q 191 495 195 487 q 161 514 178 509 l 130 499 l 22 608 q 72 669 22 643 q 195 694 123 694 l 412 694 l 412 0 l 195 0 z "},"2":{"ha":952,"x_min":22,"x_max":846,"o":"m 22 0 l 22 174 q 72 296 22 244 q 109 324 88 312 l 109 326 l 111 326 q 174 346 140 342 l 174 347 l 601 453 q 608 477 608 464 q 594 507 608 495 q 564 521 582 521 l 22 521 l 22 694 l 673 694 q 795 643 743 694 q 846 521 846 593 l 846 477 q 795 354 846 406 q 694 304 751 311 l 293 203 q 282 174 282 190 l 846 174 l 846 0 l 22 0 z "},"3":{"ha":952,"x_min":0,"x_max":868,"o":"m 0 0 l 0 174 l 586 174 q 616 186 604 174 q 629 217 629 198 q 616 247 629 235 q 586 260 604 260 l 22 260 l 22 434 l 586 434 q 616 446 604 434 q 629 477 629 458 q 616 507 629 495 q 586 521 604 521 l 0 521 l 0 694 l 673 694 q 795 643 743 694 q 846 521 846 593 l 846 477 q 798 357 846 407 q 817 339 807 349 q 868 217 868 288 l 868 174 q 817 50 868 100 q 694 0 765 0 l 0 0 z "},"4":{"ha":952,"x_min":0,"x_max":868,"o":"m 608 282 q 637 294 625 282 q 651 326 651 307 l 651 456 q 637 486 651 473 q 623 495 631 492 l 290 330 q 282 304 282 317 q 288 282 282 292 l 608 282 m 651 0 l 651 65 q 637 95 651 83 q 608 109 625 109 l 174 109 q 50 159 100 109 q 0 260 7 202 q 0 271 0 266 q 0 282 0 275 q 50 382 7 339 q 88 412 68 400 l 87 412 l 564 651 l 564 650 q 593 669 575 659 q 694 693 636 690 l 694 694 l 868 694 l 868 0 l 651 0 z "},"5":{"ha":952,"x_min":0,"x_max":868,"o":"m 0 0 l 0 174 l 608 174 q 637 186 625 174 q 651 217 651 198 l 651 239 q 637 269 651 256 q 608 282 625 282 l 87 282 q 24 307 50 282 q 1 347 7 324 l 0 347 l 0 694 l 825 694 l 825 521 l 260 521 q 229 507 241 521 q 217 488 220 499 q 229 468 220 476 q 260 456 241 456 l 694 456 q 817 404 766 456 q 867 304 860 361 l 868 304 l 868 174 q 817 50 868 100 q 694 0 765 0 l 0 0 z "},"6":{"ha":952,"x_min":0,"x_max":868,"o":"m 608 174 q 637 186 625 174 q 651 217 651 198 l 651 239 q 637 269 651 256 q 608 282 625 282 l 260 282 q 229 269 241 282 q 217 239 217 256 l 217 217 q 229 186 217 198 q 260 174 241 174 l 608 174 m 174 0 q 50 50 100 0 q 0 174 0 102 l 0 521 q 50 643 0 593 q 174 694 102 694 l 825 694 l 825 521 l 260 521 q 229 507 241 521 q 217 488 220 499 q 229 468 220 476 q 260 456 241 456 l 694 456 q 817 404 766 456 q 868 282 868 353 l 868 174 q 817 50 868 100 q 694 0 765 0 l 174 0 z "},"7":{"ha":952,"x_min":0,"x_max":868,"o":"m 22 0 l 529 507 q 499 521 517 521 l 0 521 l 0 694 l 868 694 l 868 651 q 842 528 868 578 q 823 499 833 510 l 825 499 l 326 0 l 22 0 z "},"8":{"ha":952,"x_min":0,"x_max":868,"o":"m 586 174 q 616 186 604 174 q 629 217 629 198 q 616 247 629 235 q 586 260 604 260 l 282 260 q 251 247 263 260 q 239 217 239 235 q 251 186 239 198 q 282 174 263 174 l 586 174 m 586 434 q 616 446 604 434 q 629 477 629 458 q 616 507 629 495 q 586 521 604 521 l 282 521 q 251 507 263 521 q 239 477 239 495 q 251 446 239 458 q 282 434 263 434 l 586 434 m 174 0 q 50 50 102 0 q 0 174 0 100 l 0 217 q 50 339 0 288 q 69 357 60 349 q 22 477 22 407 l 22 521 q 72 643 22 593 q 195 694 123 694 l 673 694 q 795 643 743 694 q 846 521 846 593 l 846 477 q 798 357 846 407 q 817 339 807 349 q 868 217 868 288 l 868 174 q 817 50 868 100 q 694 0 765 0 l 174 0 z "},"9":{"ha":952,"x_min":0,"x_max":868,"o":"m 608 412 q 637 425 625 412 q 651 456 651 437 l 651 477 q 637 507 651 495 q 608 521 625 521 l 260 521 q 229 507 241 521 q 217 477 217 495 l 217 456 q 229 425 217 437 q 260 412 241 412 l 608 412 m 43 0 l 43 174 l 608 174 q 637 186 625 174 q 650 206 647 194 q 637 225 647 217 q 608 239 625 239 l 174 239 q 50 289 100 239 q 0 412 0 340 l 0 521 q 50 643 0 593 q 174 694 102 694 l 694 694 q 817 643 766 694 q 868 521 868 591 l 868 174 q 817 50 868 100 q 694 0 765 0 q 694 0 694 0 l 43 0 z "}," ":{"ha":431,"x_min":0,"x_max":0,"o":""},"!":{"ha":345,"x_min":22,"x_max":239,"o":"m 22 0 l 22 217 l 239 217 l 239 0 l 22 0 m 65 260 l 22 434 l 22 694 l 239 694 l 239 434 l 195 260 l 65 260 z "},"\"":{"ha":605,"x_min":22,"x_max":499,"o":"m 152 434 q 126 556 152 505 q 65 608 100 608 l 22 608 l 22 825 l 239 825 l 239 608 q 213 484 239 536 q 152 434 187 434 l 152 434 m 412 434 q 387 556 412 505 q 326 608 361 608 l 282 608 l 282 825 l 499 825 l 499 608 q 473 484 499 536 q 412 434 448 434 l 412 434 z "},"#":{"ha":605,"x_min":0,"x_max":521,"o":"m 174 0 q 50 50 102 0 q 0 174 0 100 l 0 694 l 217 694 l 217 260 q 241 198 217 224 q 304 174 267 174 l 521 174 l 521 0 l 174 0 z "},"$":{"ha":952,"x_min":0,"x_max":868,"o":"m 586 174 q 616 186 604 174 q 629 217 629 198 q 616 247 629 235 q 586 260 604 260 l 499 260 l 499 174 l 586 174 m 369 434 l 369 521 l 260 521 q 229 507 241 521 q 217 477 217 495 q 229 446 217 458 q 260 434 241 434 l 369 434 m 369 -130 l 369 -43 q 355 -12 369 -24 q 326 0 343 0 l 0 0 l 0 174 l 369 174 l 369 260 l 174 260 q 50 311 102 260 q 0 434 0 361 l 0 521 q 50 643 0 593 q 174 694 102 694 l 326 694 q 355 707 343 694 q 369 738 369 719 l 369 825 l 499 825 l 499 738 q 511 707 499 719 q 543 694 524 694 l 846 694 l 846 521 l 499 521 l 499 434 l 694 434 q 817 382 766 434 q 868 260 868 331 l 868 174 q 817 50 868 100 q 694 0 765 0 l 543 0 q 511 -12 524 0 q 499 -43 499 -24 l 499 -130 l 369 -130 z "},"%":{"ha":1299,"x_min":0,"x_max":1215,"o":"m 1020 109 q 1050 121 1038 109 q 1063 152 1063 133 l 1063 195 q 1050 225 1063 213 q 1020 239 1038 239 l 977 239 q 945 225 958 239 q 933 195 933 213 l 933 152 q 945 121 933 133 q 977 109 958 109 l 1020 109 m 825 0 q 793 12 806 0 q 781 43 781 24 l 781 302 q 793 334 781 321 q 825 347 806 347 l 1172 347 q 1202 334 1190 347 q 1215 302 1215 321 l 1215 43 q 1202 12 1215 24 q 1172 0 1190 0 l 825 0 m 239 456 q 269 468 256 456 q 282 499 282 480 l 282 543 q 269 572 282 560 q 239 586 256 586 l 195 586 q 164 572 176 586 q 152 543 152 560 l 152 499 q 164 468 152 480 q 195 456 176 456 l 239 456 m 43 347 q 12 359 24 347 q 0 391 0 372 l 0 650 q 12 681 0 669 q 43 694 24 694 l 391 694 q 420 681 408 694 q 434 650 434 669 l 434 391 q 420 359 434 372 q 391 347 408 347 l 43 347 m 239 -174 l 760 868 l 977 868 l 456 -174 l 239 -174 z "},"&":{"ha":1039,"x_min":0,"x_max":977,"o":"m 608 174 q 625 176 617 174 q 628 194 628 184 q 627 195 628 194 l 289 279 q 243 233 263 271 q 240 205 240 220 q 251 186 243 194 q 282 174 263 174 l 608 174 m 174 0 q 50 50 102 0 q 0 174 0 100 l 0 217 q 50 339 0 288 q 69 357 60 349 q 22 477 22 407 l 22 521 q 72 643 22 593 q 195 694 123 694 l 760 694 l 760 521 l 282 521 q 251 507 263 521 q 239 477 239 495 q 244 453 239 464 l 643 354 q 651 391 651 370 l 868 391 l 868 347 q 878 307 868 324 l 977 282 l 977 109 l 890 130 q 859 117 871 130 q 846 88 853 102 q 846 87 846 87 l 846 88 q 817 50 834 68 q 694 0 765 0 l 174 0 z "},"'":{"ha":345,"x_min":22,"x_max":239,"o":"m 152 434 q 126 556 152 505 q 65 608 100 608 l 22 608 l 22 825 l 239 825 l 239 608 q 213 484 239 536 q 152 434 187 434 l 152 434 z "},"(":{"ha":431,"x_min":0,"x_max":347,"o":"m 174 -130 q 50 -79 102 -130 q 0 43 0 -28 l 0 651 q 50 773 0 723 q 174 825 102 825 l 347 825 l 347 651 l 304 651 q 241 625 267 651 q 217 564 217 600 l 217 130 q 241 68 217 94 q 304 43 267 43 l 347 43 l 347 -130 l 174 -130 z "},")":{"ha":431,"x_min":0,"x_max":347,"o":"m 0 -130 l 0 43 l 43 43 q 104 68 79 43 q 130 130 130 94 l 130 564 q 104 625 130 600 q 43 651 79 651 l 0 651 l 0 825 l 174 825 q 296 773 244 825 q 347 651 347 723 l 347 43 q 296 -79 347 -28 q 174 -130 244 -130 l 0 -130 z "},"*":{"ha":605,"x_min":0,"x_max":521,"o":"m 0 0 l 0 174 l 217 174 q 278 198 252 174 q 304 260 304 224 l 304 694 l 521 694 l 521 174 q 469 50 521 100 q 347 0 418 0 l 0 0 z "},"+":{"ha":605,"x_min":22,"x_max":499,"o":"m 174 109 l 174 260 l 22 260 l 22 434 l 174 434 l 174 586 l 347 586 l 347 434 l 499 434 l 499 260 l 347 260 l 347 109 l 174 109 z "},",":{"ha":345,"x_min":22,"x_max":239,"o":"m 152 -174 q 126 -50 152 -102 q 65 0 100 0 l 22 0 l 22 217 l 239 217 l 239 0 q 213 -122 239 -71 q 152 -174 187 -174 l 152 -174 z "},"-":{"ha":518,"x_min":0,"x_max":434,"o":"m 0 260 l 0 434 l 434 434 l 434 260 l 0 260 z "},".":{"ha":345,"x_min":22,"x_max":239,"o":"m 22 0 l 22 217 l 239 217 l 239 0 l 22 0 z "},"/":{"ha":779,"x_min":22,"x_max":760,"o":"m 22 -174 l 543 868 l 760 868 l 239 -174 l 22 -174 z "},":":{"ha":345,"x_min":22,"x_max":239,"o":"m 22 0 l 22 217 l 239 217 l 239 0 l 22 0 m 22 282 l 22 499 l 239 499 l 239 282 l 22 282 z "},";":{"ha":345,"x_min":22,"x_max":239,"o":"m 152 -174 q 126 -50 152 -102 q 65 0 100 0 l 22 0 l 22 217 l 239 217 l 239 0 q 213 -122 239 -71 q 152 -174 187 -174 l 152 -174 m 22 282 l 22 499 l 239 499 l 239 282 l 22 282 z "},"<":{"ha":952,"x_min":0,"x_max":868,"o":"m 651 369 l 651 434 q 625 495 651 469 q 564 521 600 521 l 304 521 q 241 495 267 521 q 217 434 217 469 l 217 369 l 651 369 m 0 0 l 0 521 q 50 643 0 593 q 174 694 102 694 l 694 694 q 817 643 766 694 q 868 521 868 591 l 868 0 l 651 0 l 651 195 l 217 195 l 217 0 l 0 0 z "},"=":{"ha":605,"x_min":0,"x_max":521,"o":"m 0 130 l 0 304 l 521 304 l 521 130 l 0 130 m 0 391 l 0 564 l 521 564 l 521 391 l 0 391 z "},">":{"ha":692,"x_min":0,"x_max":608,"o":"m 174 0 q 50 50 102 0 q 0 174 0 100 l 0 825 l 217 825 l 217 738 q 229 707 217 719 q 260 694 241 694 l 586 694 l 586 521 l 260 521 q 229 507 241 521 q 217 477 217 495 l 217 260 q 241 198 217 224 q 304 174 267 174 l 608 174 l 608 0 l 174 0 z "},"?":{"ha":952,"x_min":0,"x_max":868,"o":"m 260 0 l 260 217 l 477 217 l 477 0 l 260 0 m 260 260 q 311 382 260 331 q 434 434 361 434 l 608 434 q 637 446 625 434 q 651 477 651 458 q 637 507 651 495 q 608 521 625 521 l 260 521 q 229 507 241 521 q 217 477 217 495 l 217 434 l 0 434 l 0 521 q 50 643 0 593 q 174 694 102 694 l 694 694 q 817 643 765 694 q 868 521 868 593 l 868 434 q 817 311 868 361 q 694 260 765 260 l 260 260 z "},"@":{"ha":952,"x_min":0,"x_max":868,"o":"m 608 369 q 637 381 625 369 q 651 412 651 393 l 651 477 q 637 507 651 495 q 608 521 625 521 l 260 521 q 229 507 241 521 q 217 477 217 495 l 217 412 q 229 381 217 393 q 260 369 241 369 l 608 369 m 0 0 l 0 521 q 50 643 0 593 q 174 694 102 694 l 694 694 q 817 643 765 694 q 868 521 868 593 l 868 347 l 867 347 q 817 245 860 289 q 694 195 765 195 l 260 195 q 229 182 241 195 q 217 152 217 170 l 217 0 l 0 0 z "},"A":{"ha":952,"x_min":0,"x_max":868,"o":"m 608 369 q 637 381 625 369 q 651 412 651 393 l 651 434 q 625 495 651 469 q 564 521 600 521 l 304 521 q 241 495 267 521 q 217 434 217 469 l 217 412 q 229 381 217 393 q 260 369 241 369 l 608 369 m 0 0 l 0 521 q 50 643 0 593 q 174 694 102 694 l 694 694 q 817 643 766 694 q 868 521 868 591 l 868 0 l 651 0 l 651 152 q 637 182 651 170 q 608 195 625 195 l 260 195 q 229 182 241 195 q 217 152 217 170 l 217 0 l 0 0 z "},"B":{"ha":952,"x_min":0,"x_max":868,"o":"m 586 174 q 616 186 604 174 q 629 217 629 198 q 616 247 629 235 q 586 260 604 260 l 260 260 q 229 247 241 260 q 217 217 217 235 q 229 186 217 198 q 260 174 241 174 l 586 174 m 586 434 q 616 446 604 434 q 629 477 629 458 q 616 507 629 495 q 586 521 604 521 l 260 521 q 229 507 241 521 q 217 477 217 495 q 229 446 217 458 q 260 434 241 434 l 586 434 m 0 0 l 0 694 l 673 694 q 795 643 743 694 q 846 521 846 593 l 846 477 q 798 357 846 407 q 817 339 807 349 q 868 217 868 288 l 868 174 q 817 50 868 100 q 694 0 765 0 l 0 0 z "},"C":{"ha":865,"x_min":0,"x_max":781,"o":"m 174 0 q 50 50 102 0 q 0 174 0 100 l 0 521 q 50 643 0 593 q 174 694 102 694 l 781 694 l 781 521 l 304 521 q 241 495 267 521 q 217 434 217 469 l 217 260 q 241 198 217 224 q 304 174 267 174 l 781 174 l 781 0 l 174 0 z "},"D":{"ha":952,"x_min":0,"x_max":868,"o":"m 564 174 q 625 198 600 174 q 651 260 651 224 l 651 434 q 625 495 651 469 q 564 521 600 521 l 260 521 q 229 507 241 521 q 217 477 217 495 l 217 217 q 229 186 217 198 q 260 174 241 174 l 564 174 m 0 0 l 0 694 l 694 694 q 817 643 765 694 q 868 521 868 593 l 868 174 q 817 50 868 100 q 694 0 765 0 l 0 0 z "},"E":{"ha":865,"x_min":0,"x_max":781,"o":"m 174 0 q 50 50 102 0 q 0 174 0 100 l 0 694 l 781 694 l 781 521 l 260 521 q 229 507 241 521 q 217 477 217 495 q 229 446 217 458 q 260 434 241 434 l 760 434 l 760 260 l 260 260 q 229 247 241 260 q 217 217 217 235 q 229 186 217 198 q 260 174 241 174 l 781 174 l 781 0 l 174 0 z "},"F":{"ha":865,"x_min":0,"x_max":781,"o":"m 0 0 l 0 521 q 50 643 0 593 q 174 694 102 694 l 781 694 l 781 521 l 260 521 q 229 507 241 521 q 217 477 217 495 q 229 446 217 458 q 260 434 241 434 l 760 434 l 760 260 l 260 260 q 229 247 241 260 q 217 217 217 235 l 217 0 l 0 0 z "},"G":{"ha":952,"x_min":0,"x_max":890,"o":"m 174 0 q 50 50 102 0 q 0 174 0 100 l 0 521 q 50 643 0 593 q 174 694 102 694 l 868 694 l 868 521 l 304 521 q 241 495 267 521 q 217 434 217 469 l 217 260 q 241 198 217 224 q 304 174 267 174 l 629 174 q 659 186 647 174 q 673 217 673 198 q 659 247 673 235 q 629 260 647 260 l 369 260 l 369 434 l 716 434 q 838 382 788 434 q 890 260 890 331 l 890 174 q 838 50 890 100 q 716 0 787 0 l 174 0 z "},"H":{"ha":952,"x_min":0,"x_max":868,"o":"m 0 0 l 0 694 l 217 694 l 217 477 q 229 446 217 458 q 260 434 241 434 l 608 434 q 637 446 625 434 q 651 477 651 458 l 651 694 l 868 694 l 868 0 l 651 0 l 651 217 q 637 247 651 235 q 608 260 625 260 l 260 260 q 229 247 241 260 q 217 217 217 235 l 217 0 l 0 0 z "},"I":{"ha":345,"x_min":22,"x_max":239,"o":"m 22 0 l 22 694 l 239 694 l 239 0 l 22 0 z "},"J":{"ha":779,"x_min":-22,"x_max":694,"o":"m -22 0 l -22 174 l 391 174 q 452 198 426 174 q 477 260 477 224 l 477 694 l 694 694 l 694 174 q 643 50 694 100 q 521 0 591 0 l -22 0 z "},"K":{"ha":952,"x_min":0,"x_max":868,"o":"m 0 0 l 0 694 l 217 694 l 217 412 q 229 381 217 393 q 260 369 241 369 l 564 369 q 625 393 600 369 q 651 456 651 419 l 651 694 l 868 694 l 868 347 l 867 347 q 817 245 860 289 q 762 209 792 221 l 868 0 l 651 0 l 553 195 l 260 195 q 229 182 241 195 q 217 152 217 170 l 217 0 l 0 0 z "},"L":{"ha":779,"x_min":0,"x_max":716,"o":"m 174 0 q 50 50 102 0 q 0 174 0 100 l 0 694 l 217 694 l 217 260 q 241 198 217 224 q 304 174 267 174 l 716 174 l 716 0 l 174 0 z "},"M":{"ha":1299,"x_min":0,"x_max":1215,"o":"m 0 0 l 0 694 l 1042 694 q 1164 643 1112 694 q 1215 521 1215 593 l 1215 0 l 998 0 l 998 434 q 972 495 998 469 q 911 521 947 521 l 760 521 q 728 507 741 521 q 716 477 716 495 l 716 0 l 499 0 l 499 477 q 486 507 499 495 q 456 521 473 521 l 260 521 q 229 507 241 521 q 217 477 217 495 l 217 0 l 0 0 z "},"N":{"ha":952,"x_min":0,"x_max":868,"o":"m 0 0 l 0 694 l 694 694 q 817 643 765 694 q 868 521 868 593 l 868 0 l 651 0 l 651 434 q 625 495 651 469 q 564 521 600 521 l 304 521 q 241 495 267 521 q 217 434 217 469 l 217 0 l 0 0 z "},"O":{"ha":952,"x_min":0,"x_max":868,"o":"m 564 174 q 625 198 600 174 q 651 260 651 224 l 651 434 q 625 495 651 469 q 564 521 600 521 l 304 521 q 241 495 267 521 q 217 434 217 469 l 217 260 q 241 198 217 224 q 304 174 267 174 l 564 174 m 174 0 q 50 50 102 0 q 0 174 0 100 l 0 521 q 50 643 0 593 q 174 694 102 694 l 694 694 q 817 643 765 694 q 868 521 868 593 l 868 174 q 817 50 868 100 q 694 0 765 0 l 174 0 z "},"P":{"ha":952,"x_min":0,"x_max":868,"o":"m 564 369 q 625 393 600 369 q 650 445 647 415 q 625 495 647 473 q 564 521 600 521 l 260 521 q 229 507 241 521 q 217 477 217 495 l 217 412 q 229 381 217 393 q 260 369 241 369 l 564 369 m 0 0 l 0 694 l 694 694 q 817 643 765 694 q 868 521 868 593 l 868 347 l 867 347 q 817 245 860 289 q 694 195 765 195 l 260 195 q 229 182 241 195 q 217 152 217 170 l 217 0 l 0 0 z "},"Q":{"ha":952,"x_min":0,"x_max":868,"o":"m 564 174 q 625 198 600 174 q 651 260 651 224 l 651 434 q 625 495 651 469 q 564 521 600 521 l 304 521 q 241 495 267 521 q 217 434 217 469 l 217 260 q 241 198 217 224 q 304 174 267 174 l 564 174 m 434 -130 l 434 -43 q 420 -12 434 -24 q 391 0 408 0 l 174 0 q 50 50 102 0 q 0 174 0 100 l 0 521 q 50 643 0 593 q 174 694 102 694 l 694 694 q 817 643 765 694 q 868 521 868 593 l 868 174 q 817 50 868 100 q 694 0 765 0 q 663 -12 675 0 q 651 -43 651 -24 l 651 -130 l 434 -130 z "},"R":{"ha":952,"x_min":0,"x_max":868,"o":"m 564 369 q 625 393 600 369 q 650 445 647 415 q 625 495 647 473 q 564 521 600 521 l 260 521 q 229 507 241 521 q 217 477 217 495 l 217 412 q 229 381 217 393 q 260 369 241 369 l 564 369 m 0 0 l 0 694 l 694 694 q 817 643 765 694 q 868 521 868 593 l 868 391 q 817 267 868 317 q 808 260 812 263 q 817 252 812 256 q 868 130 868 201 l 868 0 l 651 0 l 651 152 q 637 182 651 170 q 608 195 625 195 l 260 195 q 229 182 241 195 q 217 152 217 170 l 217 0 l 0 0 z "},"S":{"ha":952,"x_min":0,"x_max":868,"o":"m 0 0 l 0 174 l 586 174 q 616 186 604 174 q 629 217 629 198 q 616 247 629 235 q 586 260 604 260 l 174 260 q 50 311 102 260 q 0 434 0 361 l 0 521 q 50 643 0 593 q 174 694 102 694 l 846 694 l 846 521 l 260 521 q 229 507 241 521 q 217 477 217 495 q 229 446 217 458 q 260 434 241 434 l 694 434 q 817 382 766 434 q 868 260 868 331 l 868 174 q 817 50 868 100 q 694 0 765 0 l 0 0 z "},"T":{"ha":952,"x_min":0,"x_max":868,"o":"m 326 0 l 326 477 q 312 507 326 495 q 282 521 300 521 l 0 521 l 0 694 l 868 694 l 868 521 l 586 521 q 555 507 567 521 q 543 477 543 495 l 543 0 l 326 0 z "},"U":{"ha":952,"x_min":0,"x_max":868,"o":"m 174 0 q 50 50 102 0 q 0 174 0 100 l 0 694 l 217 694 l 217 260 q 241 198 217 224 q 304 174 267 174 l 608 174 q 637 186 625 174 q 651 217 651 198 l 651 694 l 868 694 l 868 0 l 174 0 z "},"V":{"ha":952,"x_min":-43,"x_max":911,"o":"m 304 0 l -43 694 l 174 694 l 429 182 q 442 190 435 186 l 694 694 l 911 694 l 564 0 l 304 0 z "},"W":{"ha":1299,"x_min":0,"x_max":1215,"o":"m 174 0 q 50 50 102 0 q 0 174 0 100 l 0 694 l 217 694 l 217 260 q 241 198 217 224 q 304 174 267 174 l 456 174 q 486 186 473 174 q 499 217 499 198 l 499 694 l 716 694 l 716 217 q 728 186 716 198 q 760 174 741 174 l 955 174 q 985 186 972 174 q 998 217 998 198 l 998 694 l 1215 694 l 1215 0 l 174 0 z "},"X":{"ha":1039,"x_min":-43,"x_max":977,"o":"m -43 0 l 316 359 q 320 373 319 366 l 0 694 l 282 694 l 467 510 l 651 694 l 933 694 l 612 373 q 616 359 613 366 l 977 0 l 694 0 l 467 228 l 239 0 l -43 0 z "},"Y":{"ha":952,"x_min":0,"x_max":868,"o":"m 326 0 l 326 152 q 312 182 326 170 q 282 195 300 195 l 152 195 l 151 195 q 50 245 94 202 q 0 369 0 296 l 0 694 l 217 694 l 217 456 q 241 393 217 419 q 304 369 267 369 l 564 369 q 625 393 600 369 q 651 456 651 419 l 651 694 l 868 694 l 868 369 q 817 245 868 296 q 716 195 773 202 l 586 195 q 555 182 567 195 q 543 152 543 170 l 543 0 l 326 0 z "},"Z":{"ha":952,"x_min":22,"x_max":846,"o":"m 22 0 l 22 260 l 543 521 l 22 521 l 22 694 l 846 694 l 846 477 l 239 174 l 846 174 l 846 0 l 22 0 z "},"[":{"ha":431,"x_min":0,"x_max":347,"o":"m 0 -130 l 0 825 l 347 825 l 347 651 l 304 651 q 241 625 267 651 q 217 564 217 600 l 217 130 q 241 68 217 94 q 304 43 267 43 l 347 43 l 347 -130 l 0 -130 z "},"\\":{"ha":692,"x_min":-65,"x_max":673,"o":"m 456 -174 l -65 868 l 152 868 l 673 -174 l 456 -174 z "},"]":{"ha":431,"x_min":0,"x_max":347,"o":"m 0 -130 l 0 43 l 43 43 q 104 68 79 43 q 130 130 130 94 l 130 564 q 104 625 130 600 q 43 651 79 651 l 0 651 l 0 825 l 347 825 l 347 -130 l 0 -130 z "},"^":{"ha":952,"x_min":0,"x_max":868,"o":"m 174 0 q 50 50 102 0 q 0 174 0 100 l 0 521 q 50 643 0 591 q 174 694 100 694 l 694 694 q 817 643 765 694 q 868 521 868 593 l 868 434 q 817 311 868 362 q 694 260 766 260 l 282 260 l 282 412 l 608 412 q 637 425 625 412 q 651 456 651 437 l 651 477 q 637 507 651 495 q 608 521 625 521 l 260 521 q 229 507 241 521 q 217 477 217 495 l 217 217 q 229 186 217 198 q 260 174 241 174 l 825 174 l 825 0 l 174 0 z "},"_":{"ha":779,"x_min":0,"x_max":694,"o":"m 0 -174 l 0 0 l 694 0 l 694 -174 l 0 -174 z "},"`":{"ha":431,"x_min":0,"x_max":304,"o":"m 174 738 l 0 911 l 260 911 l 304 738 l 174 738 z "},"a":{"ha":952,"x_min":0,"x_max":868,"o":"m 608 174 q 637 186 625 174 q 651 217 651 198 l 651 239 q 637 269 651 256 q 608 282 625 282 l 260 282 q 229 269 241 282 q 217 239 217 256 l 217 217 q 229 186 217 198 q 260 174 241 174 l 608 174 m 174 0 q 50 50 102 0 q 0 174 0 100 l 0 260 q 50 382 0 331 q 174 434 100 434 l 608 434 q 637 446 625 434 q 651 477 651 458 q 637 507 651 495 q 608 521 625 521 l 43 521 l 43 694 l 694 694 q 817 643 765 694 q 868 521 868 593 l 868 174 q 817 50 868 102 q 694 0 766 0 l 174 0 z "},"b":{"ha":952,"x_min":0,"x_max":868,"o":"m 564 174 q 625 198 600 174 q 651 260 651 224 l 651 434 q 625 495 651 469 q 564 521 600 521 l 260 521 q 229 507 241 521 q 217 477 217 495 l 217 260 q 241 198 217 224 q 304 174 267 174 l 564 174 m 174 0 q 50 50 102 0 q 0 174 0 100 l 0 825 l 217 825 l 217 738 q 229 707 217 719 q 260 694 241 694 l 694 694 q 817 643 765 694 q 868 521 868 593 l 868 174 q 817 50 868 100 q 694 0 765 0 l 174 0 z "},"c":{"ha":865,"x_min":0,"x_max":781,"o":"m 174 0 q 50 50 102 0 q 0 174 0 100 l 0 521 q 50 643 0 593 q 174 694 102 694 l 781 694 l 781 521 l 304 521 q 241 495 267 521 q 217 434 217 469 l 217 260 q 241 198 217 224 q 304 174 267 174 l 781 174 l 781 0 l 174 0 z "},"d":{"ha":952,"x_min":0,"x_max":868,"o":"m 564 174 q 625 198 600 174 q 651 260 651 224 l 651 477 q 637 507 651 495 q 608 521 625 521 l 304 521 q 241 495 267 521 q 217 434 217 469 l 217 260 q 241 198 217 224 q 304 174 267 174 l 564 174 m 174 0 q 50 50 102 0 q 0 174 0 100 l 0 521 q 50 643 0 593 q 174 694 102 694 l 608 694 q 637 707 625 694 q 651 738 651 719 l 651 825 l 868 825 l 868 174 q 817 50 868 100 q 694 0 765 0 l 174 0 z "},"e":{"ha":952,"x_min":0,"x_max":868,"o":"m 608 412 q 637 425 625 412 q 651 456 651 437 l 651 477 q 637 507 651 495 q 608 521 625 521 l 260 521 q 229 507 241 521 q 217 477 217 495 l 217 456 q 229 425 217 437 q 260 412 241 412 l 608 412 m 174 0 q 50 50 102 0 q 0 174 0 100 l 0 521 q 50 643 0 591 q 174 694 100 694 l 694 694 q 817 643 765 694 q 868 521 868 593 l 868 434 q 817 311 868 362 q 694 260 766 260 l 260 260 q 229 247 241 260 q 217 217 217 235 q 229 186 217 198 q 260 174 241 174 l 825 174 l 825 0 l 174 0 z "},"f":{"ha":431,"x_min":22,"x_max":369,"o":"m 22 0 l 22 673 q 72 795 22 745 q 195 846 123 846 l 282 846 q 251 821 263 846 q 239 760 239 795 l 239 694 l 369 694 l 369 521 l 239 521 l 239 0 l 22 0 z "},"g":{"ha":952,"x_min":0,"x_max":868,"o":"m 564 174 q 625 198 600 174 q 651 260 651 224 l 651 434 q 625 495 651 469 q 564 521 600 521 l 304 521 q 241 495 267 521 q 217 434 217 469 l 217 260 q 241 198 217 224 q 304 174 267 174 l 564 174 m 608 -174 q 637 -148 625 -174 q 651 -87 651 -122 l 651 0 l 174 0 q 50 50 102 0 q 0 174 0 100 l 0 521 q 50 643 0 593 q 174 694 102 694 l 694 694 q 817 643 765 694 q 868 521 868 593 l 868 0 q 817 -122 868 -72 q 694 -174 765 -174 l 608 -174 z "},"h":{"ha":952,"x_min":0,"x_max":868,"o":"m 0 0 l 0 825 l 217 825 l 217 738 q 229 707 217 719 q 260 694 241 694 l 694 694 q 817 643 765 694 q 868 521 868 593 l 868 0 l 651 0 l 651 434 q 625 495 651 469 q 564 521 600 521 l 304 521 q 241 495 267 521 q 217 434 217 469 l 217 0 l 0 0 z "},"i":{"ha":345,"x_min":22,"x_max":239,"o":"m 22 0 l 22 694 l 239 694 l 239 0 l 22 0 m 22 738 l 22 825 l 239 825 l 239 738 l 22 738 z "},"j":{"ha":345,"x_min":-22,"x_max":239,"o":"m -22 -152 q 8 -126 -3 -152 q 22 -65 22 -100 l 22 694 l 239 694 l 239 22 q 187 -100 239 -50 q 65 -152 136 -152 l -22 -152 m 22 738 l 22 825 l 239 825 l 239 738 l 22 738 z "},"k":{"ha":952,"x_min":0,"x_max":868,"o":"m 0 0 l 0 825 l 217 825 l 217 412 q 229 381 217 393 q 260 369 241 369 l 564 369 q 625 393 600 369 q 651 456 651 419 l 651 694 l 868 694 l 868 347 l 867 347 q 817 245 860 289 q 762 209 792 221 l 868 0 l 651 0 l 553 195 l 260 195 q 229 182 241 195 q 217 152 217 170 l 217 0 l 0 0 z "},"l":{"ha":345,"x_min":22,"x_max":239,"o":"m 22 0 l 22 825 l 239 825 l 239 0 l 22 0 z "},"m":{"ha":1299,"x_min":0,"x_max":1215,"o":"m 0 0 l 0 521 q 50 643 0 593 q 174 694 102 694 l 521 694 l 521 693 q 582 669 556 693 q 606 608 606 643 q 632 669 606 643 q 694 694 658 694 l 1042 694 q 1164 643 1112 694 q 1215 521 1215 593 l 1215 0 l 998 0 l 998 434 q 972 495 998 469 q 911 521 947 521 l 760 521 q 728 507 741 521 q 716 477 716 495 l 716 0 l 499 0 l 499 477 q 486 507 499 495 q 456 521 473 521 l 304 521 q 241 495 267 521 q 217 434 217 469 l 217 0 l 0 0 z "},"n":{"ha":952,"x_min":0,"x_max":868,"o":"m 0 0 l 0 521 q 50 643 0 593 q 174 694 102 694 l 694 694 q 817 643 765 694 q 868 521 868 593 l 868 0 l 651 0 l 651 434 q 625 495 651 469 q 564 521 600 521 l 304 521 q 241 495 267 521 q 217 434 217 469 l 217 0 l 0 0 z "},"o":{"ha":952,"x_min":0,"x_max":868,"o":"m 564 174 q 625 198 600 174 q 651 260 651 224 l 651 434 q 625 495 651 469 q 564 521 600 521 l 304 521 q 241 495 267 521 q 217 434 217 469 l 217 260 q 241 198 217 224 q 304 174 267 174 l 564 174 m 174 0 q 50 50 102 0 q 0 174 0 100 l 0 521 q 50 643 0 593 q 174 694 102 694 l 694 694 q 817 643 765 694 q 868 521 868 593 l 868 174 q 817 50 868 100 q 694 0 765 0 l 174 0 z "},"p":{"ha":952,"x_min":0,"x_max":868,"o":"m 564 174 q 625 198 600 174 q 651 260 651 224 l 651 434 q 625 495 651 469 q 564 521 600 521 l 304 521 q 241 495 267 521 q 217 434 217 469 l 217 217 q 229 186 217 198 q 260 174 241 174 l 564 174 m 0 -130 l 0 521 q 50 643 0 593 q 174 694 102 694 l 694 694 q 817 643 765 694 q 868 521 868 593 l 868 174 q 817 50 868 100 q 694 0 765 0 l 260 0 q 229 -12 241 0 q 217 -43 217 -24 l 217 -130 l 0 -130 z "},"q":{"ha":952,"x_min":0,"x_max":868,"o":"m 608 174 q 637 186 625 174 q 651 217 651 198 l 651 434 q 625 495 651 469 q 564 521 600 521 l 304 521 q 241 495 267 521 q 217 434 217 469 l 217 260 q 241 198 217 224 q 304 174 267 174 l 608 174 m 651 -130 l 651 -43 q 637 -12 651 -24 q 608 0 625 0 l 174 0 q 50 50 102 0 q 0 174 0 100 l 0 521 q 50 643 0 593 q 174 694 102 694 l 694 694 q 817 643 765 694 q 868 521 868 593 l 868 -130 l 651 -130 z "},"r":{"ha":518,"x_min":0,"x_max":434,"o":"m 0 0 l 0 521 q 50 643 0 593 q 174 694 102 694 l 434 694 l 434 521 l 304 521 q 241 495 267 521 q 217 434 217 469 l 217 0 l 0 0 z "},"s":{"ha":952,"x_min":0,"x_max":868,"o":"m 0 0 l 0 174 l 586 174 q 616 186 604 174 q 629 217 629 198 q 616 247 629 235 q 586 260 604 260 l 174 260 q 50 311 102 260 q 0 434 0 361 l 0 521 q 50 643 0 593 q 174 694 102 694 l 846 694 l 846 521 l 260 521 q 229 507 241 521 q 217 477 217 495 q 229 446 217 458 q 260 434 241 434 l 694 434 q 817 382 766 434 q 868 260 868 331 l 868 174 q 817 50 868 100 q 694 0 765 0 l 0 0 z "},"t":{"ha":518,"x_min":0,"x_max":434,"o":"m 174 0 q 50 50 102 0 q 0 174 0 100 l 0 825 l 217 825 l 217 738 q 229 707 217 719 q 260 694 241 694 l 412 694 l 412 521 l 260 521 q 229 507 241 521 q 217 477 217 495 l 217 260 q 241 198 217 224 q 304 174 267 174 l 434 174 l 434 0 l 174 0 z "},"u":{"ha":952,"x_min":0,"x_max":868,"o":"m 174 0 q 50 50 102 0 q 0 174 0 100 l 0 694 l 217 694 l 217 260 q 241 198 217 224 q 304 174 267 174 l 564 174 q 625 198 600 174 q 651 260 651 224 l 651 694 l 868 694 l 868 174 q 817 50 868 100 q 694 0 765 0 l 174 0 z "},"v":{"ha":952,"x_min":-43,"x_max":911,"o":"m 412 0 q 289 50 339 0 q 260 87 273 66 l -43 694 l 174 694 l 429 182 q 442 190 435 186 l 694 694 l 911 694 l 608 87 l 606 87 q 578 50 594 66 q 456 0 526 0 l 412 0 z "},"w":{"ha":1299,"x_min":0,"x_max":1215,"o":"m 174 0 q 50 50 102 0 q 0 174 0 100 l 0 694 l 217 694 l 217 260 q 241 198 217 224 q 304 174 267 174 l 456 174 q 486 186 473 174 q 499 217 499 198 l 499 694 l 716 694 l 716 217 q 728 186 716 198 q 760 174 741 174 l 911 174 q 972 198 947 174 q 998 260 998 224 l 998 694 l 1215 694 l 1215 174 q 1164 50 1215 100 q 1042 0 1112 0 l 694 0 q 632 24 658 0 q 606 87 606 50 q 582 24 606 50 q 521 0 556 0 l 174 0 z "},"x":{"ha":1039,"x_min":-43,"x_max":977,"o":"m -43 0 l 326 369 l 0 694 l 282 694 l 467 510 l 651 694 l 933 694 l 608 369 l 977 0 l 694 0 l 467 228 l 239 0 l -43 0 z "},"y":{"ha":952,"x_min":0,"x_max":868,"o":"m 608 -152 q 637 -126 625 -152 q 651 -65 651 -100 l 651 0 l 174 0 q 50 50 102 0 q 0 174 0 100 l 0 694 l 217 694 l 217 260 q 241 198 217 224 q 304 174 267 174 l 564 174 q 625 198 600 174 q 651 260 651 224 l 651 694 l 868 694 l 868 22 q 817 -100 868 -50 q 694 -152 765 -152 l 608 -152 z "},"z":{"ha":952,"x_min":22,"x_max":846,"o":"m 195 0 q 72 50 123 0 q 22 152 28 94 l 22 239 q 72 339 28 296 q 174 389 115 382 l 174 391 l 563 487 q 564 499 564 492 q 562 514 564 507 q 556 517 559 515 q 548 521 552 518 l 43 521 l 43 694 l 673 694 q 795 643 743 694 q 846 521 846 593 q 795 397 846 449 q 760 369 779 381 l 755 368 q 694 347 727 351 l 294 247 q 260 206 266 228 q 273 186 263 194 q 304 174 285 174 l 846 174 l 846 0 l 195 0 z "},"{":{"ha":865,"x_min":0,"x_max":781,"o":"m 0 0 l 0 694 l 781 694 l 781 521 l 260 521 q 229 507 241 521 q 217 477 217 495 q 229 446 217 458 q 260 434 241 434 l 760 434 l 760 260 l 260 260 q 229 247 241 260 q 217 217 217 235 l 217 0 l 0 0 z "},"|":{"ha":345,"x_min":43,"x_max":217,"o":"m 43 -217 l 43 911 l 217 911 l 217 -217 l 43 -217 z "},"}":{"ha":952,"x_min":0,"x_max":890,"o":"m 564 369 q 625 393 600 369 q 650 445 647 415 q 625 495 647 473 q 564 521 600 521 l 260 521 q 229 507 241 521 q 217 477 217 495 l 217 412 q 229 381 217 393 q 260 369 241 369 l 564 369 m 0 0 l 0 521 q 50 643 0 593 q 174 694 102 694 l 694 694 q 817 643 765 694 q 868 521 868 593 l 868 347 l 867 347 q 817 245 860 289 q 780 217 799 228 l 890 0 l 673 0 l 575 195 l 260 195 q 229 182 241 195 q 217 152 217 170 l 217 0 l 0 0 z "},"~":{"ha":1039,"x_min":43,"x_max":998,"o":"m 43 0 l 43 694 l 260 694 l 260 412 q 273 381 260 393 q 304 369 285 369 l 456 369 q 536 378 499 369 l 694 694 l 933 694 l 727 282 q 732 264 730 273 l 998 0 l 716 0 l 528 187 q 456 195 495 195 l 304 195 q 273 182 285 195 q 260 152 260 170 l 260 0 l 43 0 z "}," ":{"ha":84,"x_min":0,"x_max":0,"o":""},"¡":{"ha":345,"x_min":22,"x_max":239,"o":"m 22 -130 l 22 260 l 65 434 l 195 434 l 239 260 l 239 -130 l 22 -130 m 22 477 l 22 694 l 239 694 l 239 477 l 22 477 z "},"¢":{"ha":865,"x_min":0,"x_max":781,"o":"m 369 174 l 369 521 l 304 521 q 241 495 267 521 q 217 434 217 469 l 217 260 q 241 198 217 224 q 304 174 267 174 l 369 174 m 369 -130 l 369 0 l 174 0 q 50 50 102 0 q 0 174 0 100 l 0 521 q 50 643 0 593 q 174 694 102 694 l 369 694 l 369 825 l 499 825 l 499 694 l 781 694 l 781 521 l 499 521 l 499 174 l 781 174 l 781 0 l 499 0 l 499 -130 l 369 -130 z "},"£":{"ha":952,"x_min":-43,"x_max":868,"o":"m -22 0 l -22 174 l 43 174 q 73 186 61 174 q 87 217 87 198 l 87 260 l -43 260 l 43 434 l 87 434 l 87 521 q 137 643 87 593 q 260 694 189 694 l 803 694 l 803 521 l 391 521 q 328 495 354 521 q 304 446 308 473 q 309 434 305 439 l 781 434 l 694 260 l 309 260 q 304 239 304 250 l 304 217 q 316 186 304 198 q 347 174 328 174 l 868 174 l 868 0 l -22 0 z "},"¤":{"ha":865,"x_min":0,"x_max":781,"o":"m 174 0 q 50 50 102 0 q 0 174 0 100 l 0 521 q 50 643 0 593 q 174 694 102 694 l 781 694 l 781 521 l 260 521 q 229 507 241 521 q 217 477 217 495 q 229 446 217 458 q 260 434 241 434 l 760 434 l 760 260 l 260 260 q 229 247 241 260 q 217 217 217 235 q 229 186 217 198 q 260 174 241 174 l 781 174 l 781 0 l 174 0 z "},"¥":{"ha":952,"x_min":0,"x_max":868,"o":"m 326 0 l 326 109 l 87 109 l 174 282 l 326 282 l 326 304 q 312 334 326 321 q 282 347 300 347 l 152 347 l 151 347 q 50 397 94 354 q 0 521 0 448 l 0 694 l 217 694 l 217 608 q 241 545 217 571 q 304 521 267 521 l 564 521 q 625 545 600 521 q 651 608 651 571 l 651 694 l 868 694 l 868 521 q 817 397 868 448 q 716 347 773 354 l 586 347 q 555 334 567 347 q 543 304 543 321 l 543 282 l 781 282 l 694 109 l 543 109 l 543 0 l 326 0 z "},"¦":{"ha":345,"x_min":43,"x_max":217,"o":"m 43 -217 l 43 217 l 217 217 l 217 -217 l 43 -217 m 43 477 l 43 911 l 217 911 l 217 477 l 43 477 z "},"§":{"ha":865,"x_min":22,"x_max":846,"o":"m 22 0 l 22 174 l 564 174 q 594 186 582 174 q 606 206 604 194 q 572 247 601 228 l 174 347 l 172 347 q 111 368 140 351 l 109 369 q 72 397 88 381 q 22 521 22 449 q 72 643 22 593 q 195 694 123 694 l 825 694 l 825 521 l 319 521 q 311 517 315 518 q 305 514 308 515 q 304 499 304 507 q 304 487 304 492 l 694 391 l 694 389 q 795 339 751 382 q 845 239 838 296 l 846 239 l 846 152 l 845 152 q 795 50 838 94 q 673 0 743 0 l 22 0 z "},"¨":{"ha":518,"x_min":0,"x_max":434,"o":"m 0 738 l 0 911 l 174 911 l 174 738 l 0 738 m 260 738 l 260 911 l 434 911 l 434 738 l 260 738 z "},"©":{"ha":952,"x_min":0,"x_max":868,"o":"m 608 -174 q 637 -148 625 -174 q 651 -87 651 -122 l 651 434 q 625 495 651 469 q 564 521 600 521 l 304 521 q 241 495 267 521 q 217 434 217 469 l 217 260 q 241 198 217 224 q 304 174 267 174 l 586 174 l 586 0 l 174 0 q 50 50 102 0 q 0 174 0 100 l 0 521 q 50 643 0 593 q 174 694 102 694 l 694 694 q 817 643 765 694 q 868 521 868 593 l 868 0 q 817 -122 868 -72 q 694 -174 765 -174 l 608 -174 z "},"ª":{"ha":952,"x_min":0,"x_max":868,"o":"m 174 0 q 50 50 102 0 q 0 174 0 100 l 0 260 q 50 382 0 331 q 174 434 100 434 l 586 434 l 586 282 l 260 282 q 229 269 241 282 q 217 239 217 256 l 217 217 q 229 186 217 198 q 260 174 241 174 l 608 174 q 637 186 625 174 q 651 217 651 198 l 651 477 q 637 507 651 495 q 608 521 625 521 l 43 521 l 43 694 l 694 694 q 817 643 765 694 q 868 521 868 593 l 868 174 q 817 50 868 102 q 694 0 766 0 l 174 0 z "},"«":{"ha":952,"x_min":0,"x_max":868,"o":"m 0 -130 l 0 694 l 694 694 q 817 643 765 694 q 868 521 868 593 l 868 174 q 817 50 868 100 q 694 0 765 0 l 282 0 l 282 174 l 564 174 q 625 198 600 174 q 651 260 651 224 l 651 434 q 625 495 651 469 q 564 521 600 521 l 260 521 q 229 507 241 521 q 217 477 217 495 l 217 -130 l 0 -130 z "},"¬":{"ha":952,"x_min":0,"x_max":868,"o":"m 174 282 q 50 332 102 282 q 0 456 0 382 l 0 694 l 217 694 l 217 543 q 241 480 217 506 q 304 456 267 456 l 586 456 l 586 282 l 174 282 m 43 0 l 43 174 l 564 174 q 625 198 600 174 q 651 260 651 224 l 651 694 l 868 694 l 868 174 q 817 50 868 100 q 694 0 765 0 l 43 0 z "},"­":{"ha":518,"x_min":0,"x_max":434,"o":"m 0 260 l 0 434 l 434 434 l 434 260 l 0 260 z "},"®":{"ha":952,"x_min":0,"x_max":868,"o":"m 0 0 l 0 694 l 694 694 q 817 643 765 694 q 868 521 868 593 l 868 174 q 817 50 868 100 q 694 0 765 0 l 282 0 l 282 174 l 564 174 q 625 198 600 174 q 651 260 651 224 l 651 434 q 625 495 651 469 q 564 521 600 521 l 260 521 q 229 507 241 521 q 217 477 217 495 l 217 0 l 0 0 z "},"¯":{"ha":518,"x_min":0,"x_max":434,"o":"m 0 738 l 0 911 l 434 911 l 434 738 l 0 738 z "},"°":{"ha":518,"x_min":0,"x_max":434,"o":"m 239 456 q 269 468 256 456 q 282 499 282 480 l 282 543 q 269 572 282 560 q 239 586 256 586 l 195 586 q 164 572 176 586 q 152 543 152 560 l 152 499 q 164 468 152 480 q 195 456 176 456 l 239 456 m 43 347 q 12 359 24 347 q 0 391 0 372 l 0 650 q 12 681 0 669 q 43 694 24 694 l 391 694 q 420 681 408 694 q 434 650 434 669 l 434 391 q 420 359 434 372 q 391 347 408 347 l 43 347 z "},"±":{"ha":605,"x_min":22,"x_max":499,"o":"m 87 0 l 87 174 l 434 174 l 434 0 l 87 0 m 174 217 l 174 369 l 22 369 l 22 543 l 174 543 l 174 694 l 347 694 l 347 543 l 499 543 l 499 369 l 347 369 l 347 217 l 174 217 z "},"²":{"ha":1039,"x_min":0,"x_max":1042,"o":"m 174 0 q 50 50 100 0 q 0 174 0 102 l 0 694 l 217 694 l 217 217 q 229 186 217 198 q 237 179 233 182 q 245 180 241 179 l 760 694 l 1042 694 l 391 43 q 361 24 378 34 q 260 0 317 3 l 174 0 z "},"³":{"ha":1039,"x_min":0,"x_max":1042,"o":"m 174 0 q 50 50 100 0 q 0 174 0 102 l 0 521 q 50 643 0 593 q 174 694 102 694 l 673 694 l 499 521 l 304 521 q 241 495 267 521 q 217 434 217 469 l 217 217 q 229 186 217 198 q 237 179 233 182 q 245 180 241 179 l 760 694 l 1042 694 l 391 43 q 361 24 378 34 q 260 0 317 3 l 174 0 z "},"´":{"ha":431,"x_min":43,"x_max":347,"o":"m 43 738 l 87 911 l 347 911 l 174 738 l 43 738 z "},"µ":{"ha":952,"x_min":0,"x_max":868,"o":"m 0 -130 l 0 694 l 217 694 l 217 260 q 241 198 217 224 q 304 174 267 174 l 564 174 q 625 198 600 174 q 651 260 651 224 l 651 694 l 868 694 l 868 174 q 817 50 868 100 q 694 0 765 0 l 217 0 l 217 -130 l 0 -130 z "},"¶":{"ha":692,"x_min":22,"x_max":586,"o":"m 195 -130 l 195 391 q 72 441 122 391 q 22 564 22 492 l 22 651 q 72 773 22 723 q 195 825 123 825 l 586 825 l 586 -130 l 456 -130 l 456 694 l 412 694 l 412 -130 l 195 -130 z "},"·":{"ha":431,"x_min":0,"x_max":347,"o":"m 0 195 l 0 499 l 347 499 l 347 195 l 0 195 z "},"¸":{"ha":431,"x_min":43,"x_max":304,"o":"m 130 -260 l 43 -174 l 174 -174 q 203 -160 191 -174 q 217 -130 217 -148 q 203 -99 217 -111 q 174 -87 191 -87 l 43 -87 l 87 87 l 217 87 l 195 0 l 217 0 q 278 -24 252 0 q 304 -87 304 -50 l 304 -174 q 278 -235 304 -209 q 217 -260 252 -260 l 130 -260 z "},"¹":{"ha":1039,"x_min":-87,"x_max":955,"o":"m 694 282 q 724 294 712 282 q 738 326 738 307 l 738 477 q 724 507 738 495 q 722 510 723 509 q 699 503 709 507 l 507 312 q 505 304 506 308 q 511 294 507 298 q 543 282 524 282 l 694 282 m -87 0 l 564 651 l 564 650 q 593 669 575 659 q 694 693 636 690 l 694 694 l 825 694 q 810 692 817 694 q 903 643 863 684 q 955 521 955 591 l 955 0 l 738 0 l 738 65 q 724 95 738 83 q 694 109 712 109 l 369 109 q 296 100 328 109 l 195 0 l -87 0 z "},"º":{"ha":692,"x_min":43,"x_max":564,"o":"m 43 0 l 43 174 l 564 174 l 564 0 l 43 0 m 347 391 q 377 403 365 391 q 391 434 391 415 l 391 477 q 377 507 391 495 q 347 521 365 521 l 260 521 q 229 507 241 521 q 217 477 217 495 l 217 434 q 229 403 217 415 q 260 391 241 391 l 347 391 m 217 217 q 94 267 144 217 q 43 391 43 319 l 43 521 q 94 643 43 593 q 217 694 145 694 l 391 694 q 513 643 463 694 q 564 521 564 591 l 564 391 q 513 267 564 317 q 391 217 461 217 l 217 217 z "},"»":{"ha":952,"x_min":0,"x_max":868,"o":"m 651 -130 l 651 477 q 637 507 651 495 q 608 521 625 521 l 304 521 q 241 495 267 521 q 217 434 217 469 l 217 260 q 241 198 217 224 q 304 174 267 174 l 586 174 l 586 0 l 174 0 q 50 50 102 0 q 0 174 0 100 l 0 521 q 50 643 0 593 q 174 694 102 694 l 868 694 l 868 -130 l 651 -130 z "},"¼":{"ha":952,"x_min":0,"x_max":868,"o":"m 651 0 l 651 65 q 637 95 651 83 q 608 109 625 109 l 174 109 q 50 159 100 109 q 4 239 15 194 l 0 239 q 0 263 0 251 q 0 282 0 273 l 1 282 q 24 361 7 326 q 43 391 34 378 l 304 651 l 304 650 q 332 669 315 659 q 456 694 384 694 l 629 694 l 247 312 q 244 304 245 308 q 251 294 247 298 q 282 282 263 282 l 608 282 q 637 294 625 282 q 651 326 651 307 l 651 521 l 868 521 l 868 0 l 651 0 z "},"½":{"ha":1299,"x_min":0,"x_max":1215,"o":"m 0 0 l 0 521 q 50 643 0 593 q 174 694 102 694 l 1042 694 q 1164 643 1112 694 q 1215 521 1215 593 l 1215 0 l 998 0 l 998 434 q 972 495 998 469 q 911 521 947 521 l 760 521 q 728 507 741 521 q 716 477 716 495 l 716 0 l 499 0 l 499 477 q 486 507 499 495 q 456 521 473 521 l 304 521 q 241 495 267 521 q 217 434 217 469 l 217 0 l 0 0 z "},"¾":{"ha":1299,"x_min":0,"x_max":1215,"o":"m 174 0 q 50 50 102 0 q 0 174 0 100 l 0 694 l 217 694 l 217 260 q 241 198 217 224 q 304 174 267 174 l 456 174 q 486 186 473 174 q 499 217 499 198 l 499 694 l 716 694 l 716 217 q 728 186 716 198 q 760 174 741 174 l 911 174 q 972 198 947 174 q 998 260 998 224 l 998 694 l 1215 694 l 1215 174 q 1164 50 1215 100 q 1042 0 1112 0 l 174 0 z "},"¿":{"ha":952,"x_min":0,"x_max":868,"o":"m 174 0 q 50 50 102 0 q 0 174 0 100 l 0 260 q 50 382 0 332 q 174 434 102 434 l 608 434 q 556 311 608 362 q 434 260 506 260 l 260 260 q 229 247 241 260 q 217 217 217 235 q 229 186 217 198 q 260 174 241 174 l 608 174 q 637 186 625 174 q 651 217 651 198 l 651 260 l 868 260 l 868 174 q 817 50 868 100 q 694 0 765 0 l 174 0 m 391 477 l 391 694 l 608 694 l 608 477 l 391 477 z "},"À":{"ha":952,"x_min":0,"x_max":868,"o":"m 608 369 q 637 381 625 369 q 651 412 651 393 l 651 434 q 625 495 651 469 q 564 521 600 521 l 304 521 q 241 495 267 521 q 217 434 217 469 l 217 412 q 229 381 217 393 q 260 369 241 369 l 608 369 m 0 0 l 0 521 q 50 643 0 593 q 174 694 102 694 l 694 694 q 817 643 766 694 q 868 521 868 591 l 868 0 l 651 0 l 651 152 q 637 182 651 170 q 608 195 625 195 l 260 195 q 229 182 241 195 q 217 152 217 170 l 217 0 l 0 0 m 412 738 l 239 911 l 499 911 l 543 738 l 412 738 z "},"Á":{"ha":952,"x_min":0,"x_max":868,"o":"m 608 369 q 637 381 625 369 q 651 412 651 393 l 651 434 q 625 495 651 469 q 564 521 600 521 l 304 521 q 241 495 267 521 q 217 434 217 469 l 217 412 q 229 381 217 393 q 260 369 241 369 l 608 369 m 0 0 l 0 521 q 50 643 0 593 q 174 694 102 694 l 694 694 q 817 643 766 694 q 868 521 868 591 l 868 0 l 651 0 l 651 152 q 637 182 651 170 q 608 195 625 195 l 260 195 q 229 182 241 195 q 217 152 217 170 l 217 0 l 0 0 m 304 738 l 347 911 l 608 911 l 434 738 l 304 738 z "},"Â":{"ha":952,"x_min":0,"x_max":868,"o":"m 608 369 q 637 381 625 369 q 651 412 651 393 l 651 434 q 625 495 651 469 q 564 521 600 521 l 304 521 q 241 495 267 521 q 217 434 217 469 l 217 412 q 229 381 217 393 q 260 369 241 369 l 608 369 m 0 0 l 0 521 q 50 643 0 593 q 174 694 102 694 l 694 694 q 817 643 766 694 q 868 521 868 591 l 868 0 l 651 0 l 651 152 q 637 182 651 170 q 608 195 625 195 l 260 195 q 229 182 241 195 q 217 152 217 170 l 217 0 l 0 0 m 217 738 l 391 911 l 477 911 l 651 738 l 477 738 l 434 781 l 391 738 l 217 738 z "},"Ã":{"ha":952,"x_min":0,"x_max":868,"o":"m 608 369 q 637 381 625 369 q 651 412 651 393 l 651 434 q 625 495 651 469 q 564 521 600 521 l 304 521 q 241 495 267 521 q 217 434 217 469 l 217 412 q 229 381 217 393 q 260 369 241 369 l 608 369 m 0 0 l 0 521 q 50 643 0 593 q 174 694 102 694 l 694 694 q 817 643 766 694 q 868 521 868 591 l 868 0 l 651 0 l 651 152 q 637 182 651 170 q 608 195 625 195 l 260 195 q 229 182 241 195 q 217 152 217 170 l 217 0 l 0 0 m 260 716 l 260 846 q 311 907 260 882 q 434 933 362 933 q 556 958 505 933 q 608 1020 608 983 l 608 890 q 556 827 608 853 q 434 803 505 803 q 311 777 362 803 q 260 716 260 751 l 260 716 z "},"Ä":{"ha":952,"x_min":0,"x_max":868,"o":"m 608 369 q 637 381 625 369 q 651 412 651 393 l 651 434 q 625 495 651 469 q 564 521 600 521 l 304 521 q 241 495 267 521 q 217 434 217 469 l 217 412 q 229 381 217 393 q 260 369 241 369 l 608 369 m 0 0 l 0 521 q 50 643 0 593 q 174 694 102 694 l 694 694 q 817 643 766 694 q 868 521 868 591 l 868 0 l 651 0 l 651 152 q 637 182 651 170 q 608 195 625 195 l 260 195 q 229 182 241 195 q 217 152 217 170 l 217 0 l 0 0 m 217 738 l 217 911 l 391 911 l 391 738 l 217 738 m 477 738 l 477 911 l 651 911 l 651 738 l 477 738 z "},"Å":{"ha":952,"x_min":0,"x_max":868,"o":"m 608 369 q 637 381 625 369 q 651 412 651 393 l 651 434 q 625 495 651 469 q 564 521 600 521 l 304 521 q 241 495 267 521 q 217 434 217 469 l 217 412 q 229 381 217 393 q 260 369 241 369 l 608 369 m 0 0 l 0 521 q 50 643 0 593 q 174 694 102 694 l 694 694 q 817 643 766 694 q 868 521 868 591 l 868 0 l 651 0 l 651 152 q 637 182 651 170 q 608 195 625 195 l 260 195 q 229 182 241 195 q 217 152 217 170 l 217 0 l 0 0 m 456 825 q 486 837 473 825 q 499 868 499 849 q 486 898 499 886 q 456 911 473 911 l 412 911 q 381 898 393 911 q 369 868 369 886 q 381 837 369 849 q 412 825 393 825 l 456 825 m 369 738 q 307 762 332 738 q 282 825 282 788 l 282 911 q 307 972 282 947 q 369 998 332 998 l 499 998 q 560 972 534 998 q 586 911 586 947 l 586 825 q 560 762 586 788 q 499 738 534 738 l 369 738 z "},"Æ":{"ha":1560,"x_min":-87,"x_max":1476,"o":"m -87 0 l 564 651 l 564 650 q 593 669 575 659 q 694 693 636 690 l 694 694 l 1476 694 l 1476 521 l 998 521 q 967 507 979 521 q 955 477 955 495 q 967 446 955 458 q 998 434 979 434 l 1476 434 l 1476 260 l 998 260 q 967 247 979 260 q 955 217 955 235 q 967 186 955 198 q 998 174 979 174 l 1476 174 l 1476 0 l 911 0 q 788 50 840 0 q 761 84 772 66 l 741 104 q 694 109 718 109 l 391 109 l 564 282 l 694 282 q 724 294 712 282 q 738 326 738 307 l 738 477 q 724 507 738 495 q 722 510 723 509 q 699 503 709 507 l 195 0 l -87 0 z "},"Ç":{"ha":865,"x_min":0,"x_max":781,"o":"m 391 -260 l 304 -174 l 434 -174 q 464 -160 452 -174 q 477 -130 477 -148 q 464 -99 477 -111 q 434 -87 452 -87 l 304 -87 l 347 0 l 174 0 q 50 50 102 0 q 0 174 0 100 l 0 521 q 50 643 0 593 q 174 694 102 694 l 781 694 l 781 521 l 304 521 q 241 495 267 521 q 217 434 217 469 l 217 260 q 241 198 217 224 q 304 174 267 174 l 781 174 l 781 0 l 526 0 q 551 -39 541 -18 q 564 -87 564 -60 l 564 -174 q 538 -235 564 -209 q 477 -260 513 -260 l 391 -260 z "},"È":{"ha":865,"x_min":0,"x_max":781,"o":"m 174 0 q 50 50 102 0 q 0 174 0 100 l 0 694 l 781 694 l 781 521 l 260 521 q 229 507 241 521 q 217 477 217 495 q 229 446 217 458 q 260 434 241 434 l 760 434 l 760 260 l 260 260 q 229 247 241 260 q 217 217 217 235 q 229 186 217 198 q 260 174 241 174 l 781 174 l 781 0 l 174 0 m 391 738 l 217 911 l 477 911 l 521 738 l 391 738 z "},"É":{"ha":865,"x_min":0,"x_max":781,"o":"m 174 0 q 50 50 102 0 q 0 174 0 100 l 0 694 l 781 694 l 781 521 l 260 521 q 229 507 241 521 q 217 477 217 495 q 229 446 217 458 q 260 434 241 434 l 760 434 l 760 260 l 260 260 q 229 247 241 260 q 217 217 217 235 q 229 186 217 198 q 260 174 241 174 l 781 174 l 781 0 l 174 0 m 260 738 l 304 911 l 564 911 l 391 738 l 260 738 z "},"Ê":{"ha":865,"x_min":0,"x_max":781,"o":"m 174 0 q 50 50 102 0 q 0 174 0 100 l 0 694 l 781 694 l 781 521 l 260 521 q 229 507 241 521 q 217 477 217 495 q 229 446 217 458 q 260 434 241 434 l 760 434 l 760 260 l 260 260 q 229 247 241 260 q 217 217 217 235 q 229 186 217 198 q 260 174 241 174 l 781 174 l 781 0 l 174 0 m 174 738 l 347 911 l 434 911 l 608 738 l 434 738 l 391 781 l 347 738 l 174 738 z "},"Ë":{"ha":865,"x_min":0,"x_max":781,"o":"m 174 0 q 50 50 102 0 q 0 174 0 100 l 0 694 l 781 694 l 781 521 l 260 521 q 229 507 241 521 q 217 477 217 495 q 229 446 217 458 q 260 434 241 434 l 760 434 l 760 260 l 260 260 q 229 247 241 260 q 217 217 217 235 q 229 186 217 198 q 260 174 241 174 l 781 174 l 781 0 l 174 0 m 174 738 l 174 911 l 347 911 l 347 738 l 174 738 m 434 738 l 434 911 l 608 911 l 608 738 l 434 738 z "},"Ì":{"ha":345,"x_min":-109,"x_max":239,"o":"m 22 0 l 22 694 l 239 694 l 239 0 l 22 0 m 65 738 l -109 911 l 152 911 l 195 738 l 65 738 z "},"Í":{"ha":345,"x_min":22,"x_max":347,"o":"m 22 0 l 22 694 l 239 694 l 239 0 l 22 0 m 43 738 l 87 911 l 347 911 l 174 738 l 43 738 z "},"Î":{"ha":345,"x_min":-87,"x_max":347,"o":"m 22 0 l 22 694 l 239 694 l 239 0 l 22 0 m -87 738 l 87 911 l 174 911 l 347 738 l 174 738 l 130 781 l 87 738 l -87 738 z "},"Ï":{"ha":345,"x_min":-87,"x_max":347,"o":"m 22 0 l 22 694 l 239 694 l 239 0 l 22 0 m -87 738 l -87 911 l 87 911 l 87 738 l -87 738 m 174 738 l 174 911 l 347 911 l 347 738 l 174 738 z "},"Ð":{"ha":1039,"x_min":-43,"x_max":955,"o":"m 651 174 q 712 198 686 174 q 738 260 738 224 l 738 434 q 712 495 738 469 q 651 521 686 521 l 347 521 q 316 507 328 521 q 304 477 304 495 q 316 446 304 458 q 347 434 328 434 l 434 434 l 434 260 l 347 260 q 316 247 328 260 q 304 217 304 235 q 316 186 304 198 q 347 174 328 174 l 651 174 m 87 0 l 87 217 q 73 247 87 235 q 43 260 61 260 l -43 260 l -43 434 l 43 434 q 73 446 61 434 q 87 477 87 458 l 87 694 l 781 694 q 903 643 852 694 q 955 521 955 593 l 955 174 q 903 50 955 100 q 781 0 852 0 l 87 0 z "},"Ñ":{"ha":952,"x_min":0,"x_max":868,"o":"m 0 0 l 0 694 l 694 694 q 817 643 765 694 q 868 521 868 593 l 868 0 l 651 0 l 651 434 q 625 495 651 469 q 564 521 600 521 l 304 521 q 241 495 267 521 q 217 434 217 469 l 217 0 l 0 0 m 260 716 l 260 846 q 311 907 260 882 q 434 933 362 933 q 556 958 505 933 q 608 1020 608 983 l 608 890 q 556 827 608 853 q 434 803 505 803 q 311 777 362 803 q 260 716 260 751 l 260 716 z "},"Ò":{"ha":952,"x_min":0,"x_max":868,"o":"m 564 174 q 625 198 600 174 q 651 260 651 224 l 651 434 q 625 495 651 469 q 564 521 600 521 l 304 521 q 241 495 267 521 q 217 434 217 469 l 217 260 q 241 198 217 224 q 304 174 267 174 l 564 174 m 174 0 q 50 50 102 0 q 0 174 0 100 l 0 521 q 50 643 0 593 q 174 694 102 694 l 694 694 q 817 643 765 694 q 868 521 868 593 l 868 174 q 817 50 868 100 q 694 0 765 0 l 174 0 m 412 738 l 239 911 l 499 911 l 543 738 l 412 738 z "},"Ó":{"ha":952,"x_min":0,"x_max":868,"o":"m 564 174 q 625 198 600 174 q 651 260 651 224 l 651 434 q 625 495 651 469 q 564 521 600 521 l 304 521 q 241 495 267 521 q 217 434 217 469 l 217 260 q 241 198 217 224 q 304 174 267 174 l 564 174 m 174 0 q 50 50 102 0 q 0 174 0 100 l 0 521 q 50 643 0 593 q 174 694 102 694 l 694 694 q 817 643 765 694 q 868 521 868 593 l 868 174 q 817 50 868 100 q 694 0 765 0 l 174 0 m 304 738 l 347 911 l 608 911 l 434 738 l 304 738 z "},"Ô":{"ha":952,"x_min":0,"x_max":868,"o":"m 564 174 q 625 198 600 174 q 651 260 651 224 l 651 434 q 625 495 651 469 q 564 521 600 521 l 304 521 q 241 495 267 521 q 217 434 217 469 l 217 260 q 241 198 217 224 q 304 174 267 174 l 564 174 m 174 0 q 50 50 102 0 q 0 174 0 100 l 0 521 q 50 643 0 593 q 174 694 102 694 l 694 694 q 817 643 765 694 q 868 521 868 593 l 868 174 q 817 50 868 100 q 694 0 765 0 l 174 0 m 217 738 l 391 911 l 477 911 l 651 738 l 477 738 l 434 781 l 391 738 l 217 738 z "},"Õ":{"ha":952,"x_min":0,"x_max":868,"o":"m 564 174 q 625 198 600 174 q 651 260 651 224 l 651 434 q 625 495 651 469 q 564 521 600 521 l 304 521 q 241 495 267 521 q 217 434 217 469 l 217 260 q 241 198 217 224 q 304 174 267 174 l 564 174 m 174 0 q 50 50 102 0 q 0 174 0 100 l 0 521 q 50 643 0 593 q 174 694 102 694 l 694 694 q 817 643 765 694 q 868 521 868 593 l 868 174 q 817 50 868 100 q 694 0 765 0 l 174 0 m 260 716 l 260 846 q 311 907 260 882 q 434 933 362 933 q 556 958 505 933 q 608 1020 608 983 l 608 890 q 556 827 608 853 q 434 803 505 803 q 311 777 362 803 q 260 716 260 751 l 260 716 z "},"Ö":{"ha":952,"x_min":0,"x_max":868,"o":"m 564 174 q 625 198 600 174 q 651 260 651 224 l 651 434 q 625 495 651 469 q 564 521 600 521 l 304 521 q 241 495 267 521 q 217 434 217 469 l 217 260 q 241 198 217 224 q 304 174 267 174 l 564 174 m 174 0 q 50 50 102 0 q 0 174 0 100 l 0 521 q 50 643 0 593 q 174 694 102 694 l 694 694 q 817 643 765 694 q 868 521 868 593 l 868 174 q 817 50 868 100 q 694 0 765 0 l 174 0 m 217 738 l 217 911 l 391 911 l 391 738 l 217 738 m 477 738 l 477 911 l 651 911 l 651 738 l 477 738 z "},"×":{"ha":692,"x_min":22,"x_max":586,"o":"m 22 174 l 195 347 l 22 521 l 239 521 l 304 456 l 369 521 l 586 521 l 412 347 l 586 174 l 369 174 l 304 239 l 239 174 l 22 174 z "},"Ø":{"ha":952,"x_min":0,"x_max":868,"o":"m 326 174 l 412 521 l 304 521 q 241 495 267 521 q 217 434 217 469 l 217 260 q 241 198 217 224 q 304 174 267 174 l 326 174 m 564 174 q 625 198 600 174 q 651 260 651 224 l 651 434 q 625 495 651 469 q 564 521 600 521 l 543 521 l 456 174 l 564 174 m 239 -130 l 271 0 l 174 0 q 50 50 102 0 q 0 174 0 100 l 0 521 q 50 643 0 593 q 174 694 102 694 l 467 694 l 499 825 l 629 825 l 597 694 l 694 694 q 817 643 765 694 q 868 521 868 593 l 868 174 q 817 50 868 100 q 694 0 765 0 l 401 0 l 369 -130 l 239 -130 z "},"Ù":{"ha":952,"x_min":0,"x_max":868,"o":"m 174 0 q 50 50 102 0 q 0 174 0 100 l 0 694 l 217 694 l 217 260 q 241 198 217 224 q 304 174 267 174 l 564 174 q 625 198 600 174 q 651 260 651 224 l 651 694 l 868 694 l 868 0 l 174 0 m 412 738 l 239 911 l 499 911 l 543 738 l 412 738 z "},"Ú":{"ha":952,"x_min":0,"x_max":868,"o":"m 174 0 q 50 50 102 0 q 0 174 0 100 l 0 694 l 217 694 l 217 260 q 241 198 217 224 q 304 174 267 174 l 564 174 q 625 198 600 174 q 651 260 651 224 l 651 694 l 868 694 l 868 0 l 174 0 m 304 738 l 347 911 l 608 911 l 434 738 l 304 738 z "},"Û":{"ha":952,"x_min":0,"x_max":868,"o":"m 174 0 q 50 50 102 0 q 0 174 0 100 l 0 694 l 217 694 l 217 260 q 241 198 217 224 q 304 174 267 174 l 564 174 q 625 198 600 174 q 651 260 651 224 l 651 694 l 868 694 l 868 0 l 174 0 m 217 738 l 391 911 l 477 911 l 651 738 l 477 738 l 434 781 l 391 738 l 217 738 z "},"Ü":{"ha":952,"x_min":0,"x_max":868,"o":"m 174 0 q 50 50 102 0 q 0 174 0 100 l 0 694 l 217 694 l 217 260 q 241 198 217 224 q 304 174 267 174 l 564 174 q 625 198 600 174 q 651 260 651 224 l 651 694 l 868 694 l 868 0 l 174 0 m 217 738 l 217 911 l 391 911 l 391 738 l 217 738 m 477 738 l 477 911 l 651 911 l 651 738 l 477 738 z "},"Ý":{"ha":952,"x_min":0,"x_max":868,"o":"m 326 0 l 326 152 q 312 182 326 170 q 282 195 300 195 l 152 195 l 151 195 q 50 245 94 202 q 0 369 0 296 l 0 694 l 217 694 l 217 456 q 241 393 217 419 q 304 369 267 369 l 564 369 q 625 393 600 369 q 651 456 651 419 l 651 694 l 868 694 l 868 369 q 817 245 868 296 q 716 195 773 202 l 586 195 q 555 182 567 195 q 543 152 543 170 l 543 0 l 326 0 m 304 738 l 347 911 l 608 911 l 434 738 l 304 738 z "},"Þ":{"ha":952,"x_min":0,"x_max":868,"o":"m 586 260 q 647 285 621 260 q 673 347 673 311 q 647 408 673 382 q 586 434 621 434 l 260 434 q 229 420 241 434 q 217 391 217 408 l 217 304 q 229 273 217 285 q 260 260 241 260 l 586 260 m 0 -130 l 0 825 l 217 825 l 217 608 l 694 608 q 817 556 765 608 q 868 434 868 506 l 868 239 l 867 239 q 817 137 860 180 q 694 87 765 87 l 217 87 l 217 -130 l 0 -130 z "},"ß":{"ha":952,"x_min":0,"x_max":868,"o":"m 586 434 q 616 446 604 434 q 629 477 629 458 q 616 507 629 495 q 586 521 604 521 l 260 521 q 229 507 241 521 q 217 477 217 495 q 229 446 217 458 q 260 434 241 434 l 586 434 m 0 0 l 0 521 q 50 643 0 593 q 174 694 102 694 l 673 694 q 795 643 743 694 q 846 521 846 593 l 846 477 q 798 357 846 407 q 817 339 807 349 q 868 217 868 288 l 868 174 q 817 50 868 100 q 694 0 765 0 l 282 0 l 282 174 l 586 174 q 616 186 604 174 q 629 217 629 198 q 616 247 629 235 q 586 260 604 260 l 260 260 q 229 247 241 260 q 217 217 217 235 l 217 0 l 0 0 z "},"à":{"ha":952,"x_min":0,"x_max":868,"o":"m 608 174 q 637 186 625 174 q 651 217 651 198 l 651 239 q 637 269 651 256 q 608 282 625 282 l 260 282 q 229 269 241 282 q 217 239 217 256 l 217 217 q 229 186 217 198 q 260 174 241 174 l 608 174 m 174 0 q 50 50 102 0 q 0 174 0 100 l 0 260 q 50 382 0 331 q 174 434 100 434 l 608 434 q 637 446 625 434 q 651 477 651 458 q 637 507 651 495 q 608 521 625 521 l 43 521 l 43 694 l 694 694 q 817 643 765 694 q 868 521 868 593 l 868 174 q 817 50 868 102 q 694 0 766 0 l 174 0 m 412 738 l 239 911 l 499 911 l 543 738 l 412 738 z "},"á":{"ha":952,"x_min":0,"x_max":868,"o":"m 608 174 q 637 186 625 174 q 651 217 651 198 l 651 239 q 637 269 651 256 q 608 282 625 282 l 260 282 q 229 269 241 282 q 217 239 217 256 l 217 217 q 229 186 217 198 q 260 174 241 174 l 608 174 m 174 0 q 50 50 102 0 q 0 174 0 100 l 0 260 q 50 382 0 331 q 174 434 100 434 l 608 434 q 637 446 625 434 q 651 477 651 458 q 637 507 651 495 q 608 521 625 521 l 43 521 l 43 694 l 694 694 q 817 643 765 694 q 868 521 868 593 l 868 174 q 817 50 868 102 q 694 0 766 0 l 174 0 m 304 738 l 347 911 l 608 911 l 434 738 l 304 738 z "},"â":{"ha":952,"x_min":0,"x_max":868,"o":"m 608 174 q 637 186 625 174 q 651 217 651 198 l 651 239 q 637 269 651 256 q 608 282 625 282 l 260 282 q 229 269 241 282 q 217 239 217 256 l 217 217 q 229 186 217 198 q 260 174 241 174 l 608 174 m 174 0 q 50 50 102 0 q 0 174 0 100 l 0 260 q 50 382 0 331 q 174 434 100 434 l 608 434 q 637 446 625 434 q 651 477 651 458 q 637 507 651 495 q 608 521 625 521 l 43 521 l 43 694 l 694 694 q 817 643 765 694 q 868 521 868 593 l 868 174 q 817 50 868 102 q 694 0 766 0 l 174 0 m 217 738 l 391 911 l 477 911 l 651 738 l 477 738 l 434 781 l 391 738 l 217 738 z "},"ã":{"ha":952,"x_min":0,"x_max":868,"o":"m 608 174 q 637 186 625 174 q 651 217 651 198 l 651 239 q 637 269 651 256 q 608 282 625 282 l 260 282 q 229 269 241 282 q 217 239 217 256 l 217 217 q 229 186 217 198 q 260 174 241 174 l 608 174 m 174 0 q 50 50 102 0 q 0 174 0 100 l 0 260 q 50 382 0 331 q 174 434 100 434 l 608 434 q 637 446 625 434 q 651 477 651 458 q 637 507 651 495 q 608 521 625 521 l 43 521 l 43 694 l 694 694 q 817 643 765 694 q 868 521 868 593 l 868 174 q 817 50 868 102 q 694 0 766 0 l 174 0 m 260 716 l 260 846 q 311 907 260 882 q 434 933 362 933 q 556 958 505 933 q 608 1020 608 983 l 608 890 q 556 827 608 853 q 434 803 505 803 q 311 777 362 803 q 260 716 260 751 l 260 716 z "},"ä":{"ha":952,"x_min":0,"x_max":868,"o":"m 608 174 q 637 186 625 174 q 651 217 651 198 l 651 239 q 637 269 651 256 q 608 282 625 282 l 260 282 q 229 269 241 282 q 217 239 217 256 l 217 217 q 229 186 217 198 q 260 174 241 174 l 608 174 m 174 0 q 50 50 102 0 q 0 174 0 100 l 0 260 q 50 382 0 331 q 174 434 100 434 l 608 434 q 637 446 625 434 q 651 477 651 458 q 637 507 651 495 q 608 521 625 521 l 43 521 l 43 694 l 694 694 q 817 643 765 694 q 868 521 868 593 l 868 174 q 817 50 868 102 q 694 0 766 0 l 174 0 m 217 738 l 217 911 l 391 911 l 391 738 l 217 738 m 477 738 l 477 911 l 651 911 l 651 738 l 477 738 z "},"å":{"ha":952,"x_min":0,"x_max":868,"o":"m 608 174 q 637 186 625 174 q 651 217 651 198 l 651 239 q 637 269 651 256 q 608 282 625 282 l 260 282 q 229 269 241 282 q 217 239 217 256 l 217 217 q 229 186 217 198 q 260 174 241 174 l 608 174 m 174 0 q 50 50 102 0 q 0 174 0 100 l 0 260 q 50 382 0 331 q 174 434 100 434 l 608 434 q 637 446 625 434 q 651 477 651 458 q 637 507 651 495 q 608 521 625 521 l 43 521 l 43 694 l 694 694 q 817 643 765 694 q 868 521 868 593 l 868 174 q 817 50 868 102 q 694 0 766 0 l 174 0 m 456 825 q 486 837 473 825 q 499 868 499 849 q 486 898 499 886 q 456 911 473 911 l 412 911 q 381 898 393 911 q 369 868 369 886 q 381 837 369 849 q 412 825 393 825 l 456 825 m 369 738 q 307 762 332 738 q 282 825 282 788 l 282 911 q 307 972 282 947 q 369 998 332 998 l 499 998 q 560 972 534 998 q 586 911 586 947 l 586 825 q 560 762 586 788 q 499 738 534 738 l 369 738 z "},"æ":{"ha":1386,"x_min":0,"x_max":1302,"o":"m 521 174 q 551 186 538 174 q 564 217 564 198 l 564 239 q 551 269 564 256 q 521 282 538 282 l 260 282 q 229 269 241 282 q 217 239 217 256 l 217 217 q 229 186 217 198 q 260 174 241 174 l 521 174 m 1042 412 q 1072 425 1059 412 q 1085 456 1085 437 l 1085 477 q 1072 507 1085 495 q 1042 521 1059 521 l 781 521 q 750 507 762 521 q 738 477 738 495 l 738 456 q 750 425 738 437 q 781 412 762 412 l 1042 412 m 174 0 q 50 50 102 0 q 0 174 0 100 l 0 260 q 50 382 0 331 q 174 434 100 434 l 521 434 q 551 446 538 434 q 564 477 564 458 q 551 507 564 495 q 521 521 538 521 l 43 521 l 43 694 l 1128 694 q 1251 643 1199 694 q 1302 521 1302 593 l 1302 434 q 1251 311 1302 362 q 1128 260 1200 260 l 781 260 q 750 247 762 260 q 738 217 738 235 q 750 186 738 198 q 781 174 762 174 l 1259 174 l 1259 0 l 174 0 z "},"ç":{"ha":865,"x_min":0,"x_max":781,"o":"m 391 -260 l 304 -174 l 434 -174 q 464 -160 452 -174 q 477 -130 477 -148 q 464 -99 477 -111 q 434 -87 452 -87 l 304 -87 l 347 0 l 174 0 q 50 50 102 0 q 0 174 0 100 l 0 521 q 50 643 0 593 q 174 694 102 694 l 781 694 l 781 521 l 304 521 q 241 495 267 521 q 217 434 217 469 l 217 260 q 241 198 217 224 q 304 174 267 174 l 781 174 l 781 0 l 526 0 q 551 -39 541 -18 q 564 -87 564 -60 l 564 -174 q 538 -235 564 -209 q 477 -260 513 -260 l 391 -260 z "},"è":{"ha":952,"x_min":0,"x_max":868,"o":"m 608 412 q 637 425 625 412 q 651 456 651 437 l 651 477 q 637 507 651 495 q 608 521 625 521 l 260 521 q 229 507 241 521 q 217 477 217 495 l 217 456 q 229 425 217 437 q 260 412 241 412 l 608 412 m 174 0 q 50 50 102 0 q 0 174 0 100 l 0 521 q 50 643 0 591 q 174 694 100 694 l 694 694 q 817 643 765 694 q 868 521 868 593 l 868 434 q 817 311 868 362 q 694 260 766 260 l 260 260 q 229 247 241 260 q 217 217 217 235 q 229 186 217 198 q 260 174 241 174 l 825 174 l 825 0 l 174 0 m 412 738 l 239 911 l 499 911 l 543 738 l 412 738 z "},"é":{"ha":952,"x_min":0,"x_max":868,"o":"m 608 412 q 637 425 625 412 q 651 456 651 437 l 651 477 q 637 507 651 495 q 608 521 625 521 l 260 521 q 229 507 241 521 q 217 477 217 495 l 217 456 q 229 425 217 437 q 260 412 241 412 l 608 412 m 174 0 q 50 50 102 0 q 0 174 0 100 l 0 521 q 50 643 0 591 q 174 694 100 694 l 694 694 q 817 643 765 694 q 868 521 868 593 l 868 434 q 817 311 868 362 q 694 260 766 260 l 260 260 q 229 247 241 260 q 217 217 217 235 q 229 186 217 198 q 260 174 241 174 l 825 174 l 825 0 l 174 0 m 304 738 l 347 911 l 608 911 l 434 738 l 304 738 z "},"ê":{"ha":952,"x_min":0,"x_max":868,"o":"m 608 412 q 637 425 625 412 q 651 456 651 437 l 651 477 q 637 507 651 495 q 608 521 625 521 l 260 521 q 229 507 241 521 q 217 477 217 495 l 217 456 q 229 425 217 437 q 260 412 241 412 l 608 412 m 174 0 q 50 50 102 0 q 0 174 0 100 l 0 521 q 50 643 0 591 q 174 694 100 694 l 694 694 q 817 643 765 694 q 868 521 868 593 l 868 434 q 817 311 868 362 q 694 260 766 260 l 260 260 q 229 247 241 260 q 217 217 217 235 q 229 186 217 198 q 260 174 241 174 l 825 174 l 825 0 l 174 0 m 217 738 l 391 911 l 477 911 l 651 738 l 477 738 l 434 781 l 391 738 l 217 738 z "},"ë":{"ha":952,"x_min":0,"x_max":868,"o":"m 608 412 q 637 425 625 412 q 651 456 651 437 l 651 477 q 637 507 651 495 q 608 521 625 521 l 260 521 q 229 507 241 521 q 217 477 217 495 l 217 456 q 229 425 217 437 q 260 412 241 412 l 608 412 m 174 0 q 50 50 102 0 q 0 174 0 100 l 0 521 q 50 643 0 591 q 174 694 100 694 l 694 694 q 817 643 765 694 q 868 521 868 593 l 868 434 q 817 311 868 362 q 694 260 766 260 l 260 260 q 229 247 241 260 q 217 217 217 235 q 229 186 217 198 q 260 174 241 174 l 825 174 l 825 0 l 174 0 m 217 738 l 217 911 l 391 911 l 391 738 l 217 738 m 477 738 l 477 911 l 651 911 l 651 738 l 477 738 z "},"ì":{"ha":345,"x_min":-109,"x_max":239,"o":"m 22 0 l 22 694 l 239 694 l 239 0 l 22 0 m 65 738 l -109 911 l 152 911 l 195 738 l 65 738 z "},"í":{"ha":345,"x_min":22,"x_max":347,"o":"m 22 0 l 22 694 l 239 694 l 239 0 l 22 0 m 43 738 l 87 911 l 347 911 l 174 738 l 43 738 z "},"î":{"ha":345,"x_min":-87,"x_max":347,"o":"m 22 0 l 22 694 l 239 694 l 239 0 l 22 0 m -87 738 l 87 911 l 174 911 l 347 738 l 174 738 l 130 781 l 87 738 l -87 738 z "},"ï":{"ha":345,"x_min":-87,"x_max":347,"o":"m 22 0 l 22 694 l 239 694 l 239 0 l 22 0 m -87 738 l -87 911 l 87 911 l 87 738 l -87 738 m 174 738 l 174 911 l 347 911 l 347 738 l 174 738 z "},"ð":{"ha":952,"x_min":0,"x_max":868,"o":"m 608 174 q 637 186 625 174 q 651 217 651 198 l 651 239 q 637 269 651 256 q 608 282 625 282 l 260 282 q 229 269 241 282 q 217 239 217 256 l 217 217 q 229 186 217 198 q 260 174 241 174 l 608 174 m 608 434 q 637 446 625 434 q 651 477 651 458 q 637 507 651 495 q 608 521 625 521 l 412 521 l 391 434 l 608 434 m 174 0 q 50 50 102 0 q 0 174 0 100 l 0 260 q 50 382 0 331 q 174 434 100 434 l 260 434 l 282 521 l 109 521 l 22 694 l 336 694 l 369 825 l 499 825 l 467 694 l 694 694 q 817 643 765 694 q 868 521 868 593 l 868 174 q 817 50 868 102 q 694 0 766 0 l 174 0 z "},"ñ":{"ha":952,"x_min":0,"x_max":868,"o":"m 0 0 l 0 694 l 694 694 q 817 643 765 694 q 868 521 868 593 l 868 0 l 651 0 l 651 434 q 625 495 651 469 q 564 521 600 521 l 304 521 q 241 495 267 521 q 217 434 217 469 l 217 0 l 0 0 m 260 716 l 260 846 q 311 907 260 882 q 434 933 362 933 q 556 958 505 933 q 608 1020 608 983 l 608 890 q 556 827 608 853 q 434 803 505 803 q 311 777 362 803 q 260 716 260 751 l 260 716 z "},"ò":{"ha":952,"x_min":0,"x_max":868,"o":"m 564 174 q 625 198 600 174 q 651 260 651 224 l 651 434 q 625 495 651 469 q 564 521 600 521 l 304 521 q 241 495 267 521 q 217 434 217 469 l 217 260 q 241 198 217 224 q 304 174 267 174 l 564 174 m 174 0 q 50 50 102 0 q 0 174 0 100 l 0 521 q 50 643 0 593 q 174 694 102 694 l 694 694 q 817 643 765 694 q 868 521 868 593 l 868 174 q 817 50 868 100 q 694 0 765 0 l 174 0 m 412 738 l 239 911 l 499 911 l 543 738 l 412 738 z "},"ó":{"ha":952,"x_min":0,"x_max":868,"o":"m 564 174 q 625 198 600 174 q 651 260 651 224 l 651 434 q 625 495 651 469 q 564 521 600 521 l 304 521 q 241 495 267 521 q 217 434 217 469 l 217 260 q 241 198 217 224 q 304 174 267 174 l 564 174 m 174 0 q 50 50 102 0 q 0 174 0 100 l 0 521 q 50 643 0 593 q 174 694 102 694 l 694 694 q 817 643 765 694 q 868 521 868 593 l 868 174 q 817 50 868 100 q 694 0 765 0 l 174 0 m 304 738 l 347 911 l 608 911 l 434 738 l 304 738 z "},"ô":{"ha":952,"x_min":0,"x_max":868,"o":"m 564 174 q 625 198 600 174 q 651 260 651 224 l 651 434 q 625 495 651 469 q 564 521 600 521 l 304 521 q 241 495 267 521 q 217 434 217 469 l 217 260 q 241 198 217 224 q 304 174 267 174 l 564 174 m 174 0 q 50 50 102 0 q 0 174 0 100 l 0 521 q 50 643 0 593 q 174 694 102 694 l 694 694 q 817 643 765 694 q 868 521 868 593 l 868 174 q 817 50 868 100 q 694 0 765 0 l 174 0 m 217 738 l 391 911 l 477 911 l 651 738 l 477 738 l 434 781 l 391 738 l 217 738 z "},"õ":{"ha":952,"x_min":0,"x_max":868,"o":"m 564 174 q 625 198 600 174 q 651 260 651 224 l 651 434 q 625 495 651 469 q 564 521 600 521 l 304 521 q 241 495 267 521 q 217 434 217 469 l 217 260 q 241 198 217 224 q 304 174 267 174 l 564 174 m 174 0 q 50 50 102 0 q 0 174 0 100 l 0 521 q 50 643 0 593 q 174 694 102 694 l 694 694 q 817 643 765 694 q 868 521 868 593 l 868 174 q 817 50 868 100 q 694 0 765 0 l 174 0 m 260 716 l 260 846 q 311 907 260 882 q 434 933 362 933 q 556 958 505 933 q 608 1020 608 983 l 608 890 q 556 827 608 853 q 434 803 505 803 q 311 777 362 803 q 260 716 260 751 l 260 716 z "},"ö":{"ha":952,"x_min":0,"x_max":868,"o":"m 564 174 q 625 198 600 174 q 651 260 651 224 l 651 434 q 625 495 651 469 q 564 521 600 521 l 304 521 q 241 495 267 521 q 217 434 217 469 l 217 260 q 241 198 217 224 q 304 174 267 174 l 564 174 m 174 0 q 50 50 102 0 q 0 174 0 100 l 0 521 q 50 643 0 593 q 174 694 102 694 l 694 694 q 817 643 765 694 q 868 521 868 593 l 868 174 q 817 50 868 100 q 694 0 765 0 l 174 0 m 217 738 l 217 911 l 391 911 l 391 738 l 217 738 m 477 738 l 477 911 l 651 911 l 651 738 l 477 738 z "},"÷":{"ha":605,"x_min":22,"x_max":499,"o":"m 174 109 l 174 195 l 347 195 l 347 109 l 174 109 m 22 260 l 22 434 l 499 434 l 499 260 l 22 260 m 174 499 l 174 586 l 347 586 l 347 499 l 174 499 z "},"ø":{"ha":952,"x_min":0,"x_max":868,"o":"m 326 174 l 412 521 l 304 521 q 241 495 267 521 q 217 434 217 469 l 217 260 q 241 198 217 224 q 304 174 267 174 l 326 174 m 564 174 q 625 198 600 174 q 651 260 651 224 l 651 434 q 625 495 651 469 q 564 521 600 521 l 543 521 l 456 174 l 564 174 m 239 -130 l 271 0 l 174 0 q 50 50 102 0 q 0 174 0 100 l 0 521 q 50 643 0 593 q 174 694 102 694 l 467 694 l 499 825 l 629 825 l 597 694 l 694 694 q 817 643 765 694 q 868 521 868 593 l 868 174 q 817 50 868 100 q 694 0 765 0 l 401 0 l 369 -130 l 239 -130 z "},"ù":{"ha":952,"x_min":0,"x_max":868,"o":"m 174 0 q 50 50 102 0 q 0 174 0 100 l 0 694 l 217 694 l 217 260 q 241 198 217 224 q 304 174 267 174 l 564 174 q 625 198 600 174 q 651 260 651 224 l 651 694 l 868 694 l 868 174 q 817 50 868 100 q 694 0 765 0 l 174 0 m 412 738 l 239 911 l 499 911 l 543 738 l 412 738 z "},"ú":{"ha":952,"x_min":0,"x_max":868,"o":"m 174 0 q 50 50 102 0 q 0 174 0 100 l 0 694 l 217 694 l 217 260 q 241 198 217 224 q 304 174 267 174 l 564 174 q 625 198 600 174 q 651 260 651 224 l 651 694 l 868 694 l 868 174 q 817 50 868 100 q 694 0 765 0 l 174 0 m 304 738 l 347 911 l 608 911 l 434 738 l 304 738 z "},"û":{"ha":952,"x_min":0,"x_max":868,"o":"m 174 0 q 50 50 102 0 q 0 174 0 100 l 0 694 l 217 694 l 217 260 q 241 198 217 224 q 304 174 267 174 l 564 174 q 625 198 600 174 q 651 260 651 224 l 651 694 l 868 694 l 868 174 q 817 50 868 100 q 694 0 765 0 l 174 0 m 217 738 l 391 911 l 477 911 l 651 738 l 477 738 l 434 781 l 391 738 l 217 738 z "},"ü":{"ha":952,"x_min":0,"x_max":868,"o":"m 174 0 q 50 50 102 0 q 0 174 0 100 l 0 694 l 217 694 l 217 260 q 241 198 217 224 q 304 174 267 174 l 564 174 q 625 198 600 174 q 651 260 651 224 l 651 694 l 868 694 l 868 174 q 817 50 868 100 q 694 0 765 0 l 174 0 m 217 738 l 217 911 l 391 911 l 391 738 l 217 738 m 477 738 l 477 911 l 651 911 l 651 738 l 477 738 z "},"ý":{"ha":952,"x_min":0,"x_max":868,"o":"m 608 -152 q 637 -126 625 -152 q 651 -65 651 -100 l 651 0 l 174 0 q 50 50 102 0 q 0 174 0 100 l 0 694 l 217 694 l 217 260 q 241 198 217 224 q 304 174 267 174 l 564 174 q 625 198 600 174 q 651 260 651 224 l 651 694 l 868 694 l 868 22 q 817 -100 868 -50 q 694 -152 765 -152 l 608 -152 m 304 738 l 347 911 l 608 911 l 434 738 l 304 738 z "},"þ":{"ha":952,"x_min":0,"x_max":868,"o":"m 586 260 q 647 285 621 260 q 673 347 673 311 q 647 408 673 382 q 586 434 621 434 l 260 434 q 229 420 241 434 q 217 391 217 408 l 217 304 q 229 273 217 285 q 260 260 241 260 l 586 260 m 0 -130 l 0 825 l 217 825 l 217 608 l 694 608 q 817 556 765 608 q 868 434 868 506 l 868 239 l 867 239 q 817 137 860 180 q 694 87 765 87 l 217 87 l 217 -130 l 0 -130 z "},"ÿ":{"ha":952,"x_min":0,"x_max":868,"o":"m 608 -152 q 637 -126 625 -152 q 651 -65 651 -100 l 651 0 l 174 0 q 50 50 102 0 q 0 174 0 100 l 0 694 l 217 694 l 217 260 q 241 198 217 224 q 304 174 267 174 l 564 174 q 625 198 600 174 q 651 260 651 224 l 651 694 l 868 694 l 868 22 q 817 -100 868 -50 q 694 -152 765 -152 l 608 -152 m 217 738 l 217 911 l 391 911 l 391 738 l 217 738 m 477 738 l 477 911 l 651 911 l 651 738 l 477 738 z "},"Ā":{"ha":952,"x_min":0,"x_max":868,"o":"m 608 369 q 637 381 625 369 q 651 412 651 393 l 651 434 q 625 495 651 469 q 564 521 600 521 l 304 521 q 241 495 267 521 q 217 434 217 469 l 217 412 q 229 381 217 393 q 260 369 241 369 l 608 369 m 0 0 l 0 521 q 50 643 0 593 q 174 694 102 694 l 694 694 q 817 643 766 694 q 868 521 868 591 l 868 0 l 651 0 l 651 152 q 637 182 651 170 q 608 195 625 195 l 260 195 q 229 182 241 195 q 217 152 217 170 l 217 0 l 0 0 m 217 738 l 217 911 l 651 911 l 651 738 l 217 738 z "},"ā":{"ha":952,"x_min":0,"x_max":868,"o":"m 608 174 q 637 186 625 174 q 651 217 651 198 l 651 239 q 637 269 651 256 q 608 282 625 282 l 260 282 q 229 269 241 282 q 217 239 217 256 l 217 217 q 229 186 217 198 q 260 174 241 174 l 608 174 m 174 0 q 50 50 102 0 q 0 174 0 100 l 0 260 q 50 382 0 331 q 174 434 100 434 l 608 434 q 637 446 625 434 q 651 477 651 458 q 637 507 651 495 q 608 521 625 521 l 43 521 l 43 694 l 694 694 q 817 643 765 694 q 868 521 868 593 l 868 174 q 817 50 868 102 q 694 0 766 0 l 174 0 m 217 738 l 217 911 l 651 911 l 651 738 l 217 738 z "},"Ă":{"ha":952,"x_min":0,"x_max":868,"o":"m 608 369 q 637 381 625 369 q 651 412 651 393 l 651 434 q 625 495 651 469 q 564 521 600 521 l 304 521 q 241 495 267 521 q 217 434 217 469 l 217 412 q 229 381 217 393 q 260 369 241 369 l 608 369 m 0 0 l 0 521 q 50 643 0 593 q 174 694 102 694 l 694 694 q 817 643 766 694 q 868 521 868 591 l 868 0 l 651 0 l 651 152 q 637 182 651 170 q 608 195 625 195 l 260 195 q 229 182 241 195 q 217 152 217 170 l 217 0 l 0 0 m 391 738 q 289 788 332 745 q 239 911 239 840 l 369 911 q 393 849 369 875 q 434 826 411 831 q 473 849 456 831 q 499 911 499 875 l 629 911 q 578 788 629 840 q 477 738 534 745 l 391 738 z "},"ă":{"ha":952,"x_min":0,"x_max":868,"o":"m 608 174 q 637 186 625 174 q 651 217 651 198 l 651 239 q 637 269 651 256 q 608 282 625 282 l 260 282 q 229 269 241 282 q 217 239 217 256 l 217 217 q 229 186 217 198 q 260 174 241 174 l 608 174 m 174 0 q 50 50 102 0 q 0 174 0 100 l 0 260 q 50 382 0 331 q 174 434 100 434 l 608 434 q 637 446 625 434 q 651 477 651 458 q 637 507 651 495 q 608 521 625 521 l 43 521 l 43 694 l 694 694 q 817 643 765 694 q 868 521 868 593 l 868 174 q 817 50 868 102 q 694 0 766 0 l 174 0 m 391 738 q 289 788 332 745 q 239 911 239 840 l 369 911 q 393 849 369 875 q 434 826 411 831 q 473 849 456 831 q 499 911 499 875 l 629 911 q 578 788 629 840 q 477 738 534 745 l 391 738 z "},"Ą":{"ha":952,"x_min":0,"x_max":868,"o":"m 608 369 q 637 381 625 369 q 651 412 651 393 l 651 434 q 625 495 651 469 q 564 521 600 521 l 304 521 q 241 495 267 521 q 217 434 217 469 l 217 412 q 229 381 217 393 q 260 369 241 369 l 608 369 m 694 -260 q 632 -235 658 -260 q 608 -174 608 -209 l 608 -87 q 632 -24 608 -50 q 694 0 658 0 l 651 0 l 651 152 q 637 182 651 170 q 608 195 625 195 l 260 195 q 229 182 241 195 q 217 152 217 170 l 217 0 l 0 0 l 0 521 q 50 643 0 593 q 174 694 102 694 l 694 694 q 817 643 766 694 q 868 521 868 591 l 868 0 l 846 0 l 868 -87 l 738 -87 q 707 -99 719 -87 q 694 -130 694 -111 q 707 -160 694 -148 q 738 -174 719 -174 l 868 -174 l 781 -260 l 694 -260 z "},"ą":{"ha":952,"x_min":0,"x_max":868,"o":"m 608 174 q 637 186 625 174 q 651 217 651 198 l 651 239 q 637 269 651 256 q 608 282 625 282 l 260 282 q 229 269 241 282 q 217 239 217 256 l 217 217 q 229 186 217 198 q 260 174 241 174 l 608 174 m 694 -260 q 632 -235 658 -260 q 608 -174 608 -209 l 608 -87 q 632 -24 608 -50 q 694 0 658 0 l 716 0 l 715 0 q 694 0 705 0 l 174 0 q 50 50 102 0 q 0 174 0 100 l 0 260 q 50 382 0 331 q 174 434 100 434 l 608 434 q 637 446 625 434 q 651 477 651 458 q 637 507 651 495 q 608 521 625 521 l 43 521 l 43 694 l 694 694 q 817 643 765 694 q 868 521 868 593 l 868 174 q 830 64 868 111 l 868 -87 l 738 -87 q 707 -99 719 -87 q 694 -130 694 -111 q 707 -160 694 -148 q 738 -174 719 -174 l 868 -174 l 781 -260 l 694 -260 z "},"Ć":{"ha":865,"x_min":0,"x_max":781,"o":"m 174 0 q 50 50 102 0 q 0 174 0 100 l 0 521 q 50 643 0 593 q 174 694 102 694 l 781 694 l 781 521 l 304 521 q 241 495 267 521 q 217 434 217 469 l 217 260 q 241 198 217 224 q 304 174 267 174 l 781 174 l 781 0 l 174 0 m 304 738 l 347 911 l 608 911 l 434 738 l 304 738 z "},"ć":{"ha":865,"x_min":0,"x_max":781,"o":"m 174 0 q 50 50 102 0 q 0 174 0 100 l 0 521 q 50 643 0 593 q 174 694 102 694 l 781 694 l 781 521 l 304 521 q 241 495 267 521 q 217 434 217 469 l 217 260 q 241 198 217 224 q 304 174 267 174 l 781 174 l 781 0 l 174 0 m 304 738 l 347 911 l 608 911 l 434 738 l 304 738 z "},"Ĉ":{"ha":865,"x_min":0,"x_max":781,"o":"m 174 0 q 50 50 102 0 q 0 174 0 100 l 0 521 q 50 643 0 593 q 174 694 102 694 l 781 694 l 781 521 l 304 521 q 241 495 267 521 q 217 434 217 469 l 217 260 q 241 198 217 224 q 304 174 267 174 l 781 174 l 781 0 l 174 0 m 174 738 l 347 911 l 434 911 l 608 738 l 434 738 l 391 781 l 347 738 l 174 738 z "},"ĉ":{"ha":865,"x_min":0,"x_max":781,"o":"m 174 0 q 50 50 102 0 q 0 174 0 100 l 0 521 q 50 643 0 593 q 174 694 102 694 l 781 694 l 781 521 l 304 521 q 241 495 267 521 q 217 434 217 469 l 217 260 q 241 198 217 224 q 304 174 267 174 l 781 174 l 781 0 l 174 0 m 174 738 l 347 911 l 434 911 l 608 738 l 434 738 l 391 781 l 347 738 l 174 738 z "},"Ċ":{"ha":865,"x_min":0,"x_max":781,"o":"m 174 0 q 50 50 102 0 q 0 174 0 100 l 0 521 q 50 643 0 593 q 174 694 102 694 l 781 694 l 781 521 l 304 521 q 241 495 267 521 q 217 434 217 469 l 217 260 q 241 198 217 224 q 304 174 267 174 l 781 174 l 781 0 l 174 0 m 304 738 l 304 911 l 477 911 l 477 738 l 304 738 z "},"ċ":{"ha":865,"x_min":0,"x_max":781,"o":"m 174 0 q 50 50 102 0 q 0 174 0 100 l 0 521 q 50 643 0 593 q 174 694 102 694 l 781 694 l 781 521 l 304 521 q 241 495 267 521 q 217 434 217 469 l 217 260 q 241 198 217 224 q 304 174 267 174 l 781 174 l 781 0 l 174 0 m 304 738 l 304 911 l 477 911 l 477 738 l 304 738 z "},"Č":{"ha":865,"x_min":0,"x_max":781,"o":"m 174 0 q 50 50 102 0 q 0 174 0 100 l 0 521 q 50 643 0 593 q 174 694 102 694 l 781 694 l 781 521 l 304 521 q 241 495 267 521 q 217 434 217 469 l 217 260 q 241 198 217 224 q 304 174 267 174 l 781 174 l 781 0 l 174 0 m 347 738 l 174 911 l 347 911 l 391 868 l 434 911 l 608 911 l 434 738 l 347 738 z "},"č":{"ha":865,"x_min":0,"x_max":781,"o":"m 174 0 q 50 50 102 0 q 0 174 0 100 l 0 521 q 50 643 0 593 q 174 694 102 694 l 781 694 l 781 521 l 304 521 q 241 495 267 521 q 217 434 217 469 l 217 260 q 241 198 217 224 q 304 174 267 174 l 781 174 l 781 0 l 174 0 m 347 738 l 174 911 l 347 911 l 391 868 l 434 911 l 608 911 l 434 738 l 347 738 z "},"Ď":{"ha":952,"x_min":0,"x_max":868,"o":"m 564 174 q 625 198 600 174 q 651 260 651 224 l 651 434 q 625 495 651 469 q 564 521 600 521 l 260 521 q 229 507 241 521 q 217 477 217 495 l 217 217 q 229 186 217 198 q 260 174 241 174 l 564 174 m 0 0 l 0 694 l 694 694 q 817 643 765 694 q 868 521 868 593 l 868 174 q 817 50 868 100 q 694 0 765 0 l 0 0 m 391 738 l 217 911 l 391 911 l 434 868 l 477 911 l 651 911 l 477 738 l 391 738 z "},"ď":{"ha":1213,"x_min":0,"x_max":1128,"o":"m 564 174 q 625 198 600 174 q 651 260 651 224 l 651 434 q 625 495 651 469 q 564 521 600 521 l 304 521 q 241 495 267 521 q 217 434 217 469 l 217 260 q 241 198 217 224 q 304 174 267 174 l 564 174 m 174 0 q 50 50 102 0 q 0 174 0 100 l 0 521 q 50 643 0 593 q 174 694 102 694 l 608 694 q 637 707 625 694 q 651 738 651 719 l 651 825 l 868 825 l 868 174 q 817 50 868 100 q 694 0 765 0 l 174 0 m 1042 434 q 1016 556 1042 505 q 955 608 990 608 l 911 608 l 911 825 l 1128 825 l 1128 608 q 1103 484 1128 536 q 1042 434 1077 434 l 1042 434 z "},"Đ":{"ha":1039,"x_min":-43,"x_max":955,"o":"m 651 174 q 712 198 686 174 q 738 260 738 224 l 738 434 q 712 495 738 469 q 651 521 686 521 l 347 521 q 316 507 328 521 q 304 477 304 495 q 316 446 304 458 q 347 434 328 434 l 434 434 l 434 260 l 347 260 q 316 247 328 260 q 304 217 304 235 q 316 186 304 198 q 347 174 328 174 l 651 174 m 87 0 l 87 217 q 73 247 87 235 q 43 260 61 260 l -43 260 l -43 434 l 43 434 q 73 446 61 434 q 87 477 87 458 l 87 694 l 781 694 q 903 643 852 694 q 955 521 955 593 l 955 174 q 903 50 955 100 q 781 0 852 0 l 87 0 z "},"đ":{"ha":1039,"x_min":0,"x_max":998,"o":"m 564 174 q 625 198 600 174 q 651 260 651 224 l 651 304 q 625 365 651 339 q 564 391 600 391 l 304 391 q 241 365 267 391 q 217 304 217 339 l 217 260 q 241 198 217 224 q 304 174 267 174 l 564 174 m 174 0 q 50 50 102 0 q 0 174 0 100 l 0 434 l 4 434 q 50 513 15 477 q 174 564 102 564 l 608 564 q 637 576 625 564 q 651 608 651 589 l 651 629 l 521 629 l 521 760 l 651 760 l 651 825 l 868 825 l 868 760 l 998 760 l 998 629 l 868 629 l 868 174 q 817 50 868 100 q 694 0 765 0 l 174 0 z "},"Ē":{"ha":865,"x_min":0,"x_max":781,"o":"m 174 0 q 50 50 102 0 q 0 174 0 100 l 0 694 l 781 694 l 781 521 l 260 521 q 229 507 241 521 q 217 477 217 495 q 229 446 217 458 q 260 434 241 434 l 760 434 l 760 260 l 260 260 q 229 247 241 260 q 217 217 217 235 q 229 186 217 198 q 260 174 241 174 l 781 174 l 781 0 l 174 0 m 174 738 l 174 911 l 608 911 l 608 738 l 174 738 z "},"ē":{"ha":952,"x_min":0,"x_max":868,"o":"m 608 412 q 637 425 625 412 q 651 456 651 437 l 651 477 q 637 507 651 495 q 608 521 625 521 l 260 521 q 229 507 241 521 q 217 477 217 495 l 217 456 q 229 425 217 437 q 260 412 241 412 l 608 412 m 174 0 q 50 50 102 0 q 0 174 0 100 l 0 521 q 50 643 0 591 q 174 694 100 694 l 694 694 q 817 643 765 694 q 868 521 868 593 l 868 434 q 817 311 868 362 q 694 260 766 260 l 260 260 q 229 247 241 260 q 217 217 217 235 q 229 186 217 198 q 260 174 241 174 l 825 174 l 825 0 l 174 0 m 217 738 l 217 911 l 651 911 l 651 738 l 217 738 z "},"Ĕ":{"ha":865,"x_min":0,"x_max":781,"o":"m 174 0 q 50 50 102 0 q 0 174 0 100 l 0 694 l 781 694 l 781 521 l 260 521 q 229 507 241 521 q 217 477 217 495 q 229 446 217 458 q 260 434 241 434 l 760 434 l 760 260 l 260 260 q 229 247 241 260 q 217 217 217 235 q 229 186 217 198 q 260 174 241 174 l 781 174 l 781 0 l 174 0 m 347 738 l 346 738 q 245 788 289 745 q 195 911 195 840 l 326 911 q 350 849 326 875 q 391 826 368 831 q 430 849 412 831 q 456 911 456 875 l 586 911 q 534 788 586 840 q 434 738 491 745 l 347 738 z "},"ĕ":{"ha":952,"x_min":0,"x_max":868,"o":"m 608 412 q 637 425 625 412 q 651 456 651 437 l 651 477 q 637 507 651 495 q 608 521 625 521 l 260 521 q 229 507 241 521 q 217 477 217 495 l 217 456 q 229 425 217 437 q 260 412 241 412 l 608 412 m 174 0 q 50 50 102 0 q 0 174 0 100 l 0 521 q 50 643 0 591 q 174 694 100 694 l 694 694 q 817 643 765 694 q 868 521 868 593 l 868 434 q 817 311 868 362 q 694 260 766 260 l 260 260 q 229 247 241 260 q 217 217 217 235 q 229 186 217 198 q 260 174 241 174 l 825 174 l 825 0 l 174 0 m 391 738 q 289 788 332 745 q 239 911 239 840 l 369 911 q 393 849 369 875 q 434 826 411 831 q 473 849 456 831 q 499 911 499 875 l 629 911 q 578 788 629 840 q 477 738 534 745 l 391 738 z "},"Ė":{"ha":865,"x_min":0,"x_max":781,"o":"m 174 0 q 50 50 102 0 q 0 174 0 100 l 0 694 l 781 694 l 781 521 l 260 521 q 229 507 241 521 q 217 477 217 495 q 229 446 217 458 q 260 434 241 434 l 760 434 l 760 260 l 260 260 q 229 247 241 260 q 217 217 217 235 q 229 186 217 198 q 260 174 241 174 l 781 174 l 781 0 l 174 0 m 304 738 l 304 911 l 477 911 l 477 738 l 304 738 z "},"ė":{"ha":952,"x_min":0,"x_max":868,"o":"m 608 412 q 637 425 625 412 q 651 456 651 437 l 651 477 q 637 507 651 495 q 608 521 625 521 l 260 521 q 229 507 241 521 q 217 477 217 495 l 217 456 q 229 425 217 437 q 260 412 241 412 l 608 412 m 174 0 q 50 50 102 0 q 0 174 0 100 l 0 521 q 50 643 0 591 q 174 694 100 694 l 694 694 q 817 643 765 694 q 868 521 868 593 l 868 434 q 817 311 868 362 q 694 260 766 260 l 260 260 q 229 247 241 260 q 217 217 217 235 q 229 186 217 198 q 260 174 241 174 l 825 174 l 825 0 l 174 0 m 347 738 l 347 911 l 521 911 l 521 738 l 347 738 z "},"Ę":{"ha":865,"x_min":0,"x_max":781,"o":"m 608 -260 q 545 -235 571 -260 q 521 -174 521 -209 l 521 -87 q 545 -24 521 -50 q 608 0 571 0 l 174 0 q 50 50 102 0 q 0 174 0 100 l 0 694 l 781 694 l 781 521 l 260 521 q 229 507 241 521 q 217 477 217 495 q 229 446 217 458 q 260 434 241 434 l 760 434 l 760 260 l 260 260 q 229 247 241 260 q 217 217 217 235 q 229 186 217 198 q 260 174 241 174 l 781 174 l 781 0 l 760 0 l 781 -87 l 651 -87 q 620 -99 632 -87 q 608 -130 608 -111 q 620 -160 608 -148 q 651 -174 632 -174 l 781 -174 l 694 -260 l 608 -260 z "},"ę":{"ha":952,"x_min":0,"x_max":868,"o":"m 608 412 q 637 425 625 412 q 651 456 651 437 l 651 477 q 637 507 651 495 q 608 521 625 521 l 260 521 q 229 507 241 521 q 217 477 217 495 l 217 456 q 229 425 217 437 q 260 412 241 412 l 608 412 m 391 -260 q 328 -235 354 -260 q 304 -174 304 -209 l 304 -87 q 328 -24 304 -50 q 391 0 354 0 l 174 0 q 50 50 102 0 q 0 174 0 100 l 0 521 q 50 643 0 591 q 174 694 100 694 l 694 694 q 817 643 765 694 q 868 521 868 593 l 868 434 q 817 311 868 362 q 694 260 766 260 l 260 260 q 229 247 241 260 q 217 217 217 235 q 229 186 217 198 q 260 174 241 174 l 825 174 l 825 0 l 543 0 l 564 -87 l 434 -87 q 403 -99 415 -87 q 391 -130 391 -111 q 403 -160 391 -148 q 434 -174 415 -174 l 564 -174 l 477 -260 l 391 -260 z "},"Ě":{"ha":865,"x_min":0,"x_max":781,"o":"m 174 0 q 50 50 102 0 q 0 174 0 100 l 0 694 l 781 694 l 781 521 l 260 521 q 229 507 241 521 q 217 477 217 495 q 229 446 217 458 q 260 434 241 434 l 760 434 l 760 260 l 260 260 q 229 247 241 260 q 217 217 217 235 q 229 186 217 198 q 260 174 241 174 l 781 174 l 781 0 l 174 0 m 347 738 l 174 911 l 347 911 l 391 868 l 434 911 l 608 911 l 434 738 l 347 738 z "},"ě":{"ha":952,"x_min":0,"x_max":868,"o":"m 608 412 q 637 425 625 412 q 651 456 651 437 l 651 477 q 637 507 651 495 q 608 521 625 521 l 260 521 q 229 507 241 521 q 217 477 217 495 l 217 456 q 229 425 217 437 q 260 412 241 412 l 608 412 m 174 0 q 50 50 102 0 q 0 174 0 100 l 0 521 q 50 643 0 591 q 174 694 100 694 l 694 694 q 817 643 765 694 q 868 521 868 593 l 868 434 q 817 311 868 362 q 694 260 766 260 l 260 260 q 229 247 241 260 q 217 217 217 235 q 229 186 217 198 q 260 174 241 174 l 825 174 l 825 0 l 174 0 m 391 738 l 217 911 l 391 911 l 434 868 l 477 911 l 651 911 l 477 738 l 391 738 z "},"Ĝ":{"ha":952,"x_min":0,"x_max":890,"o":"m 174 0 q 50 50 102 0 q 0 174 0 100 l 0 521 q 50 643 0 593 q 174 694 102 694 l 868 694 l 868 521 l 304 521 q 241 495 267 521 q 217 434 217 469 l 217 260 q 241 198 217 224 q 304 174 267 174 l 629 174 q 659 186 647 174 q 673 217 673 198 q 659 247 673 235 q 629 260 647 260 l 347 260 l 347 434 l 716 434 q 838 382 788 434 q 890 260 890 331 l 890 174 q 838 50 890 100 q 716 0 787 0 l 174 0 m 217 738 l 391 911 l 477 911 l 651 738 l 477 738 l 434 781 l 391 738 l 217 738 z "},"ĝ":{"ha":952,"x_min":0,"x_max":868,"o":"m 564 174 q 625 198 600 174 q 651 260 651 224 l 651 434 q 625 495 651 469 q 564 521 600 521 l 304 521 q 241 495 267 521 q 217 434 217 469 l 217 260 q 241 198 217 224 q 304 174 267 174 l 564 174 m 608 -174 q 637 -148 625 -174 q 651 -87 651 -122 l 651 0 l 174 0 q 50 50 102 0 q 0 174 0 100 l 0 521 q 50 643 0 593 q 174 694 102 694 l 694 694 q 817 643 765 694 q 868 521 868 593 l 868 0 q 817 -122 868 -72 q 694 -174 765 -174 l 608 -174 m 217 738 l 391 911 l 477 911 l 651 738 l 477 738 l 434 781 l 391 738 l 217 738 z "},"Ğ":{"ha":952,"x_min":0,"x_max":890,"o":"m 174 0 q 50 50 102 0 q 0 174 0 100 l 0 521 q 50 643 0 593 q 174 694 102 694 l 868 694 l 868 521 l 304 521 q 241 495 267 521 q 217 434 217 469 l 217 260 q 241 198 217 224 q 304 174 267 174 l 629 174 q 659 186 647 174 q 673 217 673 198 q 659 247 673 235 q 629 260 647 260 l 347 260 l 347 434 l 716 434 q 838 382 788 434 q 890 260 890 331 l 890 174 q 838 50 890 100 q 716 0 787 0 l 174 0 m 391 738 q 289 788 332 745 q 239 911 239 840 l 369 911 q 393 849 369 875 q 434 826 411 831 q 473 849 456 831 q 499 911 499 875 l 629 911 q 578 788 629 840 q 477 738 534 745 l 391 738 z "},"ğ":{"ha":952,"x_min":0,"x_max":868,"o":"m 564 174 q 625 198 600 174 q 651 260 651 224 l 651 434 q 625 495 651 469 q 564 521 600 521 l 304 521 q 241 495 267 521 q 217 434 217 469 l 217 260 q 241 198 217 224 q 304 174 267 174 l 564 174 m 608 -174 q 637 -148 625 -174 q 651 -87 651 -122 l 651 0 l 174 0 q 50 50 102 0 q 0 174 0 100 l 0 521 q 50 643 0 593 q 174 694 102 694 l 694 694 q 817 643 765 694 q 868 521 868 593 l 868 0 q 817 -122 868 -72 q 694 -174 765 -174 l 608 -174 m 391 738 l 389 738 q 289 788 332 745 q 239 911 239 840 l 369 911 q 393 849 369 875 q 434 826 411 831 q 473 849 456 831 q 499 911 499 875 l 629 911 q 578 788 629 840 q 477 738 534 745 l 391 738 z "},"Ġ":{"ha":952,"x_min":0,"x_max":890,"o":"m 174 0 q 50 50 102 0 q 0 174 0 100 l 0 521 q 50 643 0 593 q 174 694 102 694 l 868 694 l 868 521 l 304 521 q 241 495 267 521 q 217 434 217 469 l 217 260 q 241 198 217 224 q 304 174 267 174 l 629 174 q 659 186 647 174 q 673 217 673 198 q 659 247 673 235 q 629 260 647 260 l 347 260 l 347 434 l 716 434 q 838 382 788 434 q 890 260 890 331 l 890 174 q 838 50 890 100 q 716 0 787 0 l 174 0 m 347 738 l 347 911 l 521 911 l 521 738 l 347 738 z "},"ġ":{"ha":952,"x_min":0,"x_max":868,"o":"m 564 174 q 625 198 600 174 q 651 260 651 224 l 651 434 q 625 495 651 469 q 564 521 600 521 l 304 521 q 241 495 267 521 q 217 434 217 469 l 217 260 q 241 198 217 224 q 304 174 267 174 l 564 174 m 608 -174 q 637 -148 625 -174 q 651 -87 651 -122 l 651 0 l 174 0 q 50 50 102 0 q 0 174 0 100 l 0 521 q 50 643 0 593 q 174 694 102 694 l 694 694 q 817 643 765 694 q 868 521 868 593 l 868 0 q 817 -122 868 -72 q 694 -174 765 -174 l 608 -174 m 347 738 l 347 911 l 521 911 l 521 738 l 347 738 z "},"Ģ":{"ha":952,"x_min":0,"x_max":890,"o":"m 391 -260 l 304 -174 l 434 -174 q 464 -160 452 -174 q 477 -130 477 -148 q 464 -99 477 -111 q 434 -87 452 -87 l 304 -87 l 347 0 l 174 0 q 50 50 102 0 q 0 174 0 100 l 0 521 q 50 643 0 593 q 174 694 102 694 l 868 694 l 868 521 l 304 521 q 241 495 267 521 q 217 434 217 469 l 217 260 q 241 198 217 224 q 304 174 267 174 l 629 174 q 659 186 647 174 q 673 217 673 198 q 659 247 673 235 q 629 260 647 260 l 347 260 l 347 434 l 716 434 q 838 382 788 434 q 890 260 890 331 l 890 174 q 838 50 890 100 q 716 0 787 0 l 526 0 q 551 -39 541 -18 q 564 -87 564 -60 l 564 -174 q 538 -235 564 -209 q 477 -260 513 -260 l 391 -260 z "},"ģ":{"ha":952,"x_min":0,"x_max":868,"o":"m 564 174 q 625 198 600 174 q 651 260 651 224 l 651 434 q 625 495 651 469 q 564 521 600 521 l 304 521 q 241 495 267 521 q 217 434 217 469 l 217 260 q 241 198 217 224 q 304 174 267 174 l 564 174 m 608 -174 q 637 -148 625 -174 q 651 -87 651 -122 l 651 0 l 174 0 q 50 50 102 0 q 0 174 0 100 l 0 521 q 50 643 0 593 q 174 694 102 694 l 694 694 q 817 643 765 694 q 868 521 868 593 l 868 0 q 817 -122 868 -72 q 694 -174 765 -174 l 608 -174 m 347 738 l 347 911 q 372 1034 347 982 q 434 1085 397 1085 q 458 962 434 1013 q 521 911 484 911 l 521 738 l 347 738 z "},"Ĥ":{"ha":952,"x_min":0,"x_max":868,"o":"m 0 0 l 0 694 l 217 694 l 217 477 q 229 446 217 458 q 260 434 241 434 l 608 434 q 637 446 625 434 q 651 477 651 458 l 651 694 l 868 694 l 868 0 l 651 0 l 651 217 q 637 247 651 235 q 608 260 625 260 l 260 260 q 229 247 241 260 q 217 217 217 235 l 217 0 l 0 0 m 217 738 l 391 911 l 477 911 l 651 738 l 477 738 l 434 781 l 391 738 l 217 738 z "},"ĥ":{"ha":952,"x_min":0,"x_max":868,"o":"m 0 0 l 0 694 l 217 694 l 217 608 q 229 576 217 589 q 260 564 241 564 l 694 564 q 817 513 765 564 q 868 391 868 463 l 868 0 l 651 0 l 651 304 q 625 365 651 339 q 564 391 600 391 l 304 391 q 241 365 267 391 q 217 304 217 339 l 217 0 l 0 0 m 217 738 l 391 911 l 477 911 l 651 738 l 477 738 l 434 781 l 391 738 l 217 738 z "},"Ħ":{"ha":1126,"x_min":-43,"x_max":1085,"o":"m 694 434 q 724 446 712 434 q 738 477 738 458 l 738 499 l 304 499 l 304 477 q 316 446 304 458 q 347 434 328 434 l 694 434 m 87 0 l 87 499 l -43 499 l -43 629 l 87 629 l 87 694 l 304 694 l 304 629 l 738 629 l 738 694 l 955 694 l 955 629 l 1085 629 l 1085 499 l 955 499 l 955 0 l 738 0 l 738 217 q 724 247 738 235 q 694 260 712 260 l 347 260 q 316 247 328 260 q 304 217 304 235 l 304 0 l 87 0 z "},"ħ":{"ha":1039,"x_min":-43,"x_max":955,"o":"m 87 0 l 87 629 l -43 629 l -43 760 l 87 760 l 87 825 l 304 825 l 304 760 l 434 760 l 434 629 l 304 629 l 304 608 q 316 576 304 589 q 347 564 328 564 l 781 564 q 903 513 852 564 q 955 391 955 463 l 955 0 l 738 0 l 738 304 q 712 365 738 339 q 651 391 686 391 l 391 391 q 328 365 354 391 q 304 304 304 339 l 304 0 l 87 0 z "},"Ĩ":{"ha":345,"x_min":-43,"x_max":304,"o":"m 22 0 l 22 694 l 239 694 l 239 0 l 22 0 m -43 716 l -43 846 q 7 907 -43 882 q 130 933 58 933 q 252 958 201 933 q 304 1020 304 983 l 304 890 q 252 827 304 853 q 130 803 201 803 q 7 777 58 803 q -43 716 -43 751 l -43 716 z "},"ĩ":{"ha":345,"x_min":-43,"x_max":304,"o":"m 22 0 l 22 694 l 239 694 l 239 0 l 22 0 m -43 716 l -43 846 q 7 907 -43 882 q 130 933 58 933 q 252 958 201 933 q 304 1020 304 983 l 304 890 q 252 827 304 853 q 130 803 201 803 q 7 777 58 803 q -43 716 -43 751 l -43 716 z "},"Ī":{"ha":345,"x_min":-87,"x_max":347,"o":"m 22 0 l 22 694 l 239 694 l 239 0 l 22 0 m -87 738 l -87 911 l 347 911 l 347 738 l -87 738 z "},"ī":{"ha":345,"x_min":-87,"x_max":347,"o":"m 22 0 l 22 694 l 239 694 l 239 0 l 22 0 m -87 738 l -87 911 l 347 911 l 347 738 l -87 738 z "},"Ĭ":{"ha":345,"x_min":-65,"x_max":326,"o":"m 22 0 l 22 694 l 239 694 l 239 0 l 22 0 m 87 738 l 85 738 q -14 788 28 745 q -65 911 -65 840 l 65 911 q 90 849 65 875 q 130 826 107 831 q 170 849 152 831 q 195 911 195 875 l 326 911 q 274 788 326 840 q 174 738 231 745 l 87 738 z "},"ĭ":{"ha":345,"x_min":-65,"x_max":326,"o":"m 22 0 l 22 694 l 239 694 l 239 0 l 22 0 m 87 738 l 85 738 q -14 788 28 745 q -65 911 -65 840 l 65 911 q 90 849 65 875 q 130 826 107 831 q 170 849 152 831 q 195 911 195 875 l 326 911 q 274 788 326 840 q 174 738 231 745 l 87 738 z "},"Į":{"ha":345,"x_min":-22,"x_max":239,"o":"m 65 -260 q 3 -235 28 -260 q -22 -174 -22 -209 l -22 -87 q 3 -24 -22 -50 q 65 0 28 0 l 22 0 l 22 694 l 239 694 l 239 0 l 217 0 l 239 -87 l 109 -87 q 77 -99 90 -87 q 65 -130 65 -111 q 77 -160 65 -148 q 109 -174 90 -174 l 239 -174 l 152 -260 l 65 -260 z "},"į":{"ha":345,"x_min":-22,"x_max":239,"o":"m 65 -260 q 3 -235 28 -260 q -22 -174 -22 -209 l -22 -87 q 3 -24 -22 -50 q 65 0 28 0 l 22 0 l 22 694 l 239 694 l 239 0 l 217 0 l 239 -87 l 109 -87 q 77 -99 90 -87 q 65 -130 65 -111 q 77 -160 65 -148 q 109 -174 90 -174 l 239 -174 l 152 -260 l 65 -260 m 22 738 l 22 825 l 239 825 l 239 738 l 22 738 z "},"İ":{"ha":345,"x_min":22,"x_max":239,"o":"m 22 0 l 22 694 l 239 694 l 239 0 l 22 0 m 43 738 l 43 911 l 217 911 l 217 738 l 43 738 z "},"ı":{"ha":345,"x_min":22,"x_max":239,"o":"m 22 0 l 22 694 l 239 694 l 239 0 l 22 0 z "},"Ĳ":{"ha":865,"x_min":0,"x_max":781,"o":"m 0 0 l 0 694 l 217 694 l 217 0 l 0 0 m 260 0 l 260 174 l 477 174 q 538 198 513 174 q 564 260 564 224 l 564 694 l 781 694 l 781 174 q 730 50 781 100 q 608 0 678 0 l 260 0 z "},"ĳ":{"ha":605,"x_min":0,"x_max":521,"o":"m 0 0 l 0 694 l 217 694 l 217 0 l 0 0 m 260 -152 q 290 -126 278 -152 q 304 -65 304 -100 l 304 694 l 521 694 l 521 22 q 469 -100 521 -50 q 347 -152 418 -152 l 260 -152 m 0 738 l 0 825 l 217 825 l 217 738 l 0 738 m 304 738 l 304 825 l 521 825 l 521 738 l 304 738 z "},"Ĵ":{"ha":779,"x_min":0,"x_max":694,"o":"m 0 0 l 0 174 l 391 174 q 452 198 426 174 q 477 260 477 224 l 477 694 l 694 694 l 694 174 q 643 50 694 100 q 521 0 591 0 l 0 0 m 130 738 l 304 911 l 391 911 l 564 738 l 391 738 l 347 781 l 304 738 l 130 738 z "},"ĵ":{"ha":345,"x_min":-87,"x_max":347,"o":"m -22 -152 q 8 -126 -3 -152 q 22 -65 22 -100 l 22 694 l 239 694 l 239 22 q 187 -100 239 -50 q 65 -152 136 -152 l -22 -152 m -87 738 l 87 911 l 174 911 l 347 738 l 174 738 l 130 781 l 87 738 l -87 738 z "},"Ķ":{"ha":952,"x_min":0,"x_max":868,"o":"m 391 -260 l 304 -174 l 434 -174 q 464 -160 452 -174 q 477 -130 477 -148 q 464 -99 477 -111 q 434 -87 452 -87 l 304 -87 l 347 87 l 477 87 l 456 0 l 477 0 q 538 -24 513 0 q 564 -87 564 -50 l 564 -174 q 538 -235 564 -209 q 477 -260 513 -260 l 391 -260 m 0 0 l 0 694 l 217 694 l 217 412 q 229 381 217 393 q 260 369 241 369 l 564 369 q 625 393 600 369 q 651 456 651 419 l 651 694 l 868 694 l 868 347 l 867 347 q 817 245 860 289 q 762 209 792 221 l 868 0 l 651 0 l 553 195 l 260 195 q 229 182 241 195 q 217 152 217 170 l 217 0 l 0 0 z "},"ķ":{"ha":952,"x_min":0,"x_max":868,"o":"m 391 -260 l 304 -174 l 434 -174 q 464 -160 452 -174 q 477 -130 477 -148 q 464 -99 477 -111 q 434 -87 452 -87 l 304 -87 l 347 87 l 477 87 l 456 0 l 477 0 q 538 -24 513 0 q 564 -87 564 -50 l 564 -174 q 538 -235 564 -209 q 477 -260 513 -260 l 391 -260 m 0 0 l 0 825 l 217 825 l 217 412 q 229 381 217 393 q 260 369 241 369 l 564 369 q 625 393 600 369 q 651 456 651 419 l 651 694 l 868 694 l 868 347 l 867 347 q 817 245 860 289 q 762 209 792 221 l 868 0 l 651 0 l 553 195 l 260 195 q 229 182 241 195 q 217 152 217 170 l 217 0 l 0 0 z "},"ĸ":{"ha":952,"x_min":0,"x_max":868,"o":"m 0 0 l 0 694 l 217 694 l 217 412 q 229 381 217 393 q 260 369 241 369 l 564 369 q 625 393 600 369 q 651 456 651 419 l 651 694 l 868 694 l 868 347 l 867 347 q 817 245 860 289 q 762 209 792 221 l 868 0 l 651 0 l 553 195 l 260 195 q 229 182 241 195 q 217 152 217 170 l 217 0 l 0 0 z "},"Ĺ":{"ha":779,"x_min":0,"x_max":694,"o":"m 174 0 q 50 50 102 0 q 0 174 0 100 l 0 694 l 217 694 l 217 260 q 241 198 217 224 q 304 174 267 174 l 694 174 l 694 0 l 174 0 m 217 738 l 260 911 l 521 911 l 347 738 l 217 738 z "},"ĺ":{"ha":605,"x_min":0,"x_max":521,"o":"m 174 0 q 50 50 102 0 q 0 174 0 100 l 0 694 l 217 694 l 217 260 q 241 198 217 224 q 304 174 267 174 l 521 174 l 521 0 l 174 0 m 130 738 l 174 911 l 434 911 l 260 738 l 130 738 z "},"Ļ":{"ha":779,"x_min":0,"x_max":694,"o":"m 304 -260 l 217 -174 l 347 -174 q 377 -160 365 -174 q 391 -130 391 -148 q 377 -99 391 -111 q 347 -87 365 -87 l 217 -87 l 260 0 l 174 0 q 50 50 102 0 q 0 174 0 100 l 0 694 l 217 694 l 217 260 q 241 198 217 224 q 304 174 267 174 l 694 174 l 694 0 l 439 0 q 464 -39 454 -18 q 477 -87 477 -60 l 477 -174 q 452 -235 477 -209 q 391 -260 426 -260 l 304 -260 z "},"ļ":{"ha":605,"x_min":0,"x_max":521,"o":"m 217 -260 l 130 -174 l 260 -174 q 290 -160 278 -174 q 304 -130 304 -148 q 290 -99 304 -111 q 260 -87 278 -87 l 130 -87 l 174 0 q 50 50 102 0 q 0 174 0 100 l 0 694 l 217 694 l 217 260 q 241 198 217 224 q 304 174 267 174 l 521 174 l 521 0 l 353 0 q 377 -39 368 -18 q 391 -87 391 -60 l 391 -174 q 365 -235 391 -209 q 304 -260 339 -260 l 217 -260 z "},"Ľ":{"ha":779,"x_min":0,"x_max":694,"o":"m 174 0 q 50 50 102 0 q 0 174 0 100 l 0 694 l 217 694 l 217 260 q 241 198 217 224 q 304 174 267 174 l 694 174 l 694 0 l 174 0 m 434 304 q 408 426 434 374 q 347 477 382 477 l 304 477 l 304 694 l 521 694 l 521 477 q 495 354 521 406 q 434 304 469 304 l 434 304 z "},"ľ":{"ha":605,"x_min":0,"x_max":521,"o":"m 174 0 q 50 50 102 0 q 0 174 0 100 l 0 694 l 217 694 l 217 260 q 241 198 217 224 q 304 174 267 174 l 521 174 l 521 0 l 174 0 m 434 304 q 408 426 434 374 q 347 477 382 477 l 304 477 l 304 694 l 521 694 l 521 477 q 495 354 521 406 q 434 304 469 304 l 434 304 z "},"Ŀ":{"ha":779,"x_min":0,"x_max":694,"o":"m 347 347 l 347 521 l 521 521 l 521 347 l 347 347 m 174 0 q 50 50 102 0 q 0 174 0 100 l 0 694 l 217 694 l 217 260 q 241 198 217 224 q 304 174 267 174 l 694 174 l 694 0 l 174 0 z "},"ŀ":{"ha":518,"x_min":0,"x_max":434,"o":"m 260 347 l 260 521 l 434 521 l 434 347 l 260 347 m 0 0 l 0 825 l 217 825 l 217 0 l 0 0 z "},"Ł":{"ha":952,"x_min":0,"x_max":868,"o":"m 347 0 q 224 50 275 0 q 174 174 174 100 l 174 304 l 0 260 l 0 391 l 174 434 l 174 694 l 391 694 l 391 499 l 564 543 l 564 412 l 391 369 l 391 260 q 415 198 391 224 q 477 174 441 174 l 868 174 l 868 0 l 347 0 z "},"ł":{"ha":605,"x_min":-22,"x_max":543,"o":"m 152 0 l 152 304 l -22 260 l -22 391 l 152 434 l 152 825 l 369 825 l 369 499 l 543 543 l 543 412 l 369 369 l 369 0 l 152 0 z "},"Ń":{"ha":952,"x_min":0,"x_max":868,"o":"m 0 0 l 0 694 l 694 694 q 817 643 765 694 q 868 521 868 593 l 868 0 l 651 0 l 651 434 q 625 495 651 469 q 564 521 600 521 l 304 521 q 241 495 267 521 q 217 434 217 469 l 217 0 l 0 0 m 304 738 l 347 911 l 608 911 l 434 738 l 304 738 z "},"ń":{"ha":952,"x_min":0,"x_max":868,"o":"m 0 0 l 0 694 l 694 694 q 817 643 765 694 q 868 521 868 593 l 868 0 l 651 0 l 651 434 q 625 495 651 469 q 564 521 600 521 l 304 521 q 241 495 267 521 q 217 434 217 469 l 217 0 l 0 0 m 304 738 l 347 911 l 608 911 l 434 738 l 304 738 z "},"Ņ":{"ha":952,"x_min":0,"x_max":868,"o":"m 391 -260 l 304 -174 l 434 -174 q 464 -160 452 -174 q 477 -130 477 -148 q 464 -99 477 -111 q 434 -87 452 -87 l 304 -87 l 347 87 l 477 87 l 456 0 l 477 0 q 538 -24 513 0 q 564 -87 564 -50 l 564 -174 q 538 -235 564 -209 q 477 -260 513 -260 l 391 -260 m 0 0 l 0 694 l 694 694 q 817 643 765 694 q 868 521 868 593 l 868 0 l 651 0 l 651 434 q 625 495 651 469 q 564 521 600 521 l 304 521 q 241 495 267 521 q 217 434 217 469 l 217 0 l 0 0 z "},"ņ":{"ha":952,"x_min":0,"x_max":868,"o":"m 391 -260 l 304 -174 l 434 -174 q 464 -160 452 -174 q 477 -130 477 -148 q 464 -99 477 -111 q 434 -87 452 -87 l 304 -87 l 347 87 l 477 87 l 456 0 l 477 0 q 538 -24 513 0 q 564 -87 564 -50 l 564 -174 q 538 -235 564 -209 q 477 -260 513 -260 l 391 -260 m 0 0 l 0 694 l 694 694 q 817 643 765 694 q 868 521 868 593 l 868 0 l 651 0 l 651 434 q 625 495 651 469 q 564 521 600 521 l 304 521 q 241 495 267 521 q 217 434 217 469 l 217 0 l 0 0 z "},"Ň":{"ha":952,"x_min":0,"x_max":868,"o":"m 0 0 l 0 694 l 694 694 q 817 643 765 694 q 868 521 868 593 l 868 0 l 651 0 l 651 434 q 625 495 651 469 q 564 521 600 521 l 304 521 q 241 495 267 521 q 217 434 217 469 l 217 0 l 0 0 m 391 738 l 217 911 l 391 911 l 434 868 l 477 911 l 651 911 l 477 738 l 391 738 z "},"ň":{"ha":952,"x_min":0,"x_max":868,"o":"m 0 0 l 0 694 l 694 694 q 817 643 765 694 q 868 521 868 593 l 868 0 l 651 0 l 651 434 q 625 495 651 469 q 564 521 600 521 l 304 521 q 241 495 267 521 q 217 434 217 469 l 217 0 l 0 0 m 391 738 l 217 911 l 391 911 l 434 868 l 477 911 l 651 911 l 477 738 l 391 738 z "},"ŉ":{"ha":1213,"x_min":0,"x_max":1128,"o":"m 130 304 q 104 426 130 374 q 43 477 79 477 l 0 477 l 0 694 l 217 694 l 217 477 q 191 354 217 406 q 130 304 165 304 l 130 304 m 260 0 l 260 694 l 955 694 q 1077 643 1025 694 q 1128 521 1128 593 l 1128 0 l 911 0 l 911 434 q 886 495 911 469 q 825 521 860 521 l 564 521 q 502 495 528 521 q 477 434 477 469 l 477 0 l 260 0 z "},"Ŋ":{"ha":952,"x_min":0,"x_max":868,"o":"m 608 -152 q 637 -126 625 -152 q 651 -65 651 -100 l 651 434 q 625 495 651 469 q 564 521 600 521 l 304 521 q 241 495 267 521 q 217 434 217 469 l 217 0 l 0 0 l 0 694 l 694 694 q 817 643 765 694 q 868 521 868 593 l 868 0 l 867 0 q 817 -100 860 -57 q 694 -152 765 -152 l 608 -152 z "},"ŋ":{"ha":952,"x_min":0,"x_max":868,"o":"m 608 -152 q 637 -126 625 -152 q 651 -65 651 -100 l 651 434 q 625 495 651 469 q 564 521 600 521 l 304 521 q 241 495 267 521 q 217 434 217 469 l 217 0 l 0 0 l 0 694 l 694 694 q 817 643 765 694 q 868 521 868 593 l 868 0 l 867 0 q 817 -100 860 -57 q 694 -152 765 -152 l 608 -152 z "},"Ō":{"ha":952,"x_min":0,"x_max":868,"o":"m 564 174 q 625 198 600 174 q 651 260 651 224 l 651 434 q 625 495 651 469 q 564 521 600 521 l 304 521 q 241 495 267 521 q 217 434 217 469 l 217 260 q 241 198 217 224 q 304 174 267 174 l 564 174 m 174 0 q 50 50 102 0 q 0 174 0 100 l 0 521 q 50 643 0 593 q 174 694 102 694 l 694 694 q 817 643 765 694 q 868 521 868 593 l 868 174 q 817 50 868 100 q 694 0 765 0 l 174 0 m 217 738 l 217 911 l 651 911 l 651 738 l 217 738 z "},"ō":{"ha":952,"x_min":0,"x_max":868,"o":"m 564 174 q 625 198 600 174 q 651 260 651 224 l 651 434 q 625 495 651 469 q 564 521 600 521 l 304 521 q 241 495 267 521 q 217 434 217 469 l 217 260 q 241 198 217 224 q 304 174 267 174 l 564 174 m 174 0 q 50 50 102 0 q 0 174 0 100 l 0 521 q 50 643 0 593 q 174 694 102 694 l 694 694 q 817 643 765 694 q 868 521 868 593 l 868 174 q 817 50 868 100 q 694 0 765 0 l 174 0 m 217 738 l 217 911 l 651 911 l 651 738 l 217 738 z "},"Ŏ":{"ha":952,"x_min":0,"x_max":868,"o":"m 564 174 q 625 198 600 174 q 651 260 651 224 l 651 434 q 625 495 651 469 q 564 521 600 521 l 304 521 q 241 495 267 521 q 217 434 217 469 l 217 260 q 241 198 217 224 q 304 174 267 174 l 564 174 m 174 0 q 50 50 102 0 q 0 174 0 100 l 0 521 q 50 643 0 593 q 174 694 102 694 l 694 694 q 817 643 765 694 q 868 521 868 593 l 868 174 q 817 50 868 100 q 694 0 765 0 l 174 0 m 391 738 q 289 788 332 745 q 239 911 239 840 l 369 911 q 393 849 369 875 q 434 826 411 831 q 473 849 456 831 q 499 911 499 875 l 629 911 q 578 788 629 840 q 477 738 534 745 l 391 738 z "},"ŏ":{"ha":952,"x_min":0,"x_max":868,"o":"m 564 174 q 625 198 600 174 q 651 260 651 224 l 651 434 q 625 495 651 469 q 564 521 600 521 l 304 521 q 241 495 267 521 q 217 434 217 469 l 217 260 q 241 198 217 224 q 304 174 267 174 l 564 174 m 174 0 q 50 50 102 0 q 0 174 0 100 l 0 521 q 50 643 0 593 q 174 694 102 694 l 694 694 q 817 643 765 694 q 868 521 868 593 l 868 174 q 817 50 868 100 q 694 0 765 0 l 174 0 m 391 738 q 289 788 332 745 q 239 911 239 840 l 369 911 q 393 849 369 875 q 434 826 411 831 q 473 849 456 831 q 499 911 499 875 l 629 911 q 578 788 629 840 q 477 738 534 745 l 391 738 z "},"Ő":{"ha":952,"x_min":0,"x_max":868,"o":"m 564 174 q 625 198 600 174 q 651 260 651 224 l 651 434 q 625 495 651 469 q 564 521 600 521 l 304 521 q 241 495 267 521 q 217 434 217 469 l 217 260 q 241 198 217 224 q 304 174 267 174 l 564 174 m 174 0 q 50 50 102 0 q 0 174 0 100 l 0 521 q 50 643 0 593 q 174 694 102 694 l 694 694 q 817 643 765 694 q 868 521 868 593 l 868 174 q 817 50 868 100 q 694 0 765 0 l 174 0 m 174 738 l 217 911 l 477 911 l 304 738 l 174 738 m 477 738 l 521 911 l 781 911 l 608 738 l 477 738 z "},"ő":{"ha":952,"x_min":0,"x_max":868,"o":"m 564 174 q 625 198 600 174 q 651 260 651 224 l 651 434 q 625 495 651 469 q 564 521 600 521 l 304 521 q 241 495 267 521 q 217 434 217 469 l 217 260 q 241 198 217 224 q 304 174 267 174 l 564 174 m 174 0 q 50 50 102 0 q 0 174 0 100 l 0 521 q 50 643 0 593 q 174 694 102 694 l 694 694 q 817 643 765 694 q 868 521 868 593 l 868 174 q 817 50 868 100 q 694 0 765 0 l 174 0 m 174 738 l 217 911 l 477 911 l 304 738 l 174 738 m 477 738 l 521 911 l 781 911 l 608 738 l 477 738 z "},"Œ":{"ha":1386,"x_min":0,"x_max":1302,"o":"m 521 174 q 582 198 556 174 q 608 260 608 224 l 608 434 q 582 495 608 469 q 521 521 556 521 l 304 521 q 241 495 267 521 q 217 434 217 469 l 217 260 q 241 198 217 224 q 304 174 267 174 l 521 174 m 174 0 q 50 50 102 0 q 0 174 0 100 l 0 521 q 50 643 0 593 q 174 694 102 694 l 608 694 q 694 671 655 694 q 781 694 732 694 l 1302 694 l 1302 521 l 868 521 q 837 507 849 521 q 825 477 825 495 q 837 446 825 458 q 868 434 849 434 l 1280 434 l 1280 260 l 868 260 q 837 247 849 260 q 825 217 825 235 q 837 186 825 198 q 868 174 849 174 l 1302 174 l 1302 0 l 781 0 q 693 22 732 0 q 608 0 655 0 l 174 0 z "},"œ":{"ha":1473,"x_min":0,"x_max":1389,"o":"m 521 174 q 582 198 556 174 q 608 260 608 224 l 608 434 q 582 495 608 469 q 521 521 556 521 l 304 521 q 241 495 267 521 q 217 434 217 469 l 217 260 q 241 198 217 224 q 304 174 267 174 l 521 174 m 1128 412 q 1158 425 1146 412 q 1172 456 1172 437 l 1172 477 q 1158 507 1172 495 q 1128 521 1146 521 l 868 521 q 837 507 849 521 q 825 477 825 495 l 825 456 q 837 425 825 437 q 868 412 849 412 l 1128 412 m 174 0 q 50 50 102 0 q 0 174 0 100 l 0 521 q 50 643 0 593 q 174 694 102 694 l 608 694 q 694 671 655 694 q 781 694 732 694 l 1215 694 q 1337 643 1286 694 q 1389 521 1389 593 l 1389 434 q 1337 311 1389 362 q 1215 260 1287 260 l 868 260 q 837 247 849 260 q 825 217 825 235 q 837 186 825 198 q 868 174 849 174 l 1345 174 l 1345 0 l 781 0 q 781 0 781 0 q 693 22 732 0 q 608 0 655 0 l 174 0 z "},"Ŕ":{"ha":952,"x_min":0,"x_max":868,"o":"m 564 369 q 625 393 600 369 q 650 445 647 415 q 625 495 647 473 q 564 521 600 521 l 260 521 q 229 507 241 521 q 217 477 217 495 l 217 412 q 229 381 217 393 q 260 369 241 369 l 564 369 m 0 0 l 0 694 l 694 694 q 817 643 765 694 q 868 521 868 593 l 868 391 q 817 267 868 317 q 808 260 812 263 q 817 252 812 256 q 868 130 868 201 l 868 0 l 651 0 l 651 152 q 637 182 651 170 q 608 195 625 195 l 260 195 q 229 182 241 195 q 217 152 217 170 l 217 0 l 0 0 m 304 738 l 347 911 l 608 911 l 434 738 l 304 738 z "},"ŕ":{"ha":518,"x_min":0,"x_max":434,"o":"m 0 0 l 0 521 q 50 643 0 593 q 174 694 102 694 l 434 694 l 434 521 l 304 521 q 241 495 267 521 q 217 434 217 469 l 217 0 l 0 0 m 130 738 l 174 911 l 434 911 l 260 738 l 130 738 z "},"Ŗ":{"ha":952,"x_min":0,"x_max":868,"o":"m 391 -260 l 304 -174 l 434 -174 q 464 -160 452 -174 q 477 -130 477 -148 q 464 -99 477 -111 q 434 -87 452 -87 l 304 -87 l 347 87 l 477 87 l 456 0 l 477 0 q 538 -24 513 0 q 564 -87 564 -50 l 564 -174 q 538 -235 564 -209 q 477 -260 513 -260 l 391 -260 m 564 369 q 625 393 600 369 q 650 445 647 415 q 625 495 647 473 q 564 521 600 521 l 260 521 q 229 507 241 521 q 217 477 217 495 l 217 412 q 229 381 217 393 q 260 369 241 369 l 564 369 m 0 0 l 0 694 l 694 694 q 817 643 765 694 q 868 521 868 593 l 868 391 q 817 267 868 317 q 808 260 812 263 q 817 252 812 256 q 868 130 868 201 l 868 0 l 651 0 l 651 152 q 637 182 651 170 q 608 195 625 195 l 260 195 q 229 182 241 195 q 217 152 217 170 l 217 0 l 0 0 z "},"ŗ":{"ha":518,"x_min":0,"x_max":434,"o":"m 87 -260 l 0 -174 l 130 -174 q 160 -160 148 -174 q 174 -130 174 -148 q 160 -99 174 -111 q 130 -87 148 -87 l 0 -87 l 22 0 l 0 0 l 0 521 q 50 643 0 593 q 174 694 102 694 l 434 694 l 434 521 l 304 521 q 241 495 267 521 q 217 434 217 469 l 217 0 l 174 0 q 235 -24 209 0 q 260 -87 260 -50 l 260 -174 q 235 -235 260 -209 q 174 -260 209 -260 l 87 -260 z "},"Ř":{"ha":952,"x_min":0,"x_max":868,"o":"m 564 369 q 625 393 600 369 q 650 445 647 415 q 625 495 647 473 q 564 521 600 521 l 260 521 q 229 507 241 521 q 217 477 217 495 l 217 412 q 229 381 217 393 q 260 369 241 369 l 564 369 m 0 0 l 0 694 l 694 694 q 817 643 765 694 q 868 521 868 593 l 868 391 q 817 267 868 317 q 808 260 812 263 q 817 252 812 256 q 868 130 868 201 l 868 0 l 651 0 l 651 152 q 637 182 651 170 q 608 195 625 195 l 260 195 q 229 182 241 195 q 217 152 217 170 l 217 0 l 0 0 m 391 738 l 217 911 l 391 911 l 434 868 l 477 911 l 651 911 l 477 738 l 391 738 z "},"ř":{"ha":518,"x_min":0,"x_max":434,"o":"m 0 0 l 0 521 q 50 643 0 593 q 174 694 102 694 l 434 694 l 434 521 l 304 521 q 241 495 267 521 q 217 434 217 469 l 217 0 l 0 0 m 174 738 l 0 911 l 174 911 l 217 868 l 260 911 l 434 911 l 260 738 l 174 738 z "},"Ś":{"ha":952,"x_min":0,"x_max":868,"o":"m 0 0 l 0 174 l 586 174 q 616 186 604 174 q 629 217 629 198 q 616 247 629 235 q 586 260 604 260 l 174 260 q 50 311 102 260 q 0 434 0 361 l 0 521 q 50 643 0 593 q 174 694 102 694 l 846 694 l 846 521 l 260 521 q 229 507 241 521 q 217 477 217 495 q 229 446 217 458 q 260 434 241 434 l 694 434 q 817 382 766 434 q 868 260 868 331 l 868 174 q 817 50 868 100 q 694 0 765 0 l 0 0 m 304 738 l 347 911 l 608 911 l 434 738 l 304 738 z "},"ś":{"ha":952,"x_min":22,"x_max":846,"o":"m 22 0 l 22 174 l 564 174 q 594 186 582 174 q 606 206 604 194 q 572 247 601 228 l 174 347 l 172 347 q 111 368 140 351 l 109 369 q 72 397 88 381 q 22 521 22 449 q 72 643 22 593 q 195 694 123 694 l 825 694 l 825 521 l 319 521 q 311 517 315 518 q 305 514 308 515 q 304 499 304 507 q 304 487 304 492 l 694 391 l 694 389 q 795 339 751 382 q 845 239 838 296 l 846 239 l 846 152 l 845 152 q 795 50 838 94 q 673 0 743 0 l 22 0 m 304 738 l 347 911 l 608 911 l 434 738 l 304 738 z "},"Ŝ":{"ha":952,"x_min":0,"x_max":868,"o":"m 0 0 l 0 174 l 586 174 q 616 186 604 174 q 629 217 629 198 q 616 247 629 235 q 586 260 604 260 l 174 260 q 50 311 102 260 q 0 434 0 361 l 0 521 q 50 643 0 593 q 174 694 102 694 l 846 694 l 846 521 l 260 521 q 229 507 241 521 q 217 477 217 495 q 229 446 217 458 q 260 434 241 434 l 694 434 q 817 382 766 434 q 868 260 868 331 l 868 174 q 817 50 868 100 q 694 0 765 0 l 0 0 m 217 738 l 391 911 l 477 911 l 651 738 l 477 738 l 434 781 l 391 738 l 217 738 z "},"ŝ":{"ha":952,"x_min":22,"x_max":846,"o":"m 22 0 l 22 174 l 564 174 q 594 186 582 174 q 606 206 604 194 q 572 247 601 228 l 174 347 l 172 347 q 111 368 140 351 l 109 369 q 72 397 88 381 q 22 521 22 449 q 72 643 22 593 q 195 694 123 694 l 825 694 l 825 521 l 319 521 q 311 517 315 518 q 305 514 308 515 q 304 499 304 507 q 304 487 304 492 l 694 391 l 694 389 q 795 339 751 382 q 845 239 838 296 l 846 239 l 846 152 l 845 152 q 795 50 838 94 q 673 0 743 0 l 22 0 m 217 738 l 391 911 l 477 911 l 651 738 l 477 738 l 434 781 l 391 738 l 217 738 z "},"Ş":{"ha":952,"x_min":0,"x_max":868,"o":"m 391 -260 l 304 -174 l 434 -174 q 464 -160 452 -174 q 477 -130 477 -148 q 464 -99 477 -111 q 434 -87 452 -87 l 304 -87 l 326 0 l 0 0 l 0 174 l 586 174 q 616 186 604 174 q 629 217 629 198 q 616 247 629 235 q 586 260 604 260 l 174 260 q 50 311 102 260 q 0 434 0 361 l 0 521 q 50 643 0 593 q 174 694 102 694 l 846 694 l 846 521 l 260 521 q 229 507 241 521 q 217 477 217 495 q 229 446 217 458 q 260 434 241 434 l 694 434 q 817 382 766 434 q 868 260 868 331 l 868 174 q 817 50 868 100 q 694 0 765 0 l 477 0 q 538 -24 513 0 q 564 -87 564 -50 l 564 -174 q 538 -235 564 -209 q 477 -260 513 -260 l 391 -260 z "},"ş":{"ha":952,"x_min":22,"x_max":846,"o":"m 391 -260 l 304 -174 l 434 -174 q 464 -160 452 -174 q 477 -130 477 -148 q 464 -99 477 -111 q 434 -87 452 -87 l 304 -87 l 326 0 l 22 0 l 22 174 l 564 174 q 594 186 582 174 q 606 206 604 194 q 572 247 601 228 l 174 347 l 172 347 q 111 368 140 351 l 109 369 q 72 397 88 381 q 22 521 22 449 q 72 643 22 593 q 195 694 123 694 l 825 694 l 825 521 l 319 521 q 311 517 315 518 q 305 514 308 515 q 304 499 304 507 q 304 487 304 492 l 694 391 l 694 389 q 795 339 751 382 q 845 239 838 296 l 846 239 l 846 152 l 845 152 q 795 50 838 94 q 673 0 743 0 l 477 0 q 538 -24 513 0 q 564 -87 564 -50 l 564 -174 q 538 -235 564 -209 q 477 -260 513 -260 l 391 -260 z "},"Š":{"ha":952,"x_min":0,"x_max":868,"o":"m 0 0 l 0 174 l 586 174 q 616 186 604 174 q 629 217 629 198 q 616 247 629 235 q 586 260 604 260 l 174 260 q 50 311 102 260 q 0 434 0 361 l 0 521 q 50 643 0 593 q 174 694 102 694 l 846 694 l 846 521 l 260 521 q 229 507 241 521 q 217 477 217 495 q 229 446 217 458 q 260 434 241 434 l 694 434 q 817 382 766 434 q 868 260 868 331 l 868 174 q 817 50 868 100 q 694 0 765 0 l 0 0 m 391 738 l 217 911 l 391 911 l 434 868 l 477 911 l 651 911 l 477 738 l 391 738 z "},"š":{"ha":952,"x_min":22,"x_max":846,"o":"m 22 0 l 22 174 l 564 174 q 594 186 582 174 q 606 206 604 194 q 572 247 601 228 l 174 347 l 172 347 q 111 368 140 351 l 109 369 q 72 397 88 381 q 22 521 22 449 q 72 643 22 593 q 195 694 123 694 l 825 694 l 825 521 l 319 521 q 311 517 315 518 q 305 514 308 515 q 304 499 304 507 q 304 487 304 492 l 694 391 l 694 389 q 795 339 751 382 q 845 239 838 296 l 846 239 l 846 152 l 845 152 q 795 50 838 94 q 673 0 743 0 l 22 0 m 391 738 l 217 911 l 391 911 l 434 868 l 477 911 l 651 911 l 477 738 l 391 738 z "},"Ţ":{"ha":952,"x_min":0,"x_max":868,"o":"m 412 -260 l 326 -174 l 456 -174 q 486 -160 473 -174 q 499 -130 499 -148 q 486 -99 499 -111 q 456 -87 473 -87 l 326 -87 l 347 0 l 326 0 l 326 477 q 312 507 326 495 q 282 521 300 521 l 0 521 l 0 694 l 868 694 l 868 521 l 586 521 q 555 507 567 521 q 543 477 543 495 l 543 0 l 499 0 q 560 -24 534 0 q 586 -87 586 -50 l 586 -174 q 560 -235 586 -209 q 499 -260 534 -260 l 412 -260 z "},"ţ":{"ha":518,"x_min":0,"x_max":434,"o":"m 174 -260 l 87 -174 l 217 -174 q 247 -160 235 -174 q 260 -130 260 -148 q 247 -99 260 -111 q 217 -87 235 -87 l 87 -87 l 111 11 q 50 50 77 23 q 0 174 0 100 l 0 825 l 217 825 l 217 694 l 412 694 l 412 521 l 217 521 l 217 260 q 241 198 217 224 q 304 174 267 174 l 434 174 l 434 0 l 260 0 q 321 -24 296 0 q 347 -87 347 -50 l 347 -174 q 321 -235 347 -209 q 260 -260 296 -260 l 174 -260 z "},"Ť":{"ha":952,"x_min":0,"x_max":868,"o":"m 326 0 l 326 477 q 312 507 326 495 q 282 521 300 521 l 0 521 l 0 694 l 868 694 l 868 521 l 586 521 q 555 507 567 521 q 543 477 543 495 l 543 0 l 326 0 m 391 738 l 217 911 l 391 911 l 434 868 l 477 911 l 651 911 l 477 738 l 391 738 z "},"ť":{"ha":779,"x_min":0,"x_max":694,"o":"m 608 304 q 582 426 608 374 q 521 477 556 477 l 477 477 l 477 694 l 694 694 l 694 477 q 669 354 694 406 q 608 304 643 304 l 608 304 m 174 0 q 50 50 102 0 q 0 174 0 100 l 0 825 l 217 825 l 217 694 l 412 694 l 412 521 l 217 521 l 217 260 q 241 198 217 224 q 304 174 267 174 l 434 174 l 434 0 l 174 0 z "},"Ŧ":{"ha":952,"x_min":0,"x_max":868,"o":"m 326 0 l 326 217 l 152 217 l 152 347 l 326 347 l 326 477 q 312 507 326 495 q 282 521 300 521 l 0 521 l 0 694 l 868 694 l 868 521 l 586 521 q 555 507 567 521 q 543 477 543 495 l 543 347 l 716 347 l 716 217 l 543 217 l 543 0 l 326 0 z "},"ŧ":{"ha":692,"x_min":0,"x_max":608,"o":"m 347 0 q 224 50 275 0 q 174 174 174 100 l 174 304 l 0 304 l 0 434 l 174 434 l 174 825 l 391 825 l 391 694 l 586 694 l 586 521 l 391 521 l 391 434 l 564 434 l 564 304 l 391 304 l 391 217 q 403 186 391 198 q 434 174 415 174 l 608 174 l 608 0 l 347 0 z "},"Ũ":{"ha":952,"x_min":0,"x_max":868,"o":"m 174 0 q 50 50 102 0 q 0 174 0 100 l 0 694 l 217 694 l 217 260 q 241 198 217 224 q 304 174 267 174 l 608 174 q 637 186 625 174 q 651 217 651 198 l 651 694 l 868 694 l 868 0 l 174 0 m 260 716 l 260 846 q 311 907 260 882 q 434 933 362 933 q 556 958 505 933 q 608 1020 608 983 l 608 890 q 556 827 608 853 q 434 803 505 803 q 311 777 362 803 q 260 716 260 751 l 260 716 z "},"ũ":{"ha":952,"x_min":0,"x_max":868,"o":"m 174 0 q 50 50 102 0 q 0 174 0 100 l 0 694 l 217 694 l 217 260 q 241 198 217 224 q 304 174 267 174 l 564 174 q 625 198 600 174 q 651 260 651 224 l 651 694 l 868 694 l 868 174 q 817 50 868 100 q 694 0 765 0 l 174 0 m 260 716 l 260 846 q 311 907 260 882 q 434 933 362 933 q 556 958 505 933 q 608 1020 608 983 l 608 890 q 556 827 608 853 q 434 803 505 803 q 311 777 362 803 q 260 716 260 751 l 260 716 z "},"Ū":{"ha":952,"x_min":0,"x_max":868,"o":"m 174 0 q 50 50 102 0 q 0 174 0 100 l 0 694 l 217 694 l 217 260 q 241 198 217 224 q 304 174 267 174 l 608 174 q 637 186 625 174 q 651 217 651 198 l 651 694 l 868 694 l 868 0 l 174 0 m 217 738 l 217 911 l 651 911 l 651 738 l 217 738 z "},"ū":{"ha":952,"x_min":0,"x_max":868,"o":"m 174 0 q 50 50 102 0 q 0 174 0 100 l 0 694 l 217 694 l 217 260 q 241 198 217 224 q 304 174 267 174 l 564 174 q 625 198 600 174 q 651 260 651 224 l 651 694 l 868 694 l 868 174 q 817 50 868 100 q 694 0 765 0 l 174 0 m 217 738 l 217 911 l 651 911 l 651 738 l 217 738 z "},"Ŭ":{"ha":952,"x_min":0,"x_max":868,"o":"m 174 0 q 50 50 102 0 q 0 174 0 100 l 0 694 l 217 694 l 217 260 q 241 198 217 224 q 304 174 267 174 l 608 174 q 637 186 625 174 q 651 217 651 198 l 651 694 l 868 694 l 868 0 l 174 0 m 391 738 q 289 788 332 745 q 239 911 239 840 l 369 911 q 393 849 369 875 q 434 826 411 831 q 473 849 456 831 q 499 911 499 875 l 629 911 q 578 788 629 840 q 477 738 534 745 l 391 738 z "},"ŭ":{"ha":952,"x_min":0,"x_max":868,"o":"m 174 0 q 50 50 102 0 q 0 174 0 100 l 0 694 l 217 694 l 217 260 q 241 198 217 224 q 304 174 267 174 l 564 174 q 625 198 600 174 q 651 260 651 224 l 651 694 l 868 694 l 868 174 q 817 50 868 100 q 694 0 765 0 l 174 0 m 391 738 q 289 788 332 745 q 239 911 239 840 l 369 911 q 393 849 369 875 q 434 826 411 831 q 473 849 456 831 q 499 911 499 875 l 629 911 q 578 788 629 840 q 477 738 534 745 l 391 738 z "},"Ů":{"ha":952,"x_min":0,"x_max":868,"o":"m 174 0 q 50 50 102 0 q 0 174 0 100 l 0 694 l 217 694 l 217 260 q 241 198 217 224 q 304 174 267 174 l 608 174 q 637 186 625 174 q 651 217 651 198 l 651 694 l 868 694 l 868 0 l 174 0 m 456 825 q 486 837 473 825 q 499 868 499 849 q 486 898 499 886 q 456 911 473 911 l 412 911 q 381 898 393 911 q 369 868 369 886 q 381 837 369 849 q 412 825 393 825 l 456 825 m 369 738 q 307 762 332 738 q 282 825 282 788 l 282 911 q 307 972 282 947 q 369 998 332 998 l 499 998 q 560 972 534 998 q 586 911 586 947 l 586 825 q 560 762 586 788 q 499 738 534 738 l 369 738 z "},"ů":{"ha":952,"x_min":0,"x_max":868,"o":"m 174 0 q 50 50 102 0 q 0 174 0 100 l 0 694 l 217 694 l 217 260 q 241 198 217 224 q 304 174 267 174 l 564 174 q 625 198 600 174 q 651 260 651 224 l 651 694 l 868 694 l 868 174 q 817 50 868 100 q 694 0 765 0 l 174 0 m 456 825 q 486 837 473 825 q 499 868 499 849 q 486 898 499 886 q 456 911 473 911 l 412 911 q 381 898 393 911 q 369 868 369 886 q 381 837 369 849 q 412 825 393 825 l 456 825 m 369 738 q 307 762 332 738 q 282 825 282 788 l 282 911 q 307 972 282 947 q 369 998 332 998 l 499 998 q 560 972 534 998 q 586 911 586 947 l 586 825 q 560 762 586 788 q 499 738 534 738 l 369 738 z "},"Ű":{"ha":952,"x_min":0,"x_max":868,"o":"m 174 0 q 50 50 102 0 q 0 174 0 100 l 0 694 l 217 694 l 217 260 q 241 198 217 224 q 304 174 267 174 l 608 174 q 637 186 625 174 q 651 217 651 198 l 651 694 l 868 694 l 868 0 l 174 0 m 174 738 l 217 911 l 477 911 l 304 738 l 174 738 m 477 738 l 521 911 l 781 911 l 608 738 l 477 738 z "},"ű":{"ha":952,"x_min":0,"x_max":868,"o":"m 174 0 q 50 50 102 0 q 0 174 0 100 l 0 694 l 217 694 l 217 260 q 241 198 217 224 q 304 174 267 174 l 564 174 q 625 198 600 174 q 651 260 651 224 l 651 694 l 868 694 l 868 174 q 817 50 868 100 q 694 0 765 0 l 174 0 m 174 738 l 217 911 l 477 911 l 304 738 l 174 738 m 477 738 l 521 911 l 781 911 l 608 738 l 477 738 z "},"Ų":{"ha":952,"x_min":0,"x_max":868,"o":"m 391 -260 q 328 -235 354 -260 q 304 -174 304 -209 l 304 -87 q 328 -24 304 -50 q 391 0 354 0 l 174 0 q 50 50 102 0 q 0 174 0 100 l 0 694 l 217 694 l 217 260 q 241 198 217 224 q 304 174 267 174 l 608 174 q 637 186 625 174 q 651 217 651 198 l 651 694 l 868 694 l 868 0 l 543 0 l 564 -87 l 434 -87 q 403 -99 415 -87 q 391 -130 391 -111 q 403 -160 391 -148 q 434 -174 415 -174 l 564 -174 l 477 -260 l 391 -260 z "},"ų":{"ha":952,"x_min":0,"x_max":868,"o":"m 391 -260 q 328 -235 354 -260 q 304 -174 304 -209 l 304 -87 q 328 -24 304 -50 q 391 0 354 0 l 174 0 q 50 50 102 0 q 0 174 0 100 l 0 694 l 217 694 l 217 260 q 241 198 217 224 q 304 174 267 174 l 564 174 q 625 198 600 174 q 651 260 651 224 l 651 694 l 868 694 l 868 174 q 817 50 868 100 q 694 0 765 0 l 543 0 l 564 -87 l 434 -87 q 403 -99 415 -87 q 391 -130 391 -111 q 403 -160 391 -148 q 434 -174 415 -174 l 564 -174 l 477 -260 l 391 -260 z "},"Ŵ":{"ha":1299,"x_min":0,"x_max":1215,"o":"m 174 0 q 50 50 102 0 q 0 174 0 100 l 0 694 l 217 694 l 217 260 q 241 198 217 224 q 304 174 267 174 l 456 174 q 486 186 473 174 q 499 217 499 198 l 499 694 l 716 694 l 716 260 q 741 198 716 224 q 803 174 766 174 l 911 174 q 972 198 947 174 q 998 260 998 224 l 998 694 l 1215 694 l 1215 0 l 174 0 m 391 738 l 564 911 l 651 911 l 825 738 l 651 738 l 608 781 l 564 738 l 391 738 z "},"ŵ":{"ha":1299,"x_min":0,"x_max":1215,"o":"m 174 0 q 50 50 102 0 q 0 174 0 100 l 0 694 l 217 694 l 217 260 q 241 198 217 224 q 304 174 267 174 l 456 174 q 486 186 473 174 q 499 217 499 198 l 499 694 l 716 694 l 716 260 q 741 198 716 224 q 803 174 766 174 l 911 174 q 972 198 947 174 q 998 260 998 224 l 998 694 l 1215 694 l 1215 174 q 1164 50 1215 100 q 1042 0 1112 0 l 694 0 q 632 24 658 0 q 606 87 606 50 q 582 24 606 50 q 521 0 556 0 l 174 0 m 391 738 l 564 911 l 651 911 l 825 738 l 651 738 l 608 781 l 564 738 l 391 738 z "},"Ŷ":{"ha":952,"x_min":0,"x_max":868,"o":"m 326 0 l 326 152 q 312 182 326 170 q 282 195 300 195 l 152 195 l 151 195 q 50 245 94 202 q 0 369 0 296 l 0 694 l 217 694 l 217 456 q 241 393 217 419 q 304 369 267 369 l 564 369 q 625 393 600 369 q 651 456 651 419 l 651 694 l 868 694 l 868 369 q 817 245 868 296 q 716 195 773 202 l 586 195 q 555 182 567 195 q 543 152 543 170 l 543 0 l 326 0 m 217 738 l 391 911 l 477 911 l 651 738 l 477 738 l 434 781 l 391 738 l 217 738 z "},"ŷ":{"ha":952,"x_min":0,"x_max":868,"o":"m 608 -152 q 637 -126 625 -152 q 651 -65 651 -100 l 651 0 l 174 0 q 50 50 102 0 q 0 174 0 100 l 0 694 l 217 694 l 217 260 q 241 198 217 224 q 304 174 267 174 l 564 174 q 625 198 600 174 q 651 260 651 224 l 651 694 l 868 694 l 868 22 q 817 -100 868 -50 q 694 -152 765 -152 l 608 -152 m 217 738 l 391 911 l 477 911 l 651 738 l 477 738 l 434 781 l 391 738 l 217 738 z "},"Ÿ":{"ha":952,"x_min":0,"x_max":868,"o":"m 326 0 l 326 152 q 312 182 326 170 q 282 195 300 195 l 152 195 l 151 195 q 50 245 94 202 q 0 369 0 296 l 0 694 l 217 694 l 217 456 q 241 393 217 419 q 304 369 267 369 l 564 369 q 625 393 600 369 q 651 456 651 419 l 651 694 l 868 694 l 868 369 q 817 245 868 296 q 716 195 773 202 l 586 195 q 555 182 567 195 q 543 152 543 170 l 543 0 l 326 0 m 217 738 l 217 911 l 391 911 l 391 738 l 217 738 m 477 738 l 477 911 l 651 911 l 651 738 l 477 738 z "},"Ź":{"ha":952,"x_min":22,"x_max":846,"o":"m 22 0 l 22 260 l 543 521 l 22 521 l 22 694 l 846 694 l 846 477 l 239 174 l 846 174 l 846 0 l 22 0 m 304 738 l 347 911 l 608 911 l 434 738 l 304 738 z "},"ź":{"ha":952,"x_min":22,"x_max":846,"o":"m 195 0 q 72 50 123 0 q 22 152 28 94 l 22 239 q 72 339 28 296 q 174 389 115 382 l 174 391 l 563 487 q 564 499 564 492 q 557 521 564 510 l 43 521 l 43 694 l 673 694 q 795 643 743 694 q 846 521 846 593 q 795 397 846 449 q 760 369 779 381 l 755 368 q 694 347 727 351 l 266 240 q 260 217 260 229 q 273 186 260 198 q 304 174 285 174 l 846 174 l 846 0 l 195 0 m 304 738 l 347 911 l 608 911 l 434 738 l 304 738 z "},"Ż":{"ha":952,"x_min":22,"x_max":846,"o":"m 22 0 l 22 260 l 543 521 l 22 521 l 22 694 l 846 694 l 846 477 l 239 174 l 846 174 l 846 0 l 22 0 m 347 738 l 347 911 l 521 911 l 521 738 l 347 738 z "},"ż":{"ha":952,"x_min":22,"x_max":846,"o":"m 195 0 q 72 50 123 0 q 22 152 28 94 l 22 239 q 72 339 28 296 q 174 389 115 382 l 174 391 l 563 487 q 564 499 564 492 q 557 521 564 510 l 43 521 l 43 694 l 673 694 q 795 643 743 694 q 846 521 846 593 q 795 397 846 449 q 760 369 779 381 l 755 368 q 694 347 727 351 l 266 240 q 260 217 260 229 q 273 186 260 198 q 304 174 285 174 l 846 174 l 846 0 l 195 0 m 347 738 l 347 911 l 521 911 l 521 738 l 347 738 z "},"Ž":{"ha":952,"x_min":22,"x_max":846,"o":"m 22 0 l 22 260 l 543 521 l 22 521 l 22 694 l 846 694 l 846 477 l 239 174 l 846 174 l 846 0 l 22 0 m 391 738 l 217 911 l 391 911 l 434 868 l 477 911 l 651 911 l 477 738 l 391 738 z "},"ž":{"ha":952,"x_min":22,"x_max":846,"o":"m 195 0 q 72 50 123 0 q 22 152 28 94 l 22 239 q 72 339 28 296 q 174 389 115 382 l 174 391 l 563 487 q 564 499 564 492 q 557 521 564 510 l 43 521 l 43 694 l 673 694 q 795 643 743 694 q 846 521 846 593 q 795 397 846 449 q 760 369 779 381 l 755 368 q 694 347 727 351 l 266 240 q 260 217 260 229 q 273 186 260 198 q 304 174 285 174 l 846 174 l 846 0 l 195 0 m 391 738 l 217 911 l 391 911 l 434 868 l 477 911 l 651 911 l 477 738 l 391 738 z "},"ſ":{"ha":431,"x_min":-22,"x_max":369,"o":"m 109 0 l 109 521 l -22 521 l -22 694 l 109 694 q 159 795 115 751 q 282 846 210 846 l 369 846 q 338 821 350 846 q 326 760 326 795 l 326 0 l 109 0 z "},"Ƃ":{"ha":952,"x_min":0,"x_max":868,"o":"m 586 174 q 616 186 604 174 q 629 217 629 198 q 616 247 629 235 q 586 260 604 260 l 260 260 q 229 247 241 260 q 217 217 217 235 q 229 186 217 198 q 260 174 241 174 l 586 174 m 0 0 l 0 694 l 825 694 l 825 521 l 260 521 q 229 507 241 521 q 217 477 217 495 q 229 446 217 458 q 260 434 241 434 l 694 434 q 817 382 766 434 q 868 260 868 331 l 868 174 q 817 50 868 100 q 694 0 765 0 l 0 0 z "},"ƃ":{"ha":952,"x_min":0,"x_max":868,"o":"m 586 174 q 616 186 604 174 q 629 217 629 198 q 616 247 629 235 q 586 260 604 260 l 260 260 q 229 247 241 260 q 217 217 217 235 q 229 186 217 198 q 260 174 241 174 l 586 174 m 0 0 l 0 694 l 825 694 l 825 521 l 260 521 q 229 507 241 521 q 217 477 217 495 q 229 446 217 458 q 260 434 241 434 l 694 434 q 817 382 766 434 q 868 260 868 331 l 868 174 q 817 50 868 100 q 694 0 765 0 l 347 0 q 224 24 275 0 q 217 28 220 27 l 217 0 l 0 0 z "},"Ƅ":{"ha":952,"x_min":0,"x_max":868,"o":"m 586 174 q 616 186 604 174 q 629 217 629 198 q 616 247 629 235 q 586 260 604 260 l 260 260 q 229 247 241 260 q 217 217 217 235 q 229 186 217 198 q 260 174 241 174 l 586 174 m 0 0 l 0 694 l 217 694 l 217 477 q 229 446 217 458 q 260 434 241 434 l 694 434 q 817 382 766 434 q 868 260 868 331 l 868 174 q 817 50 868 100 q 694 0 765 0 l 0 0 z "},"Ʒ":{"ha":952,"x_min":0,"x_max":868,"o":"m 0 0 l 0 174 l 586 174 q 616 186 604 174 q 629 217 629 198 q 616 247 629 235 q 586 260 604 260 l 195 260 l 442 507 q 412 521 430 521 l 22 521 l 22 694 l 781 694 l 781 651 q 755 528 781 578 q 736 499 746 510 l 738 499 l 632 393 q 651 391 640 391 l 694 391 q 817 339 766 391 q 868 217 868 288 l 868 174 q 817 50 868 100 q 694 0 765 0 l 0 0 z "},"Ƹ":{"ha":952,"x_min":0,"x_max":868,"o":"m 174 0 q 50 50 102 0 q 0 174 0 100 l 0 217 q 50 339 0 288 q 174 391 100 391 l 217 391 q 235 393 227 391 l 130 499 q 111 528 121 510 q 87 651 87 578 l 87 694 l 846 694 l 846 521 l 456 521 q 425 507 437 521 l 673 260 l 282 260 q 251 247 263 260 q 239 217 239 235 q 251 186 239 198 q 282 174 263 174 l 868 174 l 868 0 l 174 0 z "},"Ѐ":{"ha":865,"x_min":0,"x_max":781,"o":"m 174 0 q 50 50 102 0 q 0 174 0 100 l 0 694 l 781 694 l 781 521 l 260 521 q 229 507 241 521 q 217 477 217 495 q 229 446 217 458 q 260 434 241 434 l 760 434 l 760 260 l 260 260 q 229 247 241 260 q 217 217 217 235 q 229 186 217 198 q 260 174 241 174 l 781 174 l 781 0 l 174 0 m 391 738 l 217 911 l 477 911 l 521 738 l 391 738 z "},"Ё":{"ha":865,"x_min":0,"x_max":781,"o":"m 174 0 q 50 50 102 0 q 0 174 0 100 l 0 694 l 781 694 l 781 521 l 260 521 q 229 507 241 521 q 217 477 217 495 q 229 446 217 458 q 260 434 241 434 l 760 434 l 760 260 l 260 260 q 229 247 241 260 q 217 217 217 235 q 229 186 217 198 q 260 174 241 174 l 781 174 l 781 0 l 174 0 m 174 738 l 174 911 l 347 911 l 347 738 l 174 738 m 434 738 l 434 911 l 608 911 l 608 738 l 434 738 z "},"Ђ":{"ha":1039,"x_min":-43,"x_max":955,"o":"m 87 0 l 87 694 l -43 694 l -43 825 l 434 825 l 434 694 l 304 694 l 304 608 q 316 576 304 589 q 347 564 328 564 l 781 564 q 903 513 852 564 q 955 391 955 463 l 955 174 q 903 50 955 100 q 781 0 852 0 l 608 0 l 521 174 l 651 174 q 712 198 686 174 q 738 260 738 224 l 738 304 q 712 365 738 339 q 651 391 686 391 l 391 391 q 328 365 354 391 q 304 304 304 339 l 304 0 l 87 0 z "},"Ѓ":{"ha":518,"x_min":0,"x_max":434,"o":"m 0 0 l 0 694 l 434 694 l 434 521 l 304 521 q 241 495 267 521 q 217 434 217 469 l 217 0 l 0 0 m 87 738 l 130 911 l 391 911 l 217 738 l 87 738 z "},"Є":{"ha":952,"x_min":0,"x_max":868,"o":"m 174 0 q 50 50 102 0 q 0 174 0 100 l 0 521 q 50 643 0 591 q 174 694 100 694 l 868 694 l 868 521 l 260 521 q 229 507 241 521 q 217 477 217 495 q 229 446 217 458 q 260 434 241 434 l 846 434 l 846 260 l 260 260 q 229 247 241 260 q 217 217 217 235 q 229 186 217 198 q 260 174 241 174 l 868 174 l 868 0 l 174 0 z "},"Ѕ":{"ha":952,"x_min":0,"x_max":868,"o":"m 0 0 l 0 174 l 586 174 q 616 186 604 174 q 629 217 629 198 q 616 247 629 235 q 586 260 604 260 l 174 260 q 50 311 102 260 q 0 434 0 361 l 0 521 q 50 643 0 593 q 174 694 102 694 l 846 694 l 846 521 l 260 521 q 229 507 241 521 q 217 477 217 495 q 229 446 217 458 q 260 434 241 434 l 694 434 q 817 382 766 434 q 868 260 868 331 l 868 174 q 817 50 868 100 q 694 0 765 0 l 0 0 z "},"І":{"ha":345,"x_min":22,"x_max":239,"o":"m 22 0 l 22 694 l 239 694 l 239 0 l 22 0 z "},"Ї":{"ha":345,"x_min":-87,"x_max":347,"o":"m 22 0 l 22 694 l 239 694 l 239 0 l 22 0 m -87 738 l -87 911 l 87 911 l 87 738 l -87 738 m 174 738 l 174 911 l 347 911 l 347 738 l 174 738 z "},"Ј":{"ha":605,"x_min":0,"x_max":521,"o":"m 0 0 l 0 174 l 217 174 q 278 198 252 174 q 304 260 304 224 l 304 694 l 521 694 l 521 174 q 469 50 521 100 q 347 0 418 0 l 0 0 z "},"Љ":{"ha":1560,"x_min":-65,"x_max":1476,"o":"m 1172 174 q 1233 198 1207 174 q 1257 248 1255 220 q 1233 300 1255 278 q 1172 326 1207 326 l 868 326 q 837 312 849 326 q 825 282 825 300 l 825 217 q 837 186 825 198 q 868 174 849 174 l 1172 174 m 22 0 l -65 174 l 43 174 q 73 186 61 174 q 87 217 87 198 l 87 521 q 137 643 87 593 q 260 694 189 694 l 825 694 l 825 543 q 837 511 825 524 q 868 499 849 499 l 1302 499 q 1424 448 1373 499 q 1474 347 1468 404 l 1476 347 l 1476 174 q 1424 50 1476 100 q 1302 0 1373 0 l 608 0 l 608 477 q 594 507 608 495 q 564 521 582 521 l 391 521 q 328 495 354 521 q 304 434 304 469 l 304 174 q 252 50 304 100 q 152 0 209 7 l 22 0 z "},"Њ":{"ha":1560,"x_min":0,"x_max":1476,"o":"m 1172 174 q 1233 198 1207 174 q 1257 248 1255 220 q 1233 300 1255 278 q 1172 326 1207 326 l 868 326 q 837 312 849 326 q 825 282 825 300 l 825 217 q 837 186 825 198 q 868 174 849 174 l 1172 174 m 0 0 l 0 694 l 217 694 l 217 477 q 229 446 217 458 q 260 434 241 434 l 564 434 q 594 446 582 434 q 608 477 608 458 l 608 694 l 825 694 l 825 543 q 837 511 825 524 q 868 499 849 499 l 1302 499 q 1424 448 1373 499 q 1474 347 1468 404 l 1476 347 l 1476 174 q 1424 50 1476 100 q 1302 0 1373 0 l 608 0 l 608 217 q 594 247 608 235 q 564 260 582 260 l 260 260 q 229 247 241 260 q 217 217 217 235 l 217 0 l 0 0 z "},"Ћ":{"ha":1039,"x_min":-43,"x_max":955,"o":"m 87 0 l 87 694 l -43 694 l -43 825 l 434 825 l 434 694 l 304 694 l 304 608 q 316 576 304 589 q 347 564 328 564 l 781 564 q 903 513 852 564 q 955 391 955 463 l 955 0 l 738 0 l 738 304 q 712 365 738 339 q 651 391 686 391 l 391 391 q 328 365 354 391 q 304 304 304 339 l 304 0 l 87 0 z "},"Ќ":{"ha":952,"x_min":0,"x_max":868,"o":"m 0 0 l 0 694 l 217 694 l 217 412 q 229 381 217 393 q 260 369 241 369 l 564 369 q 625 393 600 369 q 651 456 651 419 l 651 694 l 868 694 l 868 347 l 867 347 q 817 245 860 289 q 762 209 792 221 l 868 0 l 651 0 l 553 195 l 260 195 q 229 182 241 195 q 217 152 217 170 l 217 0 l 0 0 m 304 738 l 347 911 l 608 911 l 434 738 l 304 738 z "},"Ѝ":{"ha":952,"x_min":0,"x_max":868,"o":"m 0 0 l 0 694 l 217 694 l 217 239 q 229 208 217 220 q 250 195 237 198 l 456 608 q 484 643 468 627 q 608 694 536 694 l 868 694 l 868 0 l 651 0 l 651 456 q 637 486 651 473 q 617 498 629 495 l 412 87 l 411 87 q 382 50 399 66 q 260 0 331 0 l 0 0 m 412 738 l 239 911 l 499 911 l 543 738 l 412 738 z "},"Ў":{"ha":952,"x_min":0,"x_max":868,"o":"m 499 0 l 582 167 q 572 182 579 175 q 543 195 560 195 l 174 195 q 50 245 102 195 q 0 369 0 296 l 0 694 l 217 694 l 217 456 q 241 393 217 419 q 304 369 267 369 l 564 369 q 625 393 600 369 q 651 456 651 419 l 651 694 l 868 694 l 868 347 q 845 260 868 298 l 846 260 l 716 0 l 499 0 m 391 738 q 289 788 332 745 q 239 911 239 840 l 369 911 q 393 849 369 875 q 434 826 411 831 q 473 849 456 831 q 499 911 499 875 l 629 911 q 578 788 629 840 q 477 738 534 745 l 391 738 z "},"Џ":{"ha":952,"x_min":0,"x_max":868,"o":"m 347 -130 l 347 -43 q 334 -12 347 -24 q 304 0 321 0 l 174 0 q 50 50 102 0 q 0 174 0 100 l 0 694 l 217 694 l 217 260 q 241 198 217 224 q 304 174 267 174 l 608 174 q 637 186 625 174 q 651 217 651 198 l 651 694 l 868 694 l 868 0 l 608 0 q 576 -12 589 0 q 564 -43 564 -24 l 564 -130 l 347 -130 z "},"А":{"ha":952,"x_min":0,"x_max":868,"o":"m 651 369 l 651 434 q 625 495 651 469 q 564 521 600 521 l 304 521 q 241 495 267 521 q 217 434 217 469 l 217 369 l 651 369 m 0 0 l 0 521 q 50 643 0 593 q 174 694 102 694 l 694 694 q 817 643 766 694 q 868 521 868 591 l 868 0 l 651 0 l 651 195 l 217 195 l 217 0 l 0 0 z "},"Б":{"ha":952,"x_min":0,"x_max":868,"o":"m 586 174 q 616 186 604 174 q 629 217 629 198 q 616 247 629 235 q 586 260 604 260 l 260 260 q 229 247 241 260 q 217 217 217 235 q 229 186 217 198 q 260 174 241 174 l 586 174 m 0 0 l 0 694 l 825 694 l 825 521 l 260 521 q 229 507 241 521 q 217 477 217 495 q 229 446 217 458 q 260 434 241 434 l 694 434 q 817 382 766 434 q 868 260 868 331 l 868 174 q 817 50 868 100 q 694 0 765 0 l 0 0 z "},"В":{"ha":952,"x_min":0,"x_max":868,"o":"m 586 174 q 616 186 604 174 q 629 217 629 198 q 616 247 629 235 q 586 260 604 260 l 260 260 q 229 247 241 260 q 217 217 217 235 q 229 186 217 198 q 260 174 241 174 l 586 174 m 586 434 q 616 446 604 434 q 629 477 629 458 q 616 507 629 495 q 586 521 604 521 l 260 521 q 229 507 241 521 q 217 477 217 495 q 229 446 217 458 q 260 434 241 434 l 586 434 m 0 0 l 0 694 l 673 694 q 795 643 743 694 q 846 521 846 593 l 846 477 q 798 357 846 407 q 817 339 807 349 q 868 217 868 288 l 868 174 q 817 50 868 100 q 694 0 765 0 l 0 0 z "},"Г":{"ha":518,"x_min":0,"x_max":434,"o":"m 0 0 l 0 694 l 434 694 l 434 521 l 304 521 q 241 495 267 521 q 217 434 217 469 l 217 0 l 0 0 z "},"Д":{"ha":1126,"x_min":43,"x_max":998,"o":"m 651 217 q 681 229 669 217 q 694 260 694 241 l 694 477 q 681 507 694 495 q 651 521 669 521 l 434 521 q 372 495 397 521 q 347 434 347 469 l 347 260 q 359 229 347 241 q 391 217 372 217 l 651 217 m 43 -130 l 43 130 l 87 130 q 117 142 104 130 q 130 174 130 155 l 130 521 q 180 643 130 593 q 304 694 232 694 l 911 694 l 911 174 q 924 142 911 155 q 955 130 936 130 l 998 130 l 998 -130 l 738 -130 l 738 0 q 724 30 738 18 q 694 43 712 43 l 347 43 q 316 30 328 43 q 304 0 304 18 l 304 -130 l 43 -130 z "},"Е":{"ha":865,"x_min":0,"x_max":781,"o":"m 174 0 q 50 50 102 0 q 0 174 0 100 l 0 694 l 781 694 l 781 521 l 260 521 q 229 507 241 521 q 217 477 217 495 q 229 446 217 458 q 260 434 241 434 l 760 434 l 760 260 l 260 260 q 229 247 241 260 q 217 217 217 235 q 229 186 217 198 q 260 174 241 174 l 781 174 l 781 0 l 174 0 z "},"Ж":{"ha":1213,"x_min":0,"x_max":1128,"o":"m 0 0 l 0 217 q 50 339 0 288 q 69 357 60 349 q 22 477 22 407 l 22 694 l 260 694 l 260 477 q 273 446 260 458 q 304 434 285 434 l 412 434 q 442 446 430 434 q 456 477 456 458 l 456 694 l 673 694 l 673 477 q 685 446 673 458 q 716 434 697 434 l 825 434 q 854 446 842 434 q 868 477 868 458 l 868 694 l 1107 694 l 1107 477 q 1058 357 1107 407 q 1077 339 1067 349 q 1128 217 1128 288 l 1128 0 l 890 0 l 890 217 q 876 247 890 235 q 846 260 864 260 l 716 260 q 685 247 697 260 q 673 217 673 235 l 673 0 l 456 0 l 456 217 q 442 247 456 235 q 412 260 430 260 l 282 260 q 251 247 263 260 q 239 217 239 235 l 239 0 l 0 0 z "},"З":{"ha":952,"x_min":0,"x_max":868,"o":"m 174 0 q 50 50 100 0 q 0 174 0 102 l 0 260 l 217 260 l 217 217 q 229 186 217 198 q 260 174 241 174 l 586 174 q 616 186 604 174 q 629 217 629 198 q 616 247 629 235 q 586 260 604 260 l 282 260 l 282 434 l 586 434 q 616 446 604 434 q 629 477 629 458 q 616 507 629 495 q 586 521 604 521 l 260 521 q 229 507 241 521 q 217 477 217 495 l 217 434 l 0 434 l 0 521 q 50 643 0 593 q 174 694 102 694 l 673 694 q 795 643 745 694 q 846 521 846 591 l 846 477 q 798 357 846 407 q 817 339 807 349 q 868 217 868 288 l 868 174 q 817 50 868 100 q 694 0 765 0 l 174 0 z "},"И":{"ha":952,"x_min":0,"x_max":868,"o":"m 0 0 l 0 694 l 217 694 l 217 239 q 229 208 217 220 q 250 195 237 198 l 456 608 q 484 643 468 627 q 608 694 536 694 l 868 694 l 868 0 l 651 0 l 651 456 q 637 486 651 473 q 617 498 629 495 l 412 87 l 411 87 q 382 50 399 66 q 260 0 331 0 l 0 0 z "},"Й":{"ha":952,"x_min":0,"x_max":868,"o":"m 0 0 l 0 694 l 217 694 l 217 239 q 229 208 217 220 q 250 195 237 198 l 456 608 q 484 643 468 627 q 608 694 536 694 l 868 694 l 868 0 l 651 0 l 651 456 q 637 486 651 473 q 617 498 629 495 l 412 87 l 411 87 q 382 50 399 66 q 260 0 331 0 l 0 0 m 391 738 l 389 738 q 289 788 332 745 q 239 911 239 840 l 369 911 q 393 849 369 875 q 434 826 411 831 q 473 849 456 831 q 499 911 499 875 l 629 911 q 578 788 629 840 q 477 738 534 745 l 391 738 z "},"К":{"ha":952,"x_min":0,"x_max":868,"o":"m 0 0 l 0 694 l 217 694 l 217 412 q 229 381 217 393 q 260 369 241 369 l 564 369 q 625 393 600 369 q 651 456 651 419 l 651 694 l 868 694 l 868 347 l 867 347 q 817 245 860 289 q 762 209 792 221 l 868 0 l 651 0 l 553 195 l 260 195 q 229 182 241 195 q 217 152 217 170 l 217 0 l 0 0 z "},"Л":{"ha":1039,"x_min":-65,"x_max":955,"o":"m 22 0 l -65 174 l 43 174 q 73 186 61 174 q 87 217 87 198 l 87 521 q 137 643 87 593 q 260 694 189 694 l 955 694 l 955 0 l 738 0 l 738 477 q 724 507 738 495 q 694 521 712 521 l 391 521 q 328 495 354 521 q 304 434 304 469 l 304 174 q 252 50 304 100 q 152 0 209 7 l 22 0 z "},"М":{"ha":1299,"x_min":0,"x_max":1215,"o":"m 0 0 l 0 694 l 1042 694 q 1164 643 1112 694 q 1215 521 1215 593 l 1215 0 l 998 0 l 998 434 q 972 495 998 469 q 911 521 947 521 l 760 521 q 728 507 741 521 q 716 477 716 495 l 716 0 l 499 0 l 499 477 q 486 507 499 495 q 456 521 473 521 l 260 521 q 229 507 241 521 q 217 477 217 495 l 217 0 l 0 0 z "},"Н":{"ha":952,"x_min":0,"x_max":868,"o":"m 0 0 l 0 694 l 217 694 l 217 477 q 229 446 217 458 q 260 434 241 434 l 608 434 q 637 446 625 434 q 651 477 651 458 l 651 694 l 868 694 l 868 0 l 651 0 l 651 217 q 637 247 651 235 q 608 260 625 260 l 260 260 q 229 247 241 260 q 217 217 217 235 l 217 0 l 0 0 z "},"О":{"ha":952,"x_min":0,"x_max":868,"o":"m 564 174 q 625 198 600 174 q 651 260 651 224 l 651 434 q 625 495 651 469 q 564 521 600 521 l 304 521 q 241 495 267 521 q 217 434 217 469 l 217 260 q 241 198 217 224 q 304 174 267 174 l 564 174 m 174 0 q 50 50 102 0 q 0 174 0 100 l 0 521 q 50 643 0 593 q 174 694 102 694 l 694 694 q 817 643 765 694 q 868 521 868 593 l 868 174 q 817 50 868 100 q 694 0 765 0 l 174 0 z "},"П":{"ha":952,"x_min":0,"x_max":868,"o":"m 0 0 l 0 694 l 868 694 l 868 0 l 651 0 l 651 477 q 637 507 651 495 q 608 521 625 521 l 260 521 q 229 507 241 521 q 217 477 217 495 l 217 0 l 0 0 z "},"Р":{"ha":952,"x_min":0,"x_max":868,"o":"m 564 369 q 625 393 600 369 q 650 445 647 415 q 625 495 647 473 q 564 521 600 521 l 260 521 q 229 507 241 521 q 217 477 217 495 l 217 412 q 229 381 217 393 q 260 369 241 369 l 564 369 m 0 0 l 0 694 l 694 694 q 817 643 765 694 q 868 521 868 593 l 868 347 l 867 347 q 817 245 860 289 q 694 195 765 195 l 260 195 q 229 182 241 195 q 217 152 217 170 l 217 0 l 0 0 z "},"С":{"ha":865,"x_min":0,"x_max":781,"o":"m 174 0 q 50 50 102 0 q 0 174 0 100 l 0 521 q 50 643 0 593 q 174 694 102 694 l 781 694 l 781 521 l 304 521 q 241 495 267 521 q 217 434 217 469 l 217 260 q 241 198 217 224 q 304 174 267 174 l 781 174 l 781 0 l 174 0 z "},"Т":{"ha":952,"x_min":0,"x_max":868,"o":"m 326 0 l 326 477 q 312 507 326 495 q 282 521 300 521 l 0 521 l 0 694 l 868 694 l 868 521 l 586 521 q 555 507 567 521 q 543 477 543 495 l 543 0 l 326 0 z "},"У":{"ha":952,"x_min":0,"x_max":868,"o":"m 499 0 l 582 167 q 572 182 579 175 q 543 195 560 195 l 174 195 q 50 245 102 195 q 0 369 0 296 l 0 694 l 217 694 l 217 456 q 241 393 217 419 q 304 369 267 369 l 564 369 q 625 393 600 369 q 651 456 651 419 l 651 694 l 868 694 l 868 347 q 845 260 868 298 l 846 260 l 716 0 l 499 0 z "},"Ф":{"ha":952,"x_min":0,"x_max":868,"o":"m 369 174 l 369 521 l 304 521 q 241 495 267 521 q 217 434 217 469 l 217 260 q 241 198 217 224 q 304 174 267 174 l 369 174 m 564 174 q 625 198 600 174 q 651 260 651 224 l 651 434 q 625 495 651 469 q 564 521 600 521 l 499 521 l 499 174 l 564 174 m 369 -130 l 369 0 l 174 0 q 50 50 102 0 q 0 174 0 100 l 0 521 q 50 643 0 593 q 174 694 102 694 l 369 694 l 369 825 l 499 825 l 499 694 l 694 694 q 817 643 765 694 q 868 521 868 593 l 868 174 q 817 50 868 100 q 694 0 765 0 l 499 0 l 499 -130 l 369 -130 z "},"Х":{"ha":1039,"x_min":-43,"x_max":998,"o":"m -43 0 l 316 359 q 324 391 321 374 l 22 694 l 304 694 l 477 521 l 651 694 l 933 694 l 629 391 q 637 359 632 374 l 998 0 l 716 0 l 477 239 l 239 0 l -43 0 z "},"Ц":{"ha":1039,"x_min":0,"x_max":955,"o":"m 694 -130 l 694 -43 q 681 -12 694 -24 q 651 0 669 0 l 174 0 q 50 50 102 0 q 0 174 0 100 l 0 694 l 217 694 l 217 260 q 241 198 217 224 q 304 174 267 174 l 608 174 q 637 186 625 174 q 651 217 651 198 l 651 694 l 868 694 l 868 174 q 880 142 868 155 q 911 130 892 130 l 955 130 l 955 -130 l 694 -130 z "},"Ч":{"ha":952,"x_min":0,"x_max":868,"o":"m 694 0 l 694 152 q 681 182 694 170 q 651 195 669 195 l 174 195 q 50 245 102 195 q 0 369 0 296 l 0 694 l 217 694 l 217 456 q 241 393 217 419 q 304 369 267 369 l 608 369 q 637 381 625 369 q 651 412 651 393 l 651 694 l 868 694 l 868 0 l 694 0 z "},"Ш":{"ha":1299,"x_min":0,"x_max":1215,"o":"m 174 0 q 50 50 102 0 q 0 174 0 100 l 0 694 l 217 694 l 217 260 q 241 198 217 224 q 304 174 267 174 l 456 174 q 486 186 473 174 q 499 217 499 198 l 499 694 l 716 694 l 716 260 q 741 198 716 224 q 803 174 766 174 l 955 174 q 985 186 972 174 q 998 217 998 198 l 998 694 l 1215 694 l 1215 0 l 174 0 z "},"Щ":{"ha":1386,"x_min":0,"x_max":1302,"o":"m 1042 -130 l 1042 -43 q 1028 -12 1042 -24 q 998 0 1016 0 l 174 0 q 50 50 102 0 q 0 174 0 100 l 0 694 l 217 694 l 217 260 q 241 198 217 224 q 304 174 267 174 l 456 174 q 486 186 473 174 q 499 217 499 198 l 499 694 l 716 694 l 716 260 q 741 198 716 224 q 803 174 766 174 l 955 174 q 985 186 972 174 q 998 217 998 198 l 998 694 l 1215 694 l 1215 174 q 1227 142 1215 155 q 1259 130 1240 130 l 1302 130 l 1302 -130 l 1042 -130 z "},"Ъ":{"ha":1126,"x_min":0,"x_max":1042,"o":"m 738 174 q 799 198 773 174 q 823 248 821 220 q 799 300 821 278 q 738 326 773 326 l 434 326 q 403 312 415 326 q 391 282 391 300 l 391 217 q 403 186 391 198 q 434 174 415 174 l 738 174 m 174 0 l 174 477 q 160 507 174 495 q 130 521 148 521 l 0 521 l 0 694 l 391 694 l 391 543 q 403 511 391 524 q 434 499 415 499 l 868 499 q 990 448 939 499 q 1040 347 1034 404 l 1042 347 l 1042 174 q 990 50 1042 100 q 868 0 939 0 l 174 0 z "},"Ы":{"ha":1213,"x_min":0,"x_max":1128,"o":"m 564 174 q 625 198 600 174 q 650 248 647 220 q 625 300 647 278 q 564 326 600 326 l 260 326 q 229 312 241 326 q 217 282 217 300 l 217 217 q 229 186 217 198 q 260 174 241 174 l 564 174 m 0 0 l 0 694 l 217 694 l 217 543 q 229 511 217 524 q 260 499 241 499 l 694 499 q 817 448 765 499 q 867 347 860 404 l 868 347 l 868 174 q 817 50 868 100 q 694 0 765 0 l 0 0 m 911 0 l 911 694 l 1128 694 l 1128 0 l 911 0 z "},"Ь":{"ha":952,"x_min":0,"x_max":868,"o":"m 586 174 q 647 198 621 174 q 671 248 669 220 q 647 300 669 278 q 586 326 621 326 l 260 326 q 229 312 241 326 q 217 282 217 300 l 217 217 q 229 186 217 198 q 260 174 241 174 l 586 174 m 0 0 l 0 694 l 217 694 l 217 543 q 229 511 217 524 q 260 499 241 499 l 694 499 q 817 448 765 499 q 867 347 860 404 l 868 347 l 868 174 q 817 50 868 100 q 694 0 765 0 l 0 0 z "},"Э":{"ha":952,"x_min":0,"x_max":868,"o":"m 0 0 l 0 174 l 608 174 q 637 186 625 174 q 651 217 651 198 q 637 247 651 235 q 608 260 625 260 l 22 260 l 22 434 l 608 434 q 637 446 625 434 q 651 477 651 458 q 637 507 651 495 q 608 521 625 521 l 0 521 l 0 694 l 694 694 q 817 643 766 694 q 868 521 868 591 l 868 174 q 817 50 868 100 q 694 0 765 0 l 0 0 z "},"Ю":{"ha":1213,"x_min":0,"x_max":1128,"o":"m 846 174 q 907 198 882 174 q 933 260 933 224 l 933 434 q 907 495 933 469 q 846 521 882 521 l 651 521 q 589 495 614 521 q 564 434 564 469 l 564 260 q 589 198 564 224 q 651 174 614 174 l 846 174 m 0 0 l 0 694 l 217 694 l 217 477 q 229 446 217 458 q 260 434 241 434 l 304 434 q 334 446 321 434 q 347 477 347 458 l 347 521 q 397 643 347 593 q 521 694 449 694 l 955 694 q 1077 643 1025 694 q 1128 521 1128 593 l 1128 174 q 1077 50 1128 100 q 955 0 1025 0 l 521 0 q 397 50 449 0 q 347 174 347 100 l 347 217 q 334 247 347 235 q 304 260 321 260 l 260 260 q 229 247 241 260 q 217 217 217 235 l 217 0 l 0 0 z "},"Я":{"ha":952,"x_min":0,"x_max":868,"o":"m 608 369 q 637 381 625 369 q 651 412 651 393 l 651 477 q 637 507 651 495 q 608 521 625 521 l 304 521 q 241 495 267 521 q 217 445 220 473 q 241 393 220 415 q 304 369 267 369 l 608 369 m 0 0 l 104 209 q 50 245 75 221 q 0 347 7 289 l 0 521 q 50 643 0 593 q 174 694 102 694 l 868 694 l 868 0 l 651 0 l 651 152 q 637 182 651 170 q 608 195 625 195 l 315 195 l 217 0 l 0 0 z "},"а":{"ha":952,"x_min":0,"x_max":868,"o":"m 608 174 q 637 186 625 174 q 651 217 651 198 l 651 239 q 637 269 651 256 q 608 282 625 282 l 260 282 q 229 269 241 282 q 217 239 217 256 l 217 217 q 229 186 217 198 q 260 174 241 174 l 608 174 m 174 0 q 50 50 102 0 q 0 174 0 100 l 0 282 q 50 404 0 353 q 174 456 100 456 l 608 456 q 637 468 625 456 q 650 488 647 476 q 637 507 647 499 q 608 521 625 521 l 43 521 l 43 694 l 694 694 q 817 643 765 694 q 868 521 868 593 l 868 174 q 817 50 868 102 q 694 0 766 0 l 174 0 z "},"б":{"ha":952,"x_min":0,"x_max":868,"o":"m 586 174 q 616 186 604 174 q 629 217 629 198 q 616 247 629 235 q 586 260 604 260 l 260 260 q 229 247 241 260 q 217 217 217 235 q 229 186 217 198 q 260 174 241 174 l 586 174 m 174 0 q 50 50 100 0 q 0 174 0 102 l 0 521 q 50 643 0 593 q 174 694 102 694 l 825 694 l 825 521 l 260 521 q 229 507 241 521 q 217 477 217 495 q 229 446 217 458 q 260 434 241 434 l 694 434 q 817 382 766 434 q 868 260 868 331 l 868 174 q 817 50 868 100 q 694 0 765 0 l 174 0 z "},"в":{"ha":952,"x_min":0,"x_max":868,"o":"m 586 174 q 616 186 604 174 q 629 217 629 198 q 616 247 629 235 q 586 260 604 260 l 260 260 q 229 247 241 260 q 217 217 217 235 q 229 186 217 198 q 260 174 241 174 l 586 174 m 586 434 q 616 446 604 434 q 629 477 629 458 q 616 507 629 495 q 586 521 604 521 l 260 521 q 229 507 241 521 q 217 477 217 495 q 229 446 217 458 q 260 434 241 434 l 586 434 m 0 0 l 0 521 q 50 643 0 593 q 174 694 102 694 l 673 694 q 795 643 743 694 q 846 521 846 593 l 846 477 q 798 357 846 407 q 817 339 807 349 q 868 217 868 288 l 868 174 q 817 50 868 100 q 694 0 765 0 l 0 0 z "},"г":{"ha":518,"x_min":0,"x_max":434,"o":"m 0 0 l 0 694 l 434 694 l 434 521 l 304 521 q 241 495 267 521 q 217 434 217 469 l 217 0 l 0 0 z "},"д":{"ha":1126,"x_min":43,"x_max":998,"o":"m 651 217 q 681 229 669 217 q 694 260 694 241 l 694 477 q 681 507 694 495 q 651 521 669 521 l 434 521 q 372 495 397 521 q 347 434 347 469 l 347 260 q 359 229 347 241 q 391 217 372 217 l 651 217 m 43 -130 l 43 130 l 87 130 q 117 142 104 130 q 130 174 130 155 l 130 521 q 180 643 130 593 q 304 694 232 694 l 911 694 l 911 174 q 924 142 911 155 q 955 130 936 130 l 998 130 l 998 -130 l 738 -130 l 738 0 q 724 30 738 18 q 694 43 712 43 l 347 43 q 316 30 328 43 q 304 0 304 18 l 304 -130 l 43 -130 z "},"е":{"ha":952,"x_min":0,"x_max":868,"o":"m 608 412 q 637 425 625 412 q 651 456 651 437 l 651 477 q 637 507 651 495 q 608 521 625 521 l 260 521 q 229 507 241 521 q 217 477 217 495 l 217 456 q 229 425 217 437 q 260 412 241 412 l 608 412 m 174 0 q 50 50 102 0 q 0 174 0 100 l 0 521 q 50 643 0 591 q 174 694 100 694 l 694 694 q 817 643 765 694 q 868 521 868 593 l 868 434 q 817 311 868 362 q 694 260 766 260 l 260 260 q 229 247 241 260 q 217 217 217 235 q 229 186 217 198 q 260 174 241 174 l 825 174 l 825 0 l 174 0 z "},"ж":{"ha":1213,"x_min":0,"x_max":1128,"o":"m 0 0 l 0 217 q 50 339 0 288 q 69 357 60 349 q 22 477 22 407 l 22 694 l 260 694 l 260 477 q 273 446 260 458 q 304 434 285 434 l 412 434 q 442 446 430 434 q 456 477 456 458 l 456 694 l 673 694 l 673 477 q 685 446 673 458 q 716 434 697 434 l 825 434 q 854 446 842 434 q 868 477 868 458 l 868 694 l 1107 694 l 1107 477 q 1058 357 1107 407 q 1077 339 1067 349 q 1128 217 1128 288 l 1128 0 l 890 0 l 890 217 q 876 247 890 235 q 846 260 864 260 l 716 260 q 685 247 697 260 q 673 217 673 235 l 673 0 l 456 0 l 456 217 q 442 247 456 235 q 412 260 430 260 l 282 260 q 251 247 263 260 q 239 217 239 235 l 239 0 l 0 0 z "},"з":{"ha":952,"x_min":0,"x_max":868,"o":"m 174 0 q 50 50 100 0 q 0 174 0 102 l 0 260 l 217 260 l 217 217 q 229 186 217 198 q 260 174 241 174 l 586 174 q 616 186 604 174 q 629 217 629 198 q 616 247 629 235 q 586 260 604 260 l 282 260 l 282 434 l 586 434 q 616 446 604 434 q 629 477 629 458 q 616 507 629 495 q 586 521 604 521 l 260 521 q 229 507 241 521 q 217 477 217 495 l 217 434 l 0 434 l 0 521 q 50 643 0 593 q 174 694 102 694 l 673 694 q 795 643 745 694 q 846 521 846 591 l 846 477 q 798 357 846 407 q 817 339 807 349 q 868 217 868 288 l 868 174 q 817 50 868 100 q 694 0 765 0 l 174 0 z "},"и":{"ha":952,"x_min":0,"x_max":868,"o":"m 0 0 l 0 694 l 217 694 l 217 239 q 229 208 217 220 q 250 195 237 198 l 456 608 q 484 643 468 627 q 608 694 536 694 l 868 694 l 868 0 l 651 0 l 651 456 q 637 486 651 473 q 617 498 629 495 l 412 87 l 411 87 q 382 50 399 66 q 260 0 331 0 l 0 0 z "},"й":{"ha":952,"x_min":0,"x_max":868,"o":"m 0 0 l 0 694 l 217 694 l 217 239 q 229 208 217 220 q 250 195 237 198 l 456 608 q 484 643 468 627 q 608 694 536 694 l 868 694 l 868 0 l 651 0 l 651 456 q 637 486 651 473 q 617 498 629 495 l 412 87 l 411 87 q 382 50 399 66 q 260 0 331 0 l 0 0 m 391 738 l 389 738 q 289 788 332 745 q 239 911 239 840 l 369 911 q 393 849 369 875 q 434 826 411 831 q 473 849 456 831 q 499 911 499 875 l 629 911 q 578 788 629 840 q 477 738 534 745 l 391 738 z "},"к":{"ha":952,"x_min":0,"x_max":868,"o":"m 0 0 l 0 694 l 217 694 l 217 412 q 229 381 217 393 q 260 369 241 369 l 564 369 q 625 393 600 369 q 651 456 651 419 l 651 694 l 868 694 l 868 347 l 867 347 q 817 245 860 289 q 762 209 792 221 l 868 0 l 651 0 l 553 195 l 260 195 q 229 182 241 195 q 217 152 217 170 l 217 0 l 0 0 z "},"л":{"ha":1039,"x_min":0,"x_max":955,"o":"m 0 0 l 0 174 l 43 174 q 73 186 61 174 q 87 217 87 198 l 87 521 q 137 643 87 593 q 260 694 189 694 l 955 694 l 955 0 l 738 0 l 738 477 q 724 507 738 495 q 694 521 712 521 l 391 521 q 328 495 354 521 q 304 434 304 469 l 304 174 q 252 50 304 100 q 174 4 217 15 l 174 0 l 0 0 z "},"м":{"ha":1299,"x_min":0,"x_max":1215,"o":"m 0 0 l 0 521 q 50 643 0 593 q 174 694 102 694 l 521 694 l 521 693 q 582 669 556 693 q 606 608 606 643 q 632 669 606 643 q 694 694 658 694 l 1042 694 q 1164 643 1112 694 q 1215 521 1215 593 l 1215 0 l 998 0 l 998 434 q 972 495 998 469 q 911 521 947 521 l 760 521 q 728 507 741 521 q 716 477 716 495 l 716 0 l 499 0 l 499 477 q 486 507 499 495 q 456 521 473 521 l 304 521 q 241 495 267 521 q 217 434 217 469 l 217 0 l 0 0 z "},"н":{"ha":952,"x_min":0,"x_max":868,"o":"m 0 0 l 0 694 l 217 694 l 217 477 q 229 446 217 458 q 260 434 241 434 l 608 434 q 637 446 625 434 q 651 477 651 458 l 651 694 l 868 694 l 868 0 l 651 0 l 651 217 q 637 247 651 235 q 608 260 625 260 l 260 260 q 229 247 241 260 q 217 217 217 235 l 217 0 l 0 0 z "},"о":{"ha":952,"x_min":0,"x_max":868,"o":"m 564 174 q 625 198 600 174 q 651 260 651 224 l 651 434 q 625 495 651 469 q 564 521 600 521 l 304 521 q 241 495 267 521 q 217 434 217 469 l 217 260 q 241 198 217 224 q 304 174 267 174 l 564 174 m 174 0 q 50 50 102 0 q 0 174 0 100 l 0 521 q 50 643 0 593 q 174 694 102 694 l 694 694 q 817 643 765 694 q 868 521 868 593 l 868 174 q 817 50 868 100 q 694 0 765 0 l 174 0 z "},"п":{"ha":952,"x_min":0,"x_max":868,"o":"m 0 0 l 0 694 l 868 694 l 868 0 l 651 0 l 651 477 q 637 507 651 495 q 608 521 625 521 l 260 521 q 229 507 241 521 q 217 477 217 495 l 217 0 l 0 0 z "},"р":{"ha":952,"x_min":0,"x_max":868,"o":"m 564 174 q 625 198 600 174 q 651 260 651 224 l 651 434 q 625 495 651 469 q 564 521 600 521 l 304 521 q 241 495 267 521 q 217 434 217 469 l 217 260 q 241 198 217 224 q 304 174 267 174 l 564 174 m 0 -130 l 0 521 q 50 643 0 593 q 174 694 102 694 l 694 694 q 817 643 765 694 q 868 521 868 593 l 868 174 q 817 50 868 100 q 694 0 765 0 l 260 0 q 229 -12 241 0 q 217 -43 217 -24 l 217 -130 l 0 -130 z "},"с":{"ha":865,"x_min":0,"x_max":781,"o":"m 174 0 q 50 50 102 0 q 0 174 0 100 l 0 521 q 50 643 0 593 q 174 694 102 694 l 781 694 l 781 521 l 304 521 q 241 495 267 521 q 217 434 217 469 l 217 260 q 241 198 217 224 q 304 174 267 174 l 781 174 l 781 0 l 174 0 z "},"т":{"ha":952,"x_min":0,"x_max":868,"o":"m 326 0 l 326 477 q 312 507 326 495 q 282 521 300 521 l 0 521 l 0 694 l 868 694 l 868 521 l 586 521 q 555 507 567 521 q 543 477 543 495 l 543 0 l 326 0 z "},"у":{"ha":952,"x_min":0,"x_max":868,"o":"m 543 -130 l 598 -16 q 594 -12 597 -14 q 564 0 582 0 l 174 0 q 50 50 102 0 q 0 174 0 100 l 0 694 l 217 694 l 217 260 q 241 198 217 224 q 304 174 267 174 l 564 174 q 625 198 600 174 q 651 260 651 224 l 651 694 l 868 694 l 868 130 q 845 43 868 81 l 846 43 l 760 -130 l 543 -130 z "},"ф":{"ha":952,"x_min":0,"x_max":868,"o":"m 369 174 l 369 521 l 304 521 q 241 495 267 521 q 217 434 217 469 l 217 260 q 241 198 217 224 q 304 174 267 174 l 369 174 m 564 174 q 625 198 600 174 q 651 260 651 224 l 651 434 q 625 495 651 469 q 564 521 600 521 l 499 521 l 499 174 l 564 174 m 369 -130 l 369 0 l 174 0 q 50 50 102 0 q 0 174 0 100 l 0 521 q 50 643 0 593 q 174 694 102 694 l 369 694 l 369 825 l 499 825 l 499 694 l 694 694 q 817 643 765 694 q 868 521 868 593 l 868 174 q 817 50 868 100 q 694 0 765 0 l 499 0 l 499 -130 l 369 -130 z "},"х":{"ha":1039,"x_min":-43,"x_max":998,"o":"m -43 0 l 316 359 q 324 391 321 374 l 22 694 l 304 694 l 477 521 l 651 694 l 933 694 l 629 391 q 637 359 632 374 l 998 0 l 716 0 l 477 239 l 239 0 l -43 0 z "},"ц":{"ha":1039,"x_min":0,"x_max":955,"o":"m 694 -130 l 694 -43 q 681 -12 694 -24 q 651 0 669 0 l 174 0 q 50 50 102 0 q 0 174 0 100 l 0 694 l 217 694 l 217 260 q 241 198 217 224 q 304 174 267 174 l 608 174 q 637 186 625 174 q 651 217 651 198 l 651 694 l 868 694 l 868 174 q 880 142 868 155 q 911 130 892 130 l 955 130 l 955 -130 l 694 -130 z "},"ч":{"ha":952,"x_min":0,"x_max":868,"o":"m 694 0 l 694 152 q 681 182 694 170 q 651 195 669 195 l 174 195 q 50 245 102 195 q 0 369 0 296 l 0 694 l 217 694 l 217 456 q 241 393 217 419 q 304 369 267 369 l 608 369 q 637 381 625 369 q 651 412 651 393 l 651 694 l 868 694 l 868 0 l 694 0 z "},"ш":{"ha":1299,"x_min":0,"x_max":1215,"o":"m 174 0 q 50 50 102 0 q 0 174 0 100 l 0 694 l 217 694 l 217 260 q 241 198 217 224 q 304 174 267 174 l 456 174 q 486 186 473 174 q 499 217 499 198 l 499 694 l 716 694 l 716 260 q 741 198 716 224 q 803 174 766 174 l 911 174 q 972 198 947 174 q 998 260 998 224 l 998 694 l 1215 694 l 1215 174 q 1164 50 1215 100 q 1042 0 1112 0 l 694 0 q 632 24 658 0 q 606 87 606 50 q 582 24 606 50 q 521 0 556 0 l 174 0 z "},"щ":{"ha":1386,"x_min":0,"x_max":1302,"o":"m 1042 -130 l 1042 -43 q 1028 -12 1042 -24 q 998 0 1016 0 l 694 0 q 632 24 658 0 q 606 87 606 50 q 582 24 606 50 q 521 0 556 0 l 174 0 q 50 50 102 0 q 0 174 0 100 l 0 694 l 217 694 l 217 260 q 241 198 217 224 q 304 174 267 174 l 456 174 q 486 186 473 174 q 499 217 499 198 l 499 694 l 716 694 l 716 260 q 741 198 716 224 q 803 174 766 174 l 911 174 q 972 198 947 174 q 998 260 998 224 l 998 694 l 1215 694 l 1215 174 q 1227 142 1215 155 q 1259 130 1240 130 l 1302 130 l 1302 -130 l 1042 -130 z "},"ъ":{"ha":1126,"x_min":0,"x_max":1042,"o":"m 738 174 q 799 198 773 174 q 823 248 821 220 q 799 300 821 278 q 738 326 773 326 l 434 326 q 403 312 415 326 q 391 282 391 300 l 391 217 q 403 186 391 198 q 434 174 415 174 l 738 174 m 174 0 l 174 477 q 160 507 174 495 q 130 521 148 521 l 0 521 l 0 694 l 391 694 l 391 543 q 403 511 391 524 q 434 499 415 499 l 868 499 q 990 448 939 499 q 1040 347 1034 404 l 1042 347 l 1042 174 q 990 50 1042 100 q 868 0 939 0 l 174 0 z "},"ы":{"ha":1213,"x_min":0,"x_max":1128,"o":"m 564 174 q 625 198 600 174 q 650 248 647 220 q 625 300 647 278 q 564 326 600 326 l 260 326 q 229 312 241 326 q 217 282 217 300 l 217 217 q 229 186 217 198 q 260 174 241 174 l 564 174 m 0 0 l 0 694 l 217 694 l 217 543 q 229 511 217 524 q 260 499 241 499 l 694 499 q 817 448 765 499 q 867 347 860 404 l 868 347 l 868 174 q 817 50 868 100 q 694 0 765 0 l 0 0 m 911 0 l 911 694 l 1128 694 l 1128 0 l 911 0 z "},"ь":{"ha":952,"x_min":0,"x_max":868,"o":"m 564 174 q 625 198 600 174 q 650 248 647 220 q 625 300 647 278 q 564 326 600 326 l 260 326 q 229 312 241 326 q 217 282 217 300 l 217 217 q 229 186 217 198 q 260 174 241 174 l 564 174 m 0 0 l 0 694 l 217 694 l 217 543 q 229 511 217 524 q 260 499 241 499 l 694 499 q 817 448 765 499 q 867 347 860 404 l 868 347 l 868 174 q 817 50 868 100 q 694 0 765 0 l 0 0 z "},"э":{"ha":952,"x_min":0,"x_max":868,"o":"m 0 0 l 0 174 l 608 174 q 637 186 625 174 q 651 217 651 198 q 637 247 651 235 q 608 260 625 260 l 22 260 l 22 434 l 608 434 q 637 446 625 434 q 651 477 651 458 q 637 507 651 495 q 608 521 625 521 l 0 521 l 0 694 l 694 694 q 817 643 766 694 q 868 521 868 591 l 868 174 q 817 50 868 100 q 694 0 765 0 l 0 0 z "},"ю":{"ha":1213,"x_min":0,"x_max":1128,"o":"m 846 174 q 907 198 882 174 q 933 260 933 224 l 933 434 q 907 495 933 469 q 846 521 882 521 l 651 521 q 589 495 614 521 q 564 434 564 469 l 564 260 q 589 198 564 224 q 651 174 614 174 l 846 174 m 0 0 l 0 694 l 217 694 l 217 477 q 229 446 217 458 q 260 434 241 434 l 304 434 q 334 446 321 434 q 347 477 347 458 l 347 521 q 397 643 347 593 q 521 694 449 694 l 955 694 q 1077 643 1025 694 q 1128 521 1128 593 l 1128 174 q 1077 50 1128 100 q 955 0 1025 0 l 521 0 q 397 50 449 0 q 347 174 347 100 l 347 217 q 334 247 347 235 q 304 260 321 260 l 260 260 q 229 247 241 260 q 217 217 217 235 l 217 0 l 0 0 z "},"я":{"ha":952,"x_min":0,"x_max":868,"o":"m 608 369 q 637 381 625 369 q 651 412 651 393 l 651 477 q 637 507 651 495 q 608 521 625 521 l 304 521 q 241 495 267 521 q 217 445 220 473 q 241 393 220 415 q 304 369 267 369 l 608 369 m 0 0 l 104 209 q 50 245 75 221 q 0 347 7 289 l 0 521 q 50 643 0 593 q 174 694 102 694 l 694 694 q 817 643 765 694 q 868 521 868 593 l 868 0 l 651 0 l 651 152 q 637 182 651 170 q 608 195 625 195 l 315 195 l 217 0 l 0 0 z "},"ѐ":{"ha":952,"x_min":0,"x_max":868,"o":"m 608 412 q 637 425 625 412 q 651 456 651 437 l 651 477 q 637 507 651 495 q 608 521 625 521 l 260 521 q 229 507 241 521 q 217 477 217 495 l 217 456 q 229 425 217 437 q 260 412 241 412 l 608 412 m 174 0 q 50 50 102 0 q 0 174 0 100 l 0 521 q 50 643 0 591 q 174 694 100 694 l 694 694 q 817 643 765 694 q 868 521 868 593 l 868 434 q 817 311 868 362 q 694 260 766 260 l 260 260 q 229 247 241 260 q 217 217 217 235 q 229 186 217 198 q 260 174 241 174 l 825 174 l 825 0 l 174 0 m 412 738 l 239 911 l 499 911 l 543 738 l 412 738 z "},"ё":{"ha":952,"x_min":0,"x_max":868,"o":"m 608 412 q 637 425 625 412 q 651 456 651 437 l 651 477 q 637 507 651 495 q 608 521 625 521 l 260 521 q 229 507 241 521 q 217 477 217 495 l 217 456 q 229 425 217 437 q 260 412 241 412 l 608 412 m 174 0 q 50 50 102 0 q 0 174 0 100 l 0 521 q 50 643 0 591 q 174 694 100 694 l 694 694 q 817 643 765 694 q 868 521 868 593 l 868 434 q 817 311 868 362 q 694 260 766 260 l 260 260 q 229 247 241 260 q 217 217 217 235 q 229 186 217 198 q 260 174 241 174 l 825 174 l 825 0 l 174 0 m 217 738 l 217 911 l 391 911 l 391 738 l 217 738 m 477 738 l 477 911 l 651 911 l 651 738 l 477 738 z "},"ѓ":{"ha":518,"x_min":0,"x_max":434,"o":"m 0 0 l 0 694 l 434 694 l 434 521 l 304 521 q 241 495 267 521 q 217 434 217 469 l 217 0 l 0 0 m 87 738 l 130 911 l 391 911 l 217 738 l 87 738 z "},"є":{"ha":952,"x_min":0,"x_max":868,"o":"m 174 0 q 50 50 102 0 q 0 174 0 100 l 0 521 q 50 643 0 591 q 174 694 100 694 l 868 694 l 868 521 l 260 521 q 229 507 241 521 q 217 477 217 495 q 229 446 217 458 q 260 434 241 434 l 846 434 l 846 260 l 260 260 q 229 247 241 260 q 217 217 217 235 q 229 186 217 198 q 260 174 241 174 l 868 174 l 868 0 l 174 0 z "},"ѕ":{"ha":952,"x_min":0,"x_max":868,"o":"m 0 0 l 0 174 l 586 174 q 616 186 604 174 q 629 217 629 198 q 616 247 629 235 q 586 260 604 260 l 174 260 q 50 311 102 260 q 0 434 0 361 l 0 521 q 50 643 0 593 q 174 694 102 694 l 846 694 l 846 521 l 260 521 q 229 507 241 521 q 217 477 217 495 q 229 446 217 458 q 260 434 241 434 l 694 434 q 817 382 766 434 q 868 260 868 331 l 868 174 q 817 50 868 100 q 694 0 765 0 l 0 0 z "},"і":{"ha":345,"x_min":22,"x_max":239,"o":"m 22 0 l 22 694 l 239 694 l 239 0 l 22 0 z "},"ї":{"ha":345,"x_min":-87,"x_max":347,"o":"m 22 0 l 22 694 l 239 694 l 239 0 l 22 0 m -87 738 l -87 911 l 87 911 l 87 738 l -87 738 m 174 738 l 174 911 l 347 911 l 347 738 l 174 738 z "},"ј":{"ha":345,"x_min":-22,"x_max":239,"o":"m -22 -152 q 8 -126 -3 -152 q 22 -65 22 -100 l 22 694 l 239 694 l 239 22 q 187 -100 239 -50 q 65 -152 136 -152 l -22 -152 m 22 738 l 22 825 l 239 825 l 239 738 l 22 738 z "},"љ":{"ha":1560,"x_min":0,"x_max":1476,"o":"m 1194 174 q 1255 198 1229 174 q 1279 248 1276 220 q 1255 300 1276 278 q 1194 326 1229 326 l 868 326 q 837 312 849 326 q 825 282 825 300 l 825 217 q 837 186 825 198 q 868 174 849 174 l 1194 174 m 0 0 l 0 174 l 43 174 q 73 186 61 174 q 87 217 87 198 l 87 521 q 137 643 87 593 q 260 694 189 694 l 825 694 l 825 543 q 837 511 825 524 q 868 499 849 499 l 1302 499 q 1424 448 1373 499 q 1474 347 1468 404 l 1476 347 l 1476 174 q 1424 50 1476 100 q 1302 0 1373 0 l 608 0 l 608 477 q 594 507 608 495 q 564 521 582 521 l 391 521 q 328 495 354 521 q 304 434 304 469 l 304 174 q 252 50 304 100 q 174 4 217 15 l 174 0 l 0 0 z "},"њ":{"ha":1560,"x_min":0,"x_max":1476,"o":"m 1194 174 q 1255 198 1229 174 q 1279 248 1276 220 q 1255 300 1276 278 q 1194 326 1229 326 l 868 326 q 837 312 849 326 q 825 282 825 300 l 825 217 q 837 186 825 198 q 868 174 849 174 l 1194 174 m 0 0 l 0 694 l 217 694 l 217 477 q 229 446 217 458 q 260 434 241 434 l 564 434 q 594 446 582 434 q 608 477 608 458 l 608 694 l 825 694 l 825 543 q 837 511 825 524 q 868 499 849 499 l 1302 499 q 1424 448 1373 499 q 1474 347 1468 404 l 1476 347 l 1476 174 q 1424 50 1476 100 q 1302 0 1373 0 l 608 0 l 608 217 q 594 247 608 235 q 564 260 582 260 l 260 260 q 229 247 241 260 q 217 217 217 235 l 217 0 l 0 0 z "},"ќ":{"ha":952,"x_min":0,"x_max":868,"o":"m 0 0 l 0 694 l 217 694 l 217 412 q 229 381 217 393 q 260 369 241 369 l 564 369 q 625 393 600 369 q 651 456 651 419 l 651 694 l 868 694 l 868 347 l 867 347 q 817 245 860 289 q 762 209 792 221 l 868 0 l 651 0 l 553 195 l 260 195 q 229 182 241 195 q 217 152 217 170 l 217 0 l 0 0 m 304 738 l 347 911 l 608 911 l 434 738 l 304 738 z "},"ѝ":{"ha":952,"x_min":0,"x_max":868,"o":"m 0 0 l 0 694 l 217 694 l 217 239 q 229 208 217 220 q 250 195 237 198 l 456 608 q 484 643 468 627 q 608 694 536 694 l 868 694 l 868 0 l 651 0 l 651 456 q 637 486 651 473 q 617 498 629 495 l 412 87 l 411 87 q 382 50 399 66 q 260 0 331 0 l 0 0 m 412 738 l 239 911 l 499 911 l 543 738 l 412 738 z "},"ў":{"ha":952,"x_min":0,"x_max":868,"o":"m 543 -130 l 598 -16 q 594 -12 597 -14 q 564 0 582 0 l 174 0 q 50 50 102 0 q 0 174 0 100 l 0 694 l 217 694 l 217 260 q 241 198 217 224 q 304 174 267 174 l 564 174 q 625 198 600 174 q 651 260 651 224 l 651 694 l 868 694 l 868 130 q 845 43 868 81 l 846 43 l 760 -130 l 543 -130 m 391 738 q 289 788 332 745 q 239 911 239 840 l 369 911 q 393 849 369 875 q 434 826 411 831 q 473 849 456 831 q 499 911 499 875 l 629 911 q 578 788 629 840 q 477 738 534 745 l 391 738 z "},"џ":{"ha":952,"x_min":0,"x_max":868,"o":"m 347 -130 l 347 -43 q 334 -12 347 -24 q 304 0 321 0 l 174 0 q 50 50 102 0 q 0 174 0 100 l 0 694 l 217 694 l 217 260 q 241 198 217 224 q 304 174 267 174 l 608 174 q 637 186 625 174 q 651 217 651 198 l 651 694 l 868 694 l 868 0 l 608 0 q 576 -12 589 0 q 564 -43 564 -24 l 564 -130 l 347 -130 z "},"Ѳ":{"ha":952,"x_min":0,"x_max":868,"o":"m 564 174 q 625 198 600 174 q 651 260 651 224 l 651 282 l 217 282 l 217 260 q 241 198 217 224 q 304 174 267 174 l 564 174 m 651 412 l 651 434 q 625 495 651 469 q 564 521 600 521 l 304 521 q 241 495 267 521 q 217 434 217 469 l 217 412 l 651 412 m 174 0 q 50 50 102 0 q 0 174 0 100 l 0 521 q 50 643 0 593 q 174 694 102 694 l 694 694 q 817 643 765 694 q 868 521 868 593 l 868 174 q 817 50 868 100 q 694 0 765 0 l 174 0 z "},"ѳ":{"ha":952,"x_min":0,"x_max":868,"o":"m 564 174 q 625 198 600 174 q 651 260 651 224 l 651 282 l 217 282 l 217 260 q 241 198 217 224 q 304 174 267 174 l 564 174 m 651 412 l 651 434 q 625 495 651 469 q 564 521 600 521 l 304 521 q 241 495 267 521 q 217 434 217 469 l 217 412 l 651 412 m 174 0 q 50 50 102 0 q 0 174 0 100 l 0 521 q 50 643 0 593 q 174 694 102 694 l 694 694 q 817 643 765 694 q 868 521 868 593 l 868 174 q 817 50 868 100 q 694 0 765 0 l 174 0 z "},"Ү":{"ha":952,"x_min":0,"x_max":868,"o":"m 326 0 l 326 152 q 312 182 326 170 q 282 195 300 195 l 152 195 l 151 195 q 50 245 94 202 q 0 369 0 296 l 0 694 l 217 694 l 217 456 q 241 393 217 419 q 304 369 267 369 l 564 369 q 625 393 600 369 q 651 456 651 419 l 651 694 l 868 694 l 868 369 q 817 245 868 296 q 716 195 773 202 l 586 195 q 555 182 567 195 q 543 152 543 170 l 543 0 l 326 0 z "},"ү":{"ha":952,"x_min":0,"x_max":868,"o":"m 326 0 l 326 152 q 312 182 326 170 q 282 195 300 195 l 152 195 l 151 195 q 50 245 94 202 q 0 369 0 296 l 0 694 l 217 694 l 217 456 q 241 393 217 419 q 304 369 267 369 l 564 369 q 625 393 600 369 q 651 456 651 419 l 651 694 l 868 694 l 868 369 q 817 245 868 296 q 716 195 773 202 l 586 195 q 555 182 567 195 q 543 152 543 170 l 543 0 l 326 0 z "},"Ұ":{"ha":952,"x_min":0,"x_max":868,"o":"m 326 0 l 326 109 l 130 109 l 130 282 l 326 282 l 326 304 q 312 334 326 321 q 282 347 300 347 l 152 347 l 151 347 q 50 397 94 354 q 0 521 0 448 l 0 694 l 217 694 l 217 608 q 241 545 217 571 q 304 521 267 521 l 564 521 q 625 545 600 521 q 651 608 651 571 l 651 694 l 868 694 l 868 521 q 817 397 868 448 q 716 347 773 354 l 586 347 q 555 334 567 347 q 543 304 543 321 l 543 282 l 738 282 l 738 109 l 543 109 l 543 0 l 326 0 z "},"ұ":{"ha":952,"x_min":0,"x_max":868,"o":"m 326 0 l 326 109 l 130 109 l 130 282 l 326 282 l 326 304 q 312 334 326 321 q 282 347 300 347 l 152 347 l 151 347 q 50 397 94 354 q 0 521 0 448 l 0 694 l 217 694 l 217 608 q 241 545 217 571 q 304 521 267 521 l 564 521 q 625 545 600 521 q 651 608 651 571 l 651 694 l 868 694 l 868 521 q 817 397 868 448 q 716 347 773 354 l 586 347 q 555 334 567 347 q 543 304 543 321 l 543 282 l 738 282 l 738 109 l 543 109 l 543 0 l 326 0 z "},"Ӏ":{"ha":345,"x_min":22,"x_max":239,"o":"m 22 0 l 22 694 l 239 694 l 239 0 l 22 0 z "},"Ӂ":{"ha":1213,"x_min":0,"x_max":1128,"o":"m 0 0 l 0 217 q 50 339 0 288 q 69 357 60 349 q 22 477 22 407 l 22 694 l 260 694 l 260 477 q 273 446 260 458 q 304 434 285 434 l 412 434 q 442 446 430 434 q 456 477 456 458 l 456 694 l 673 694 l 673 477 q 685 446 673 458 q 716 434 697 434 l 825 434 q 854 446 842 434 q 868 477 868 458 l 868 694 l 1107 694 l 1107 477 q 1058 357 1107 407 q 1077 339 1067 349 q 1128 217 1128 288 l 1128 0 l 890 0 l 890 217 q 876 247 890 235 q 846 260 864 260 l 716 260 q 685 247 697 260 q 673 217 673 235 l 673 0 l 456 0 l 456 217 q 442 247 456 235 q 412 260 430 260 l 282 260 q 251 247 263 260 q 239 217 239 235 l 239 0 l 0 0 m 521 738 q 419 788 463 745 q 369 911 369 840 l 499 911 q 524 849 499 875 q 564 826 541 831 q 604 849 586 831 q 629 911 629 875 l 760 911 q 708 788 760 840 q 608 738 665 745 l 521 738 z "},"ӂ":{"ha":1213,"x_min":0,"x_max":1128,"o":"m 0 0 l 0 217 q 50 339 0 288 q 69 357 60 349 q 22 477 22 407 l 22 694 l 260 694 l 260 477 q 273 446 260 458 q 304 434 285 434 l 412 434 q 442 446 430 434 q 456 477 456 458 l 456 694 l 673 694 l 673 477 q 685 446 673 458 q 716 434 697 434 l 825 434 q 854 446 842 434 q 868 477 868 458 l 868 694 l 1107 694 l 1107 477 q 1058 357 1107 407 q 1077 339 1067 349 q 1128 217 1128 288 l 1128 0 l 890 0 l 890 217 q 876 247 890 235 q 846 260 864 260 l 716 260 q 685 247 697 260 q 673 217 673 235 l 673 0 l 456 0 l 456 217 q 442 247 456 235 q 412 260 430 260 l 282 260 q 251 247 263 260 q 239 217 239 235 l 239 0 l 0 0 m 521 738 q 419 788 463 745 q 369 911 369 840 l 499 911 q 524 849 499 875 q 564 826 541 831 q 604 849 586 831 q 629 911 629 875 l 760 911 q 708 788 760 840 q 608 738 665 745 l 521 738 z "},"ӏ":{"ha":345,"x_min":22,"x_max":239,"o":"m 22 0 l 22 694 l 239 694 l 239 0 l 22 0 z "},"Ӑ":{"ha":952,"x_min":0,"x_max":868,"o":"m 651 369 l 651 434 q 625 495 651 469 q 564 521 600 521 l 304 521 q 241 495 267 521 q 217 434 217 469 l 217 369 l 651 369 m 0 0 l 0 521 q 50 643 0 593 q 174 694 102 694 l 694 694 q 817 643 766 694 q 868 521 868 591 l 868 0 l 651 0 l 651 195 l 217 195 l 217 0 l 0 0 m 391 738 q 289 788 332 745 q 239 911 239 840 l 369 911 q 393 849 369 875 q 434 826 411 831 q 473 849 456 831 q 499 911 499 875 l 629 911 q 578 788 629 840 q 477 738 534 745 l 391 738 z "},"ӑ":{"ha":952,"x_min":0,"x_max":868,"o":"m 608 174 q 637 186 625 174 q 651 217 651 198 l 651 239 q 637 269 651 256 q 608 282 625 282 l 260 282 q 229 269 241 282 q 217 239 217 256 l 217 217 q 229 186 217 198 q 260 174 241 174 l 608 174 m 174 0 q 50 50 102 0 q 0 174 0 100 l 0 260 q 50 382 0 331 q 174 434 100 434 l 608 434 q 637 446 625 434 q 651 477 651 458 q 637 507 651 495 q 608 521 625 521 l 43 521 l 43 694 l 694 694 q 817 643 765 694 q 868 521 868 593 l 868 174 q 817 50 868 102 q 694 0 766 0 l 174 0 m 391 738 q 289 788 332 745 q 239 911 239 840 l 369 911 q 393 849 369 875 q 434 826 411 831 q 473 849 456 831 q 499 911 499 875 l 629 911 q 578 788 629 840 q 477 738 534 745 l 391 738 z "},"Ӓ":{"ha":952,"x_min":0,"x_max":868,"o":"m 651 369 l 651 434 q 625 495 651 469 q 564 521 600 521 l 304 521 q 241 495 267 521 q 217 434 217 469 l 217 369 l 651 369 m 0 0 l 0 521 q 50 643 0 593 q 174 694 102 694 l 694 694 q 817 643 766 694 q 868 521 868 591 l 868 0 l 651 0 l 651 195 l 217 195 l 217 0 l 0 0 m 217 738 l 217 911 l 391 911 l 391 738 l 217 738 m 477 738 l 477 911 l 651 911 l 651 738 l 477 738 z "},"ӓ":{"ha":952,"x_min":0,"x_max":868,"o":"m 608 174 q 637 186 625 174 q 651 217 651 198 l 651 239 q 637 269 651 256 q 608 282 625 282 l 260 282 q 229 269 241 282 q 217 239 217 256 l 217 217 q 229 186 217 198 q 260 174 241 174 l 608 174 m 174 0 q 50 50 102 0 q 0 174 0 100 l 0 260 q 50 382 0 331 q 174 434 100 434 l 608 434 q 637 446 625 434 q 651 477 651 458 q 637 507 651 495 q 608 521 625 521 l 43 521 l 43 694 l 694 694 q 817 643 765 694 q 868 521 868 593 l 868 174 q 817 50 868 102 q 694 0 766 0 l 174 0 m 217 738 l 217 911 l 391 911 l 391 738 l 217 738 m 477 738 l 477 911 l 651 911 l 651 738 l 477 738 z "},"Ӕ":{"ha":1473,"x_min":22,"x_max":1389,"o":"m 564 347 q 594 359 582 347 q 608 391 608 372 l 608 477 q 594 507 608 495 q 564 521 582 521 l 521 521 q 494 511 506 521 l 420 363 q 425 359 422 361 q 456 347 437 347 l 564 347 m 22 0 l 326 608 q 354 643 338 627 q 456 693 397 686 l 456 694 l 1389 694 l 1389 521 l 846 521 q 815 507 827 521 q 803 477 803 495 q 815 446 803 458 q 846 434 827 434 l 1367 434 l 1367 260 l 846 260 q 815 247 827 260 q 803 217 803 235 q 815 186 803 198 q 846 174 827 174 l 1389 174 l 1389 0 l 781 0 q 658 50 709 0 q 608 174 608 100 l 608 130 q 594 160 608 148 q 564 174 582 174 l 347 174 q 320 164 332 174 l 239 0 l 22 0 z "},"ӕ":{"ha":1386,"x_min":0,"x_max":1302,"o":"m 521 174 q 551 186 538 174 q 564 217 564 198 l 564 239 q 551 269 564 256 q 521 282 538 282 l 260 282 q 229 269 241 282 q 217 239 217 256 l 217 217 q 229 186 217 198 q 260 174 241 174 l 521 174 m 1042 412 q 1072 425 1059 412 q 1085 456 1085 437 l 1085 477 q 1072 507 1085 495 q 1042 521 1059 521 l 781 521 q 750 507 762 521 q 738 477 738 495 l 738 456 q 750 425 738 437 q 781 412 762 412 l 1042 412 m 174 0 q 50 50 102 0 q 0 174 0 100 l 0 260 q 50 382 0 331 q 174 434 100 434 l 521 434 q 551 446 538 434 q 564 477 564 458 q 551 507 564 495 q 521 521 538 521 l 43 521 l 43 694 l 1128 694 q 1251 643 1199 694 q 1302 521 1302 593 l 1302 434 q 1251 311 1302 362 q 1128 260 1200 260 l 781 260 q 750 247 762 260 q 738 217 738 235 q 750 186 738 198 q 781 174 762 174 l 1259 174 l 1259 0 l 174 0 z "},"Ӗ":{"ha":865,"x_min":0,"x_max":781,"o":"m 174 0 q 50 50 102 0 q 0 174 0 100 l 0 694 l 781 694 l 781 521 l 260 521 q 229 507 241 521 q 217 477 217 495 q 229 446 217 458 q 260 434 241 434 l 760 434 l 760 260 l 260 260 q 229 247 241 260 q 217 217 217 235 q 229 186 217 198 q 260 174 241 174 l 781 174 l 781 0 l 174 0 m 347 738 l 346 738 q 245 788 289 745 q 195 911 195 840 l 326 911 q 350 849 326 875 q 391 826 368 831 q 430 849 412 831 q 456 911 456 875 l 586 911 q 534 788 586 840 q 434 738 491 745 l 347 738 z "},"ӗ":{"ha":952,"x_min":0,"x_max":868,"o":"m 608 412 q 637 425 625 412 q 651 456 651 437 l 651 477 q 637 507 651 495 q 608 521 625 521 l 260 521 q 229 507 241 521 q 217 477 217 495 l 217 456 q 229 425 217 437 q 260 412 241 412 l 608 412 m 174 0 q 50 50 102 0 q 0 174 0 100 l 0 521 q 50 643 0 591 q 174 694 100 694 l 694 694 q 817 643 765 694 q 868 521 868 593 l 868 412 q 817 289 868 340 q 694 239 766 239 l 260 239 q 229 225 241 239 q 217 206 220 217 q 229 186 220 194 q 260 174 241 174 l 825 174 l 825 0 l 174 0 m 391 738 q 289 788 332 745 q 239 911 239 840 l 369 911 q 393 849 369 875 q 434 826 411 831 q 473 849 456 831 q 499 911 499 875 l 629 911 q 578 788 629 840 q 477 738 534 745 l 391 738 z "},"Ә":{"ha":952,"x_min":0,"x_max":868,"o":"m 608 174 q 637 186 625 174 q 651 217 651 198 l 651 239 q 637 269 651 256 q 608 282 625 282 l 260 282 q 229 269 241 282 q 217 239 217 256 l 217 217 q 229 186 217 198 q 260 174 241 174 l 608 174 m 174 0 q 50 50 102 0 q 0 174 0 100 l 0 282 q 50 404 0 353 q 174 456 100 456 l 608 456 q 637 468 625 456 q 650 488 647 476 q 637 507 647 499 q 608 521 625 521 l 43 521 l 43 694 l 694 694 q 817 643 765 694 q 868 521 868 593 l 868 174 q 817 50 868 102 q 694 0 766 0 l 174 0 z "},"ә":{"ha":952,"x_min":0,"x_max":868,"o":"m 608 174 q 637 186 625 174 q 651 217 651 198 l 651 239 q 637 269 651 256 q 608 282 625 282 l 260 282 q 229 269 241 282 q 217 239 217 256 l 217 217 q 229 186 217 198 q 260 174 241 174 l 608 174 m 174 0 q 50 50 102 0 q 0 174 0 100 l 0 282 q 50 404 0 353 q 174 456 100 456 l 608 456 q 637 468 625 456 q 650 488 647 476 q 637 507 647 499 q 608 521 625 521 l 43 521 l 43 694 l 694 694 q 817 643 765 694 q 868 521 868 593 l 868 174 q 817 50 868 102 q 694 0 766 0 l 174 0 z "},"Ӛ":{"ha":952,"x_min":0,"x_max":868,"o":"m 608 174 q 637 186 625 174 q 651 217 651 198 l 651 239 q 637 269 651 256 q 608 282 625 282 l 260 282 q 229 269 241 282 q 217 239 217 256 l 217 217 q 229 186 217 198 q 260 174 241 174 l 608 174 m 174 0 q 50 50 102 0 q 0 174 0 100 l 0 282 q 50 404 0 353 q 174 456 100 456 l 608 456 q 637 468 625 456 q 650 488 647 476 q 637 507 647 499 q 608 521 625 521 l 43 521 l 43 694 l 694 694 q 817 643 765 694 q 868 521 868 593 l 868 174 q 817 50 868 102 q 694 0 766 0 l 174 0 m 217 738 l 217 911 l 391 911 l 391 738 l 217 738 m 477 738 l 477 911 l 651 911 l 651 738 l 477 738 z "},"ӛ":{"ha":952,"x_min":0,"x_max":868,"o":"m 608 174 q 637 186 625 174 q 651 217 651 198 l 651 239 q 637 269 651 256 q 608 282 625 282 l 260 282 q 229 269 241 282 q 217 239 217 256 l 217 217 q 229 186 217 198 q 260 174 241 174 l 608 174 m 174 0 q 50 50 102 0 q 0 174 0 100 l 0 282 q 50 404 0 353 q 174 456 100 456 l 608 456 q 637 468 625 456 q 650 488 647 476 q 637 507 647 499 q 608 521 625 521 l 43 521 l 43 694 l 694 694 q 817 643 765 694 q 868 521 868 593 l 868 174 q 817 50 868 102 q 694 0 766 0 l 174 0 m 217 738 l 217 911 l 391 911 l 391 738 l 217 738 m 477 738 l 477 911 l 651 911 l 651 738 l 477 738 z "},"Ӝ":{"ha":1213,"x_min":0,"x_max":1128,"o":"m 0 0 l 0 217 q 50 339 0 288 q 69 357 60 349 q 22 477 22 407 l 22 694 l 260 694 l 260 477 q 273 446 260 458 q 304 434 285 434 l 412 434 q 442 446 430 434 q 456 477 456 458 l 456 694 l 673 694 l 673 477 q 685 446 673 458 q 716 434 697 434 l 825 434 q 854 446 842 434 q 868 477 868 458 l 868 694 l 1107 694 l 1107 477 q 1058 357 1107 407 q 1077 339 1067 349 q 1128 217 1128 288 l 1128 0 l 890 0 l 890 217 q 876 247 890 235 q 846 260 864 260 l 716 260 q 685 247 697 260 q 673 217 673 235 l 673 0 l 456 0 l 456 217 q 442 247 456 235 q 412 260 430 260 l 282 260 q 251 247 263 260 q 239 217 239 235 l 239 0 l 0 0 m 347 738 l 347 911 l 521 911 l 521 738 l 347 738 m 608 738 l 608 911 l 781 911 l 781 738 l 608 738 z "},"ӝ":{"ha":1213,"x_min":0,"x_max":1128,"o":"m 0 0 l 0 217 q 50 339 0 288 q 69 357 60 349 q 22 477 22 407 l 22 694 l 260 694 l 260 477 q 273 446 260 458 q 304 434 285 434 l 412 434 q 442 446 430 434 q 456 477 456 458 l 456 694 l 673 694 l 673 477 q 685 446 673 458 q 716 434 697 434 l 825 434 q 854 446 842 434 q 868 477 868 458 l 868 694 l 1107 694 l 1107 477 q 1058 357 1107 407 q 1077 339 1067 349 q 1128 217 1128 288 l 1128 0 l 890 0 l 890 217 q 876 247 890 235 q 846 260 864 260 l 716 260 q 685 247 697 260 q 673 217 673 235 l 673 0 l 456 0 l 456 217 q 442 247 456 235 q 412 260 430 260 l 282 260 q 251 247 263 260 q 239 217 239 235 l 239 0 l 0 0 m 347 738 l 347 911 l 521 911 l 521 738 l 347 738 m 608 738 l 608 911 l 781 911 l 781 738 l 608 738 z "},"Ӟ":{"ha":952,"x_min":0,"x_max":868,"o":"m 174 0 q 50 50 100 0 q 0 174 0 102 l 0 260 l 217 260 l 217 217 q 229 186 217 198 q 260 174 241 174 l 586 174 q 616 186 604 174 q 629 217 629 198 q 616 247 629 235 q 586 260 604 260 l 282 260 l 282 434 l 586 434 q 616 446 604 434 q 629 477 629 458 q 616 507 629 495 q 586 521 604 521 l 260 521 q 229 507 241 521 q 217 477 217 495 l 217 434 l 0 434 l 0 521 q 50 643 0 593 q 174 694 102 694 l 673 694 q 795 643 745 694 q 846 521 846 591 l 846 477 q 798 357 846 407 q 817 339 807 349 q 868 217 868 288 l 868 174 q 817 50 868 100 q 694 0 765 0 l 174 0 m 217 738 l 217 911 l 391 911 l 391 738 l 217 738 m 477 738 l 477 911 l 651 911 l 651 738 l 477 738 z "},"ӟ":{"ha":952,"x_min":0,"x_max":868,"o":"m 174 0 q 50 50 100 0 q 0 174 0 102 l 0 260 l 217 260 l 217 217 q 229 186 217 198 q 260 174 241 174 l 586 174 q 616 186 604 174 q 629 217 629 198 q 616 247 629 235 q 586 260 604 260 l 282 260 l 282 434 l 586 434 q 616 446 604 434 q 629 477 629 458 q 616 507 629 495 q 586 521 604 521 l 260 521 q 229 507 241 521 q 217 477 217 495 l 217 434 l 0 434 l 0 521 q 50 643 0 593 q 174 694 102 694 l 673 694 q 795 643 745 694 q 846 521 846 591 l 846 477 q 798 357 846 407 q 817 339 807 349 q 868 217 868 288 l 868 174 q 817 50 868 100 q 694 0 765 0 l 174 0 m 217 738 l 217 911 l 391 911 l 391 738 l 217 738 m 477 738 l 477 911 l 651 911 l 651 738 l 477 738 z "},"Ӡ":{"ha":952,"x_min":0,"x_max":868,"o":"m 0 0 l 0 174 l 586 174 q 616 186 604 174 q 629 217 629 198 q 616 247 629 235 q 586 260 604 260 l 22 260 l 22 434 l 586 434 q 616 446 604 434 q 629 477 629 458 q 616 507 629 495 q 586 521 604 521 l 0 521 l 0 694 l 846 694 l 846 477 q 798 357 846 407 q 817 339 807 349 q 868 217 868 288 l 868 174 q 817 50 868 100 q 694 0 765 0 l 0 0 z "},"ӡ":{"ha":952,"x_min":0,"x_max":868,"o":"m 0 0 l 0 174 l 586 174 q 616 186 604 174 q 629 217 629 198 q 616 247 629 235 q 586 260 604 260 l 22 260 l 22 434 l 586 434 q 616 446 604 434 q 629 477 629 458 q 616 507 629 495 q 586 521 604 521 l 0 521 l 0 694 l 846 694 l 846 477 q 798 357 846 407 q 817 339 807 349 q 868 217 868 288 l 868 174 q 817 50 868 100 q 694 0 765 0 l 0 0 z "},"Ӣ":{"ha":952,"x_min":0,"x_max":868,"o":"m 0 0 l 0 694 l 217 694 l 217 239 q 229 208 217 220 q 250 195 237 198 l 456 608 q 484 643 468 627 q 608 694 536 694 l 868 694 l 868 0 l 651 0 l 651 456 q 637 486 651 473 q 617 498 629 495 l 412 87 l 411 87 q 382 50 399 66 q 260 0 331 0 l 0 0 m 217 738 l 217 911 l 651 911 l 651 738 l 217 738 z "},"ӣ":{"ha":952,"x_min":0,"x_max":868,"o":"m 0 0 l 0 694 l 217 694 l 217 239 q 229 208 217 220 q 250 195 237 198 l 456 608 q 484 643 468 627 q 608 694 536 694 l 868 694 l 868 0 l 651 0 l 651 456 q 637 486 651 473 q 617 498 629 495 l 412 87 l 411 87 q 382 50 399 66 q 260 0 331 0 l 0 0 m 217 738 l 217 911 l 651 911 l 651 738 l 217 738 z "},"Ӥ":{"ha":952,"x_min":0,"x_max":868,"o":"m 0 0 l 0 694 l 217 694 l 217 239 q 229 208 217 220 q 250 195 237 198 l 456 608 q 484 643 468 627 q 608 694 536 694 l 868 694 l 868 0 l 651 0 l 651 456 q 637 486 651 473 q 617 498 629 495 l 412 87 l 411 87 q 382 50 399 66 q 260 0 331 0 l 0 0 m 217 738 l 217 911 l 391 911 l 391 738 l 217 738 m 477 738 l 477 911 l 651 911 l 651 738 l 477 738 z "},"ӥ":{"ha":952,"x_min":0,"x_max":868,"o":"m 0 0 l 0 694 l 217 694 l 217 239 q 229 208 217 220 q 250 195 237 198 l 456 608 q 484 643 468 627 q 608 694 536 694 l 868 694 l 868 0 l 651 0 l 651 456 q 637 486 651 473 q 617 498 629 495 l 412 87 l 411 87 q 382 50 399 66 q 260 0 331 0 l 0 0 m 217 738 l 217 911 l 391 911 l 391 738 l 217 738 m 477 738 l 477 911 l 651 911 l 651 738 l 477 738 z "},"Ӧ":{"ha":952,"x_min":0,"x_max":868,"o":"m 564 174 q 625 198 600 174 q 651 260 651 224 l 651 434 q 625 495 651 469 q 564 521 600 521 l 304 521 q 241 495 267 521 q 217 434 217 469 l 217 260 q 241 198 217 224 q 304 174 267 174 l 564 174 m 174 0 q 50 50 102 0 q 0 174 0 100 l 0 521 q 50 643 0 593 q 174 694 102 694 l 694 694 q 817 643 765 694 q 868 521 868 593 l 868 174 q 817 50 868 100 q 694 0 765 0 l 174 0 m 217 738 l 217 911 l 391 911 l 391 738 l 217 738 m 477 738 l 477 911 l 651 911 l 651 738 l 477 738 z "},"ӧ":{"ha":952,"x_min":0,"x_max":868,"o":"m 564 174 q 625 198 600 174 q 651 260 651 224 l 651 434 q 625 495 651 469 q 564 521 600 521 l 304 521 q 241 495 267 521 q 217 434 217 469 l 217 260 q 241 198 217 224 q 304 174 267 174 l 564 174 m 174 0 q 50 50 102 0 q 0 174 0 100 l 0 521 q 50 643 0 593 q 174 694 102 694 l 694 694 q 817 643 765 694 q 868 521 868 593 l 868 174 q 817 50 868 100 q 694 0 765 0 l 174 0 m 217 738 l 217 911 l 391 911 l 391 738 l 217 738 m 477 738 l 477 911 l 651 911 l 651 738 l 477 738 z "},"Ө":{"ha":952,"x_min":0,"x_max":868,"o":"m 564 174 q 625 198 600 174 q 651 260 651 224 l 651 282 l 217 282 l 217 260 q 241 198 217 224 q 304 174 267 174 l 564 174 m 651 412 l 651 434 q 625 495 651 469 q 564 521 600 521 l 304 521 q 241 495 267 521 q 217 434 217 469 l 217 412 l 651 412 m 174 0 q 50 50 102 0 q 0 174 0 100 l 0 521 q 50 643 0 593 q 174 694 102 694 l 694 694 q 817 643 765 694 q 868 521 868 593 l 868 174 q 817 50 868 100 q 694 0 765 0 l 174 0 z "},"ө":{"ha":952,"x_min":0,"x_max":868,"o":"m 564 174 q 625 198 600 174 q 651 260 651 224 l 651 282 l 217 282 l 217 260 q 241 198 217 224 q 304 174 267 174 l 564 174 m 651 412 l 651 434 q 625 495 651 469 q 564 521 600 521 l 304 521 q 241 495 267 521 q 217 434 217 469 l 217 412 l 651 412 m 174 0 q 50 50 102 0 q 0 174 0 100 l 0 521 q 50 643 0 593 q 174 694 102 694 l 694 694 q 817 643 765 694 q 868 521 868 593 l 868 174 q 817 50 868 100 q 694 0 765 0 l 174 0 z "},"Ӫ":{"ha":952,"x_min":0,"x_max":868,"o":"m 564 174 q 625 198 600 174 q 651 260 651 224 l 651 282 l 217 282 l 217 260 q 241 198 217 224 q 304 174 267 174 l 564 174 m 651 412 l 651 434 q 625 495 651 469 q 564 521 600 521 l 304 521 q 241 495 267 521 q 217 434 217 469 l 217 412 l 651 412 m 174 0 q 50 50 102 0 q 0 174 0 100 l 0 521 q 50 643 0 593 q 174 694 102 694 l 694 694 q 817 643 765 694 q 868 521 868 593 l 868 174 q 817 50 868 100 q 694 0 765 0 l 174 0 m 217 738 l 217 911 l 391 911 l 391 738 l 217 738 m 477 738 l 477 911 l 651 911 l 651 738 l 477 738 z "},"ӫ":{"ha":952,"x_min":0,"x_max":868,"o":"m 564 174 q 625 198 600 174 q 651 260 651 224 l 651 282 l 217 282 l 217 260 q 241 198 217 224 q 304 174 267 174 l 564 174 m 651 412 l 651 434 q 625 495 651 469 q 564 521 600 521 l 304 521 q 241 495 267 521 q 217 434 217 469 l 217 412 l 651 412 m 174 0 q 50 50 102 0 q 0 174 0 100 l 0 521 q 50 643 0 593 q 174 694 102 694 l 694 694 q 817 643 765 694 q 868 521 868 593 l 868 174 q 817 50 868 100 q 694 0 765 0 l 174 0 m 217 738 l 217 911 l 391 911 l 391 738 l 217 738 m 477 738 l 477 911 l 651 911 l 651 738 l 477 738 z "},"Ӭ":{"ha":952,"x_min":0,"x_max":868,"o":"m 0 0 l 0 174 l 608 174 q 637 186 625 174 q 651 217 651 198 q 637 247 651 235 q 608 260 625 260 l 22 260 l 22 434 l 608 434 q 637 446 625 434 q 651 477 651 458 q 637 507 651 495 q 608 521 625 521 l 0 521 l 0 694 l 694 694 q 817 643 766 694 q 868 521 868 591 l 868 174 q 817 50 868 100 q 694 0 765 0 l 0 0 m 217 738 l 217 911 l 391 911 l 391 738 l 217 738 m 477 738 l 477 911 l 651 911 l 651 738 l 477 738 z "},"ӭ":{"ha":952,"x_min":0,"x_max":868,"o":"m 0 0 l 0 174 l 608 174 q 637 186 625 174 q 651 217 651 198 q 637 247 651 235 q 608 260 625 260 l 22 260 l 22 434 l 608 434 q 637 446 625 434 q 651 477 651 458 q 637 507 651 495 q 608 521 625 521 l 0 521 l 0 694 l 694 694 q 817 643 766 694 q 868 521 868 591 l 868 174 q 817 50 868 100 q 694 0 765 0 l 0 0 m 217 738 l 217 911 l 391 911 l 391 738 l 217 738 m 477 738 l 477 911 l 651 911 l 651 738 l 477 738 z "},"Ӯ":{"ha":952,"x_min":0,"x_max":868,"o":"m 499 0 l 582 167 q 572 182 579 175 q 543 195 560 195 l 174 195 q 50 245 102 195 q 0 369 0 296 l 0 694 l 217 694 l 217 456 q 241 393 217 419 q 304 369 267 369 l 564 369 q 625 393 600 369 q 651 456 651 419 l 651 694 l 868 694 l 868 347 q 845 260 868 298 l 846 260 l 716 0 l 499 0 m 217 738 l 217 911 l 651 911 l 651 738 l 217 738 z "},"ӯ":{"ha":952,"x_min":0,"x_max":868,"o":"m 543 -130 l 598 -16 q 594 -12 597 -14 q 564 0 582 0 l 174 0 q 50 50 102 0 q 0 174 0 100 l 0 694 l 217 694 l 217 260 q 241 198 217 224 q 304 174 267 174 l 564 174 q 625 198 600 174 q 651 260 651 224 l 651 694 l 868 694 l 868 130 q 845 43 868 81 l 846 43 l 760 -130 l 543 -130 m 217 738 l 217 911 l 651 911 l 651 738 l 217 738 z "},"Ӱ":{"ha":952,"x_min":0,"x_max":868,"o":"m 499 0 l 582 167 q 572 182 579 175 q 543 195 560 195 l 174 195 q 50 245 102 195 q 0 369 0 296 l 0 694 l 217 694 l 217 456 q 241 393 217 419 q 304 369 267 369 l 564 369 q 625 393 600 369 q 651 456 651 419 l 651 694 l 868 694 l 868 347 q 845 260 868 298 l 846 260 l 716 0 l 499 0 m 217 738 l 217 911 l 391 911 l 391 738 l 217 738 m 477 738 l 477 911 l 651 911 l 651 738 l 477 738 z "},"ӱ":{"ha":952,"x_min":0,"x_max":868,"o":"m 543 -130 l 598 -16 q 594 -12 597 -14 q 564 0 582 0 l 174 0 q 50 50 102 0 q 0 174 0 100 l 0 694 l 217 694 l 217 260 q 241 198 217 224 q 304 174 267 174 l 564 174 q 625 198 600 174 q 651 260 651 224 l 651 694 l 868 694 l 868 130 q 845 43 868 81 l 846 43 l 760 -130 l 543 -130 m 217 738 l 217 911 l 391 911 l 391 738 l 217 738 m 477 738 l 477 911 l 651 911 l 651 738 l 477 738 z "},"Ӳ":{"ha":952,"x_min":0,"x_max":868,"o":"m 499 0 l 582 167 q 572 182 579 175 q 543 195 560 195 l 174 195 q 50 245 102 195 q 0 369 0 296 l 0 694 l 217 694 l 217 456 q 241 393 217 419 q 304 369 267 369 l 564 369 q 625 393 600 369 q 651 456 651 419 l 651 694 l 868 694 l 868 347 q 845 260 868 298 l 846 260 l 716 0 l 499 0 m 174 738 l 217 911 l 477 911 l 304 738 l 174 738 m 477 738 l 521 911 l 781 911 l 608 738 l 477 738 z "},"ӳ":{"ha":952,"x_min":0,"x_max":868,"o":"m 543 -130 l 598 -16 q 594 -12 597 -14 q 564 0 582 0 l 174 0 q 50 50 102 0 q 0 174 0 100 l 0 694 l 217 694 l 217 260 q 241 198 217 224 q 304 174 267 174 l 564 174 q 625 198 600 174 q 651 260 651 224 l 651 694 l 868 694 l 868 130 q 845 43 868 81 l 846 43 l 760 -130 l 543 -130 m 174 738 l 217 911 l 477 911 l 304 738 l 174 738 m 477 738 l 521 911 l 781 911 l 608 738 l 477 738 z "},"Ӵ":{"ha":952,"x_min":0,"x_max":868,"o":"m 694 0 l 694 152 q 681 182 694 170 q 651 195 669 195 l 174 195 q 50 245 102 195 q 0 369 0 296 l 0 694 l 217 694 l 217 456 q 241 393 217 419 q 304 369 267 369 l 608 369 q 637 381 625 369 q 651 412 651 393 l 651 694 l 868 694 l 868 0 l 694 0 m 217 738 l 217 911 l 391 911 l 391 738 l 217 738 m 477 738 l 477 911 l 651 911 l 651 738 l 477 738 z "},"ӵ":{"ha":952,"x_min":0,"x_max":868,"o":"m 694 0 l 694 152 q 681 182 694 170 q 651 195 669 195 l 174 195 q 50 245 102 195 q 0 369 0 296 l 0 694 l 217 694 l 217 456 q 241 393 217 419 q 304 369 267 369 l 608 369 q 637 381 625 369 q 651 412 651 393 l 651 694 l 868 694 l 868 0 l 694 0 m 217 738 l 217 911 l 391 911 l 391 738 l 217 738 m 477 738 l 477 911 l 651 911 l 651 738 l 477 738 z "},"Ӹ":{"ha":1213,"x_min":0,"x_max":1128,"o":"m 586 174 q 647 198 621 174 q 671 248 669 220 q 647 300 669 278 q 586 326 621 326 l 260 326 q 229 312 241 326 q 217 282 217 300 l 217 217 q 229 186 217 198 q 260 174 241 174 l 586 174 m 0 0 l 0 694 l 217 694 l 217 543 q 229 511 217 524 q 260 499 241 499 l 694 499 q 817 448 765 499 q 867 347 860 404 l 868 347 l 868 174 q 817 50 868 100 q 694 0 765 0 l 0 0 m 911 0 l 911 694 l 1128 694 l 1128 0 l 911 0 m 347 738 l 347 911 l 521 911 l 521 738 l 347 738 m 608 738 l 608 911 l 781 911 l 781 738 l 608 738 z "},"ӹ":{"ha":1213,"x_min":0,"x_max":1128,"o":"m 586 174 q 647 198 621 174 q 671 248 669 220 q 647 300 669 278 q 586 326 621 326 l 260 326 q 229 312 241 326 q 217 282 217 300 l 217 217 q 229 186 217 198 q 260 174 241 174 l 586 174 m 0 0 l 0 694 l 217 694 l 217 543 q 229 511 217 524 q 260 499 241 499 l 694 499 q 817 448 765 499 q 867 347 860 404 l 868 347 l 868 174 q 817 50 868 100 q 694 0 765 0 l 0 0 m 911 0 l 911 694 l 1128 694 l 1128 0 l 911 0 m 347 738 l 347 911 l 521 911 l 521 738 l 347 738 m 608 738 l 608 911 l 781 911 l 781 738 l 608 738 z "},"ẞ":{"ha":952,"x_min":0,"x_max":868,"o":"m 586 434 q 616 446 604 434 q 629 477 629 458 q 616 507 629 495 q 586 521 604 521 l 260 521 q 229 507 241 521 q 217 477 217 495 q 229 446 217 458 q 260 434 241 434 l 586 434 m 0 0 l 0 521 q 50 643 0 593 q 174 694 102 694 l 673 694 q 795 643 743 694 q 846 521 846 593 l 846 477 q 798 357 846 407 q 817 339 807 349 q 868 217 868 288 l 868 174 q 817 50 868 100 q 694 0 765 0 l 282 0 l 282 174 l 586 174 q 616 186 604 174 q 629 217 629 198 q 616 247 629 235 q 586 260 604 260 l 260 260 q 229 247 241 260 q 217 217 217 235 l 217 0 l 0 0 z "},"—":{"ha":692,"x_min":0,"x_max":608,"o":"m 0 260 l 0 434 l 608 434 l 608 260 l 0 260 z "},"‘":{"ha":345,"x_min":22,"x_max":239,"o":"m 22 434 l 22 651 q 46 773 22 722 q 109 825 72 825 q 133 701 109 753 q 195 651 159 651 l 239 651 l 239 434 l 22 434 z "},"’":{"ha":345,"x_min":22,"x_max":239,"o":"m 152 434 q 126 556 152 505 q 65 608 100 608 l 22 608 l 22 825 l 239 825 l 239 608 q 213 484 239 536 q 152 434 187 434 l 152 434 z "},"‚":{"ha":345,"x_min":22,"x_max":239,"o":"m 152 -174 q 126 -50 152 -102 q 65 0 100 0 l 22 0 l 22 217 l 239 217 l 239 0 q 213 -122 239 -71 q 152 -174 187 -174 l 152 -174 z "},"‛":{"ha":345,"x_min":22,"x_max":239,"o":"m 109 304 q 46 354 72 304 q 22 477 22 406 l 22 694 l 239 694 l 239 477 l 195 477 q 133 426 159 477 q 109 304 109 374 l 109 304 z "},"“":{"ha":605,"x_min":22,"x_max":499,"o":"m 22 434 l 22 651 q 46 773 22 722 q 109 825 72 825 q 133 701 109 753 q 195 651 159 651 l 239 651 l 239 434 l 22 434 m 282 434 l 282 651 q 307 773 282 722 q 369 825 332 825 q 393 701 369 753 q 456 651 419 651 l 499 651 l 499 434 l 282 434 z "},"”":{"ha":605,"x_min":22,"x_max":499,"o":"m 152 434 q 126 556 152 505 q 65 608 100 608 l 22 608 l 22 825 l 239 825 l 239 608 q 213 484 239 536 q 152 434 187 434 l 152 434 m 412 434 q 387 556 412 505 q 326 608 361 608 l 282 608 l 282 825 l 499 825 l 499 608 q 473 484 499 536 q 412 434 448 434 l 412 434 z "},"„":{"ha":605,"x_min":22,"x_max":499,"o":"m 152 -174 q 126 -50 152 -102 q 65 0 100 0 l 22 0 l 22 217 l 239 217 l 239 0 q 213 -122 239 -71 q 152 -174 187 -174 l 152 -174 m 412 -174 q 387 -50 412 -102 q 326 0 361 0 l 282 0 l 282 217 l 499 217 l 499 0 q 473 -122 499 -71 q 412 -174 448 -174 l 412 -174 z "},"†":{"ha":779,"x_min":0,"x_max":694,"o":"m 0 -130 l 0 521 q 50 643 0 593 q 174 694 102 694 l 694 694 l 694 521 l 304 521 q 241 495 267 521 q 217 434 217 469 l 217 412 q 229 381 217 393 q 260 369 241 369 l 673 369 l 673 195 l 260 195 q 229 182 241 195 q 217 152 217 170 l 217 -130 l 0 -130 z "},"•":{"ha":605,"x_min":0,"x_max":347,"o":"m 87 195 q 24 220 50 195 q 0 282 0 245 l 0 411 q 24 473 0 448 q 87 499 50 499 l 260 499 q 321 473 296 499 q 347 412 347 448 l 347 282 q 321 220 347 245 q 260 195 296 195 l 87 195 z "},"…":{"ha":1039,"x_min":22,"x_max":933,"o":"m 22 0 l 22 217 l 239 217 l 239 0 l 22 0 m 369 0 l 369 217 l 586 217 l 586 0 l 369 0 m 716 0 l 716 217 l 933 217 l 933 0 l 716 0 z "},"‹":{"ha":1039,"x_min":-87,"x_max":955,"o":"m -87 0 l 564 651 l 564 650 q 593 669 575 659 q 694 693 636 690 l 694 694 l 781 694 q 903 643 853 694 q 955 521 955 591 l 955 0 l 738 0 l 738 65 q 724 95 738 83 q 694 109 712 109 l 391 109 l 564 282 l 694 282 q 724 294 712 282 q 738 326 738 307 l 738 477 q 724 507 738 495 q 722 510 723 509 q 699 503 709 507 l 195 0 l -87 0 z "},"›":{"ha":1039,"x_min":0,"x_max":1042,"o":"m 0 0 l 0 521 q 50 643 0 591 q 174 694 100 694 l 260 694 l 260 693 q 361 669 317 690 q 391 650 378 659 l 391 651 l 1042 0 l 760 0 l 255 503 q 232 510 244 507 q 229 507 231 509 q 217 477 217 495 l 217 326 q 229 294 217 307 q 260 282 241 282 l 391 282 l 564 109 l 260 109 q 229 95 241 109 q 217 65 217 83 l 217 0 l 0 0 z "},"€":{"ha":952,"x_min":-65,"x_max":868,"o":"m 260 0 q 137 50 189 0 q 87 174 87 100 l 87 260 l -65 260 l 22 434 l 87 434 l 87 521 q 137 643 87 593 q 260 694 189 694 l 868 694 l 868 521 l 347 521 q 316 507 328 521 q 304 477 304 495 q 316 446 304 458 q 347 434 328 434 l 781 434 l 694 260 l 347 260 q 316 247 328 260 q 304 217 304 235 q 316 186 304 198 q 347 174 328 174 l 868 174 l 868 0 l 260 0 z "},"™":{"ha":605,"x_min":0,"x_max":564,"o":"m 87 694 l 87 825 l 0 825 l 0 868 l 217 868 l 217 825 l 130 825 l 130 694 l 87 694 m 260 694 l 260 868 l 477 868 q 538 842 513 868 q 564 781 564 817 l 564 694 l 521 694 l 521 781 q 507 811 521 799 q 477 825 495 825 l 434 825 l 434 694 l 391 694 l 391 825 l 304 825 l 304 694 l 260 694 z "},"ﬁ":{"ha":692,"x_min":22,"x_max":586,"o":"m 369 738 l 369 825 l 586 825 l 586 738 l 369 738 m 22 0 l 22 673 q 72 795 22 745 q 195 846 123 846 l 282 846 q 251 821 263 846 q 239 760 239 795 l 239 694 l 586 694 l 586 0 l 369 0 l 369 521 l 239 521 l 239 0 l 22 0 z "},"ﬂ":{"ha":692,"x_min":22,"x_max":586,"o":"m 22 0 l 22 673 q 72 795 22 745 q 195 846 123 846 l 282 846 q 251 821 263 846 q 239 760 239 795 l 239 694 l 369 694 l 369 825 l 586 825 l 586 0 l 369 0 l 369 521 l 239 521 l 239 0 l 22 0 z "}}}
